<svg id="Layer_1" data-name="Layer 1" xmlns="http://www.w3.org/2000/svg" viewBox="0 0 918.31 159.08"><defs><style>.cls-1{fill:none;stroke:#231f20;stroke-miterlimit:10;stroke-width:3px;}.cls-2{fill:#231f20;}</style></defs><title>artwork</title><path class="cls-1" d="M905.4,119" transform="translate(-180.37 -56.59)"/><path class="cls-2" d="M922.44,119.9c-2.49,0-6.69-.88-8.53-3.78-1.84,2.9-6,3.77-8.54,3.78v-1.82c.31,0,7.63-.1,7.63-5.24h1.82c0,5.14,7.32,5.24,7.63,5.24Z" transform="translate(-180.37 -56.59)"/><path class="cls-2" d="M939.5,119.9c-2.5,0-6.7-.88-8.54-3.78-1.84,2.9-6,3.77-8.54,3.78v-1.82c.31,0,7.63-.1,7.63-5.24h1.82c0,5.14,7.32,5.24,7.63,5.24Z" transform="translate(-180.37 -56.59)"/><path class="cls-1" d="M865.4,119" transform="translate(-180.37 -56.59)"/><path class="cls-2" d="M882.44,119.9c-2.49,0-6.69-.88-8.53-3.78-1.84,2.9-6,3.77-8.54,3.78v-1.82c.31,0,7.63-.1,7.63-5.24h1.82c0,5.14,7.32,5.24,7.63,5.24Z" transform="translate(-180.37 -56.59)"/><path class="cls-2" d="M899.5,119.9c-2.5,0-6.7-.88-8.54-3.78-1.84,2.9-6,3.77-8.54,3.78v-1.82c.31,0,7.63-.1,7.63-5.24h1.82c0,5.14,7.32,5.24,7.63,5.24Z" transform="translate(-180.37 -56.59)"/><path class="cls-1" d="M180.4,119" transform="translate(-180.37 -56.59)"/><path class="cls-2" d="M197.44,119.9c-2.49,0-6.69-.88-8.53-3.78-1.84,2.9-6,3.77-8.54,3.78v-1.82c.31,0,7.63-.1,7.63-5.24h1.82c0,5.14,7.32,5.24,7.63,5.24Z" transform="translate(-180.37 -56.59)"/><path class="cls-2" d="M214.5,119.9c-2.5,0-6.7-.88-8.54-3.78-1.84,2.9-6,3.77-8.54,3.78v-1.82c.31,0,7.63-.1,7.63-5.24h1.82c0,5.14,7.32,5.24,7.63,5.24Z" transform="translate(-180.37 -56.59)"/><path class="cls-2" d="M1098.66,120.17c-2.49,0-6.69-.88-8.53-3.78-1.84,2.9-6,3.77-8.54,3.78v-1.81c.31,0,7.63-.11,7.63-5.24H1091c0,2.11,1.23,3.63,3.67,4.51a13.44,13.44,0,0,0,4,.73Z" transform="translate(-180.37 -56.59)"/><path class="cls-2" d="M689.66,120.17c-2.49,0-6.69-.88-8.53-3.78-1.84,2.9-6,3.77-8.54,3.78v-1.81c.31,0,7.63-.11,7.63-5.24H682c0,2.11,1.23,3.63,3.67,4.51a13.44,13.44,0,0,0,4,.73Z" transform="translate(-180.37 -56.59)"/><path d="M944.91,184a50.15,50.15,0,0,1-.76,9.46.7.7,0,0,0,.41.77.42.42,0,0,0,.28.07.71.71,0,0,0,.56-.35l5.5-8.35a24.64,24.64,0,0,0,12.32,7l-.56,1.67a.69.69,0,0,0,.42.9,14.32,14.32,0,0,0,13.36-2.43c5.57-1.39,9.47-4.8,9.47-8.7s-3.9-7.31-9.47-8.71a14.24,14.24,0,0,0-13.36-2.36.72.72,0,0,0-.42.9l.56,1.67a24.63,24.63,0,0,0-12.32,7l-5.5-8.36a.7.7,0,0,0-.84-.28.72.72,0,0,0-.42.77,54.31,54.31,0,0,1,.77,9.4Zm19.35-10a12.61,12.61,0,0,1,8.57.7c-.7-.07-1.4-.07-2.09-.07a33.23,33.23,0,0,0-6.13.56l-.35-1.19Zm8.56,19.29a13.39,13.39,0,0,1-8.56.69l.35-1.18a32.7,32.7,0,0,0,6.13.55c.69,0,1.39,0,2.08-.06ZM951.38,184c1.68-2,7.66-8,19.36-8,7.45,0,13.78,3.69,13.78,8s-6.33,8-13.78,8C959.11,192,953.06,185.91,951.38,184ZM946,190.5a48.22,48.22,0,0,0,.35-6.47c0-2.3-.14-4.53-.34-6.55l4.31,6.48L946,190.5ZM977,179a3.19,3.19,0,0,0-3.2,3.2,3.2,3.2,0,0,0,6.4,0A3.19,3.19,0,0,0,977,179Zm-1.81,3.13a1.81,1.81,0,1,1,3.62,0,1.81,1.81,0,1,1-3.62,0Z" transform="translate(-180.37 -56.59)"/><path d="M994.06,177.68a1.9,1.9,0,1,1,1.9-1.9A1.9,1.9,0,0,1,994.06,177.68Zm0-2.59a.69.69,0,1,0,.69.69A.68.68,0,0,0,994.06,175.09Z" transform="translate(-180.37 -56.59)"/><path d="M1001.84,171.94a2.8,2.8,0,1,1,2.8-2.8A2.81,2.81,0,0,1,1001.84,171.94Zm0-4.39a1.59,1.59,0,1,0,1.59,1.59A1.59,1.59,0,0,0,1001.84,167.55Z" transform="translate(-180.37 -56.59)"/><path d="M1002.29,141.83a2.58,2.58,0,0,0,.44,1.42,2.52,2.52,0,0,0,1.17.92v4.76a3.63,3.63,0,0,0,1.81,3,3.59,3.59,0,0,0,5.36-3v-.77l1.06.51a.87.87,0,1,0,.76-1.57l-2.31-1.12a.88.88,0,0,0-1.25.79v2.16a1.84,1.84,0,0,1-3.68,0v-4.74a2.5,2.5,0,0,0,0-4.73V59.69l29.09,32a.87.87,0,1,0,1.29-1.18l-29.24-32.19h.05L1040,92.05l-.19,0a6.13,6.13,0,0,0-4.36,1.8,6.09,6.09,0,0,0-.57,8l-.79.79-1.11-1.11a.84.84,0,0,0-.63-.28.89.89,0,0,0-.63.26.85.85,0,0,0-.25.63.82.82,0,0,0,.28.62h0l1.73,1.73a.87.87,0,0,0,1.23,0l1.41-1.41a6.17,6.17,0,0,0,8.27-.76,6.18,6.18,0,0,0,1.6-4.15s0,0,0-.07l4.61,4.67-1.8,1.79-1.67-1.81a.88.88,0,0,0-1.29,1.19l2.25,2.43.06.08,0,0h0l4.54,4.91a3.11,3.11,0,0,0,2.19,1h.12a3.1,3.1,0,0,0,2.21-.9,3.17,3.17,0,0,0,.93-2.21,3.12,3.12,0,0,0-.9-2.22l-49.47-50.25a.91.91,0,0,0-.62-.26h-2.43l-.1,0-.14,0a.88.88,0,0,0-.64.83v82a2.6,2.6,0,0,0-1.17.93,2.54,2.54,0,0,0-.44,1.42Zm33.11-43.64a4.42,4.42,0,1,1,2,3.67l3.07-3a.93.93,0,0,0,.27-.62.88.88,0,0,0-.26-.63.85.85,0,0,0-.62-.26.93.93,0,0,0-.63.27l-3.06,3.06a4.33,4.33,0,0,1-.75-2.44Zm16.43,5.85,4.23,4.29a1.39,1.39,0,0,1,0,2,1.29,1.29,0,0,1-1,.37,1.38,1.38,0,0,1-1-.44l-4-4.38Zm-47,38.56a.77.77,0,1,1,.71-.48.77.77,0,0,1-.71.48Z" transform="translate(-180.37 -56.59)"/><path d="M509.79,205.62a46.68,46.68,0,0,1,.65-8,.61.61,0,0,0-.35-.66.59.59,0,0,0-.71.24l-4.68,7.1a20.82,20.82,0,0,0-10.46-5.92l.47-1.42a.61.61,0,0,0-.35-.76,12.06,12.06,0,0,0-11.36,2c-4.73,1.18-8,4.08-8,7.39s3.31,6.21,8,7.39a12.21,12.21,0,0,0,11.36,2.07.59.59,0,0,0,.35-.77l-.47-1.42A20.87,20.87,0,0,0,504.7,207l4.68,7.1a.59.59,0,0,0,.47.29.36.36,0,0,0,.24-.06.6.6,0,0,0,.35-.65,42.37,42.37,0,0,1-.65-8Zm-16.44-8.46-.3,1a27.88,27.88,0,0,0-5.2-.48,17.45,17.45,0,0,0-1.77.06,10.67,10.67,0,0,1,7.27-.59Zm-7.27,16.38a17.45,17.45,0,0,0,1.77.06,27.44,27.44,0,0,0,5.2-.47l.3,1a11.35,11.35,0,0,1-7.27-.6Zm1.77-1.12c-6.33,0-11.71-3.13-11.71-6.8s5.38-6.8,11.71-6.8c9.93,0,15,5.14,16.44,6.8C502.87,207.28,497.73,212.42,487.85,212.42Zm21-1.24-3.66-5.56,3.66-5.5c-.17,1.71-.29,3.61-.29,5.56a42.4,42.4,0,0,0,.29,5.5Zm-26.37-9.82a2.71,2.71,0,0,0-2.72,2.72,2.72,2.72,0,0,0,5.44,0,2.71,2.71,0,0,0-2.72-2.72Zm0,4.2A1.53,1.53,0,0,1,481,204a1.54,1.54,0,0,1,3.07,0A1.52,1.52,0,0,1,482.53,205.56Z" transform="translate(-180.37 -56.59)"/></svg>