<?xml version="1.0" encoding="utf-8"?>
<!-- Generator: Adobe Illustrator 24.0.0, SVG Export Plug-In . SVG Version: 6.00 Build 0)  -->
<svg version="1.1" id="Layer_1" xmlns="http://www.w3.org/2000/svg" xmlns:xlink="http://www.w3.org/1999/xlink" x="0px" y="0px"
	 width="1000"
	 viewBox="300 70 800 100" style="enable-background:new 0 0 1280 294;" xml:space="preserve">
<style type="text/css">
	.st0{fill:none;stroke:#231F20;stroke-width:3;stroke-miterlimit:10;}
	.st1{fill:#231F20;}
</style>
<g>
	<path class="st0" d="M782.78,133.93"/>
	<path class="st1" d="M799.83,134.84c-2.5-0.01-6.7-0.88-8.54-3.78c-1.84,2.89-6.04,3.77-8.54,3.78l-0.01-1.81
		c0.31,0,7.64-0.1,7.64-5.24h1.81c0,5.14,7.32,5.24,7.64,5.24L799.83,134.84z"/>
	<path class="st1" d="M816.88,134.84c-2.5-0.01-6.7-0.88-8.54-3.78c-1.84,2.89-6.04,3.77-8.54,3.78l-0.01-1.81
		c0.31,0,7.64-0.1,7.64-5.24h1.81c0,5.14,7.32,5.24,7.64,5.24L816.88,134.84z"/>
</g>
<g>
	<path class="st0" d="M742.78,133.93"/>
	<path class="st1" d="M759.83,134.84c-2.5-0.01-6.7-0.88-8.54-3.78c-1.84,2.89-6.04,3.77-8.54,3.78l-0.01-1.81
		c0.31,0,7.64-0.1,7.64-5.24h1.81c0,5.14,7.32,5.24,7.64,5.24L759.83,134.84z"/>
	<path class="st1" d="M776.88,134.84c-2.5-0.01-6.7-0.88-8.54-3.78c-1.84,2.89-6.04,3.77-8.54,3.78l-0.01-1.81
		c0.31,0,7.64-0.1,7.64-5.24h1.81c0,5.14,7.32,5.24,7.64,5.24L776.88,134.84z"/>
</g>
<path class="st1" d="M447.83,134.84c-2.5-0.01-6.7-0.88-8.54-3.78c-1.84,2.89-6.04,3.77-8.54,3.78l-0.01-1.81
	c0.31,0,7.64-0.1,7.64-5.24h1.81c0,5.14,7.32,5.24,7.64,5.24L447.83,134.84z"/>
<path class="st1" d="M464.88,134.84c-2.5-0.01-6.7-0.88-8.54-3.78c-1.84,2.89-6.04,3.77-8.54,3.78l-0.01-1.81
	c0.31,0,7.64-0.1,7.64-5.24h1.81c0,5.14,7.32,5.24,7.64,5.24L464.88,134.84z"/>
<path class="st1" d="M617.88,134.84c-2.5-0.01-6.7-0.88-8.54-3.78c-1.84,2.89-6.04,3.77-8.54,3.78l-0.01-1.81
	c0.31,0,7.64-0.1,7.64-5.24h1.81c0,5.14,7.32,5.24,7.64,5.24L617.88,134.84z"/>
</svg>
