<?xml version="1.0" encoding="utf-8"?>
<!-- Generator: Adobe Illustrator 24.0.0, SVG Export Plug-In . SVG Version: 6.00 Build 0)  -->
<svg version="1.1" id="Layer_1" xmlns="http://www.w3.org/2000/svg" xmlns:xlink="http://www.w3.org/1999/xlink" x="0px" y="0px"
	 viewBox="0 0 1280 294" style="enable-background:new 0 0 1280 294;" xml:space="preserve">
<style type="text/css">
	.st0{fill:none;stroke:#231F20;stroke-width:3;stroke-miterlimit:10;}
	.st1{fill:#231F20;}
</style>
<g>
	<path class="st0" d="M896.7,119.17"/>
	<path class="st1" d="M913.74,120.08c-2.5-0.01-6.7-0.88-8.54-3.78c-1.84,2.89-6.04,3.77-8.54,3.78l-0.01-1.81
		c0.31,0,7.64-0.1,7.64-5.24h1.81c0,5.14,7.32,5.24,7.64,5.24L913.74,120.08z"/>
	<path class="st1" d="M930.8,120.08c-2.5-0.01-6.7-0.88-8.54-3.78c-1.84,2.89-6.04,3.77-8.54,3.78l-0.01-1.81
		c0.31,0,7.64-0.1,7.64-5.24h1.81c0,5.14,7.32,5.24,7.64,5.24L930.8,120.08z"/>
</g>
<g>
	<path class="st0" d="M856.7,119.17"/>
	<path class="st1" d="M873.74,120.08c-2.5-0.01-6.7-0.88-8.54-3.78c-1.84,2.89-6.04,3.77-8.54,3.78l-0.01-1.81
		c0.31,0,7.64-0.1,7.64-5.24h1.81c0,5.14,7.32,5.24,7.64,5.24L873.74,120.08z"/>
	<path class="st1" d="M890.8,120.08c-2.5-0.01-6.7-0.88-8.54-3.78c-1.84,2.89-6.04,3.77-8.54,3.78l-0.01-1.81
		c0.31,0,7.64-0.1,7.64-5.24h1.81c0,5.14,7.32,5.24,7.64,5.24L890.8,120.08z"/>
</g>
<g>
	<path class="st0" d="M171.7,119.17"/>
	<path class="st1" d="M188.74,120.08c-2.5-0.01-6.7-0.88-8.54-3.78c-1.84,2.89-6.04,3.77-8.54,3.78l-0.01-1.81
		c0.31,0,7.64-0.1,7.64-5.24h1.81c0,5.14,7.32,5.24,7.64,5.24L188.74,120.08z"/>
	<path class="st1" d="M205.8,120.08c-2.5-0.01-6.7-0.88-8.54-3.78c-1.84,2.89-6.04,3.77-8.54,3.78l-0.01-1.81
		c0.31,0,7.64-0.1,7.64-5.24h1.81c0,5.14,7.32,5.24,7.64,5.24L205.8,120.08z"/>
</g>
<path class="st1" d="M1089.96,120.35c-2.5-0.01-6.7-0.88-8.54-3.78c-1.84,2.89-6.04,3.77-8.54,3.78l-0.01-1.81
	c0.31,0,7.64-0.1,7.64-5.24h1.81c0,2.11,1.24,3.63,3.67,4.51c1.96,0.71,3.94,0.73,3.96,0.73L1089.96,120.35z"/>
<path class="st1" d="M680.96,120.35c-2.5-0.01-6.7-0.88-8.54-3.78c-1.84,2.89-6.04,3.77-8.54,3.78l-0.01-1.81
	c0.31,0,7.64-0.1,7.64-5.24h1.81c0,2.11,1.24,3.63,3.67,4.51c1.96,0.71,3.94,0.73,3.96,0.73L680.96,120.35z"/>
<path d="M936.21,184.14c0,3.41-0.21,6.68-0.77,9.47c-0.07,0.35,0.14,0.63,0.42,0.77c0.07,0.07,0.21,0.07,0.28,0.07
	c0.21,0,0.42-0.14,0.56-0.35l5.5-8.35c1.74,1.88,5.71,5.36,12.32,6.96l-0.56,1.67c-0.14,0.42,0.07,0.77,0.42,0.91
	c1.53,0.49,2.99,0.7,4.52,0.7c3.13,0,6.27-1.11,8.84-3.13c5.57-1.39,9.47-4.8,9.47-8.7c0-3.9-3.9-7.31-9.47-8.7
	c-3.83-2.99-8.77-3.9-13.37-2.37c-0.35,0.14-0.56,0.56-0.42,0.91l0.56,1.67c-6.61,1.6-10.58,5.08-12.32,6.96l-5.5-8.35
	c-0.21-0.28-0.56-0.42-0.84-0.28c-0.28,0.14-0.49,0.42-0.42,0.77C935.93,177.45,936.21,180.73,936.21,184.14L936.21,184.14z
	 M955.56,174.18c2.85-0.77,5.85-0.56,8.56,0.7c-0.7-0.07-1.39-0.07-2.09-0.07c-2.23,0-4.25,0.21-6.13,0.56L955.56,174.18
	L955.56,174.18z M964.13,193.46c-2.71,1.18-5.71,1.39-8.56,0.7l0.35-1.18c1.81,0.35,3.9,0.56,6.13,0.56
	C962.73,193.53,963.43,193.53,964.13,193.46L964.13,193.46z M942.68,184.14c1.67-1.95,7.66-8.01,19.35-8.01
	c7.45,0,13.78,3.69,13.78,8.01c0,4.32-6.33,8.01-13.78,8.01C950.41,192.14,944.36,186.09,942.68,184.14z M937.26,190.68
	c0.28-2.09,0.35-4.18,0.35-6.47c0-2.3-0.14-4.53-0.35-6.54l4.32,6.47L937.26,190.68L937.26,190.68z M968.3,179.12
	c-1.74,0-3.2,1.39-3.2,3.2c0,1.81,1.39,3.2,3.2,3.2c1.81,0,3.2-1.39,3.2-3.2C971.5,180.52,970.04,179.12,968.3,179.12L968.3,179.12z
	 M966.49,182.26c0-1.04,0.77-1.81,1.81-1.81s1.81,0.77,1.81,1.81c0,1.04-0.84,1.81-1.81,1.81
	C967.33,184.07,966.49,183.3,966.49,182.26z"/>
<path d="M985.37,177.86c-1.05,0-1.9-0.85-1.9-1.9c0-1.05,0.85-1.9,1.9-1.9s1.9,0.85,1.9,1.9
	C987.26,177.01,986.41,177.86,985.37,177.86z M985.37,175.27c-0.38,0-0.69,0.31-0.69,0.69s0.31,0.69,0.69,0.69
	c0.38,0,0.69-0.31,0.69-0.69S985.75,175.27,985.37,175.27z"/>
<path d="M993.14,172.12c-1.54,0-2.8-1.26-2.8-2.8c0-1.54,1.26-2.8,2.8-2.8s2.8,1.26,2.8,2.8
	C995.94,170.86,994.69,172.12,993.14,172.12z M993.14,167.73c-0.88,0-1.59,0.71-1.59,1.59s0.71,1.59,1.59,1.59
	c0.88,0,1.59-0.71,1.59-1.59S994.02,167.73,993.14,167.73z"/>
<path d="M993.59,142.01c0,0.51,0.16,1,0.44,1.42c0.29,0.42,0.7,0.74,1.17,0.92v4.76c0.02,1.27,0.71,2.43,1.81,3.05
	c1.1,0.63,2.45,0.63,3.55,0c1.1-0.63,1.79-1.79,1.81-3.05v-0.77l1.06,0.51c0.43,0.21,0.96,0.03,1.17-0.41
	c0.21-0.43,0.03-0.96-0.41-1.17l-2.31-1.11c-0.27-0.13-0.59-0.11-0.84,0.05c-0.25,0.16-0.41,0.44-0.41,0.74v2.16
	c-0.02,0.65-0.37,1.24-0.93,1.55c-0.56,0.32-1.25,0.32-1.81,0c-0.56-0.32-0.92-0.91-0.93-1.55v-4.74c0.66-0.23,1.2-0.72,1.48-1.36
	c0.28-0.64,0.28-1.37,0-2.01c-0.28-0.64-0.82-1.13-1.48-1.36V59.87l29.09,32.02c0.32,0.36,0.88,0.38,1.23,0.06
	c0.36-0.32,0.38-0.88,0.06-1.23l-29.24-32.19h0.05l33.18,33.71c-0.07,0-0.13-0.02-0.19-0.02c-1.64,0-3.2,0.65-4.36,1.8
	c-1.16,1.16-1.81,2.72-1.81,4.36c0,1.33,0.44,2.62,1.25,3.68l-0.79,0.79l-1.11-1.11c-0.16-0.17-0.39-0.27-0.62-0.28
	c-0.24,0-0.47,0.09-0.63,0.26c-0.17,0.17-0.26,0.4-0.25,0.63c0,0.24,0.11,0.46,0.28,0.62v0l1.73,1.72c0.34,0.34,0.89,0.34,1.23,0
	l1.41-1.41c1.22,0.93,2.75,1.36,4.28,1.22c1.53-0.14,2.95-0.85,3.99-1.98c1.03-1.14,1.61-2.62,1.6-4.15c0-0.02-0.01-0.05-0.01-0.07
	l4.6,4.67l-1.8,1.79l-1.68-1.81c-0.33-0.33-0.86-0.33-1.2-0.02c-0.34,0.32-0.38,0.84-0.08,1.2l2.25,2.43
	c0.02,0.03,0.03,0.06,0.05,0.08c0.02,0.01,0.04,0.03,0.06,0.04v0l4.54,4.91c0.57,0.62,1.35,0.98,2.19,1.01h0.12
	c0.83,0,1.63-0.32,2.22-0.91c0.59-0.58,0.92-1.38,0.93-2.21c0.01-0.83-0.32-1.63-0.9-2.22l-49.47-50.25
	c-0.16-0.17-0.39-0.26-0.62-0.26h-2.43c-0.03,0-0.07,0.01-0.1,0.02c-0.05,0.01-0.1,0.01-0.14,0.03c-0.37,0.1-0.63,0.44-0.63,0.82
	v82.02c-0.47,0.18-0.88,0.5-1.17,0.92C993.75,141,993.59,141.5,993.59,142.01L993.59,142.01z M1026.7,98.37
	c0-1.32,0.59-2.57,1.61-3.41c1.02-0.84,2.36-1.18,3.65-0.92c1.29,0.25,2.41,1.07,3.03,2.24c0.63,1.16,0.7,2.54,0.2,3.76
	c-0.5,1.22-1.52,2.15-2.78,2.54c-1.26,0.39-2.63,0.19-3.73-0.53l3.07-3.06c0.17-0.16,0.27-0.39,0.27-0.62
	c0-0.23-0.09-0.46-0.26-0.63c-0.17-0.17-0.39-0.26-0.62-0.26c-0.23,0-0.46,0.1-0.62,0.27l-3.07,3.06
	C1026.96,100.09,1026.7,99.24,1026.7,98.37L1026.7,98.37z M1043.13,104.22l4.22,4.29c0.26,0.27,0.4,0.63,0.4,1
	c-0.01,0.37-0.17,0.73-0.44,0.98c-0.27,0.26-0.63,0.4-1.01,0.37c-0.37-0.01-0.72-0.17-0.97-0.45l-4.03-4.37L1043.13,104.22z
	 M996.12,142.78c-0.43,0-0.77-0.34-0.78-0.77c0-0.31,0.19-0.59,0.48-0.71c0.29-0.12,0.62-0.05,0.84,0.17s0.29,0.55,0.17,0.84
	C996.71,142.59,996.43,142.78,996.12,142.78L996.12,142.78z"/>
<path d="M501.09,205.8c0-2.9,0.24-5.68,0.65-7.98c0.06-0.3-0.12-0.53-0.35-0.65c-0.24-0.12-0.53,0-0.71,0.24l-4.67,7.1
	c-1.48-1.6-4.85-4.55-10.47-5.91l0.47-1.42c0.12-0.3-0.06-0.65-0.35-0.77c-3.9-1.3-8.1-0.53-11.35,2.01
	c-4.73,1.18-8.04,4.08-8.04,7.39s3.31,6.21,8.04,7.39c2.19,1.71,4.85,2.66,7.51,2.66c1.3,0,2.54-0.18,3.84-0.59
	c0.3-0.12,0.47-0.41,0.35-0.77l-0.47-1.42c5.62-1.36,8.99-4.32,10.47-5.91l4.67,7.1c0.12,0.18,0.3,0.3,0.47,0.3
	c0.06,0,0.18,0,0.24-0.06c0.24-0.12,0.41-0.35,0.35-0.65C501.27,211.48,501.09,208.7,501.09,205.8L501.09,205.8z M484.65,197.34
	l-0.3,1.01c-1.6-0.3-3.31-0.47-5.2-0.47c-0.59,0-1.18,0-1.77,0.06C479.68,196.87,482.23,196.69,484.65,197.34L484.65,197.34z
	 M477.38,213.72c0.59,0.06,1.18,0.06,1.77,0.06c1.89,0,3.67-0.18,5.2-0.47l0.3,1.01C482.23,214.91,479.68,214.73,477.38,213.72
	L477.38,213.72z M479.15,212.6c-6.33,0-11.71-3.13-11.71-6.8c0-3.67,5.38-6.8,11.71-6.8c9.94,0,15.02,5.14,16.44,6.8
	C494.17,207.45,489.03,212.6,479.15,212.6z M500.2,211.36l-3.67-5.56l3.67-5.5c-0.18,1.71-0.3,3.61-0.3,5.56
	C499.91,207.81,499.97,209.58,500.2,211.36L500.2,211.36z M473.83,201.54c-1.48,0-2.72,1.18-2.72,2.72c0,1.54,1.18,2.72,2.72,2.72
	c1.54,0,2.72-1.18,2.72-2.72S475.31,201.54,473.83,201.54L473.83,201.54z M473.83,205.74c-0.83,0-1.54-0.65-1.54-1.54
	c0-0.89,0.65-1.54,1.54-1.54c0.89,0,1.54,0.65,1.54,1.54C475.37,205.09,474.66,205.74,473.83,205.74z"/>
<path d="M440.33,188.53c-1.05,0-1.9-0.85-1.9-1.9c0-1.05,0.85-1.9,1.9-1.9c1.05,0,1.9,0.85,1.9,1.9
	C442.23,187.68,441.38,188.53,440.33,188.53z M440.33,185.94c-0.38,0-0.69,0.31-0.69,0.69s0.31,0.69,0.69,0.69
	c0.38,0,0.69-0.31,0.69-0.69S440.71,185.94,440.33,185.94z"/>
<path d="M433.11,182.79c-1.54,0-2.8-1.26-2.8-2.8c0-1.54,1.26-2.8,2.8-2.8c1.54,0,2.8,1.26,2.8,2.8
	C435.91,181.53,434.66,182.79,433.11,182.79z M433.11,178.4c-0.88,0-1.59,0.71-1.59,1.59s0.71,1.59,1.59,1.59
	c0.88,0,1.59-0.71,1.59-1.59S433.99,178.4,433.11,178.4z"/>
</svg>
