<?xml version="1.0" encoding="utf-8"?>
<!-- Generator: Adobe Illustrator 24.0.0, SVG Export Plug-In . SVG Version: 6.00 Build 0)  -->
<svg version="1.1" id="Layer_1" xmlns="http://www.w3.org/2000/svg" xmlns:xlink="http://www.w3.org/1999/xlink" x="0px" y="0px"
	 viewBox="0 0 256 256" style="enable-background:new 0 0 256 256;" xml:space="preserve">
<path d="M220.8,44.02c0-21.85-17.78-39.63-39.63-39.63c-21.86,0-39.64,17.78-39.64,39.63c0,17.2,11.08,31.73,26.42,37.2v90.51
	c0,29.14-23.71,52.85-52.85,52.85c-29.14,0-52.85-23.71-52.85-52.85h17.62c3.56,0,6.77-2.15,8.14-5.44c1.36-3.29,0.61-7.08-1.91-9.6
	l-35.23-35.23c-2.53-2.53-6.31-3.27-9.6-1.91c-3.29,1.37-5.44,4.58-5.44,8.14v44.04c0,43.71,35.56,79.27,79.27,79.27
	c43.71,0,79.27-35.56,79.27-79.27l0-90.51C209.73,75.74,220.81,61.22,220.8,44.02L220.8,44.02z M181.17,66.04
	c-12.14,0-22.02-9.88-22.02-22.02S169.03,22,181.17,22c12.14,0,22.02,9.88,22.02,22.02S193.31,66.04,181.17,66.04z"/>
</svg>
