<?xml version="1.0" encoding="utf-8"?>
<!-- Generator: Adobe Illustrator 24.0.0, SVG Export Plug-In . SVG Version: 6.00 Build 0)  -->
<svg version="1.1" id="Layer_1" xmlns="http://www.w3.org/2000/svg" xmlns:xlink="http://www.w3.org/1999/xlink" x="0px" y="0px" viewBox="0 70 1280 100" style="display: block;" xml:space="preserve">
<style type="text/css">
	.st0{fill:none;stroke:#231F20;stroke-width:3;stroke-miterlimit:10;}
	.st1{fill:#231F20;}
</style>
<g>
	<path class="st0" d="M942.59,167"/>
	<path class="st1" d="M959.63,167.91c-2.5-0.01-6.7-0.88-8.54-3.78c-1.84,2.89-6.04,3.77-8.54,3.78l-0.01-1.81
		c0.31,0,7.64-0.1,7.64-5.24h1.81c0,5.14,7.32,5.24,7.64,5.24L959.63,167.91z"/>
	<path class="st1" d="M976.69,167.91c-2.5-0.01-6.7-0.88-8.54-3.78c-1.84,2.89-6.04,3.77-8.54,3.78l-0.01-1.81
		c0.31,0,7.64-0.1,7.64-5.24h1.81c0,5.14,7.32,5.24,7.64,5.24L976.69,167.91z"/>
</g>
<g>
	<path class="st0" d="M902.59,167"/>
	<path class="st1" d="M919.63,167.91c-2.5-0.01-6.7-0.88-8.54-3.78c-1.84,2.89-6.04,3.77-8.54,3.78l-0.01-1.81
		c0.31,0,7.64-0.1,7.64-5.24h1.81c0,5.14,7.32,5.24,7.64,5.24L919.63,167.91z"/>
	<path class="st1" d="M936.69,167.91c-2.5-0.01-6.7-0.88-8.54-3.78c-1.84,2.89-6.04,3.77-8.54,3.78l-0.01-1.81
		c0.31,0,7.64-0.1,7.64-5.24h1.81c0,5.14,7.32,5.24,7.64,5.24L936.69,167.91z"/>
</g>
<g>
	<path class="st0" d="M314.59,167"/>
	<path class="st1" d="M331.63,167.91c-2.5-0.01-6.7-0.88-8.54-3.78c-1.84,2.89-6.04,3.77-8.54,3.78l-0.01-1.81
		c0.31,0,7.64-0.1,7.64-5.24h1.81c0,5.14,7.32,5.24,7.64,5.24L331.63,167.91z"/>
	<path class="st1" d="M348.69,167.91c-2.5-0.01-6.7-0.88-8.54-3.78c-1.84,2.89-6.04,3.77-8.54,3.78l-0.01-1.81
		c0.31,0,7.64-0.1,7.64-5.24h1.81c0,5.14,7.32,5.24,7.64,5.24L348.69,167.91z"/>
</g>
<path class="st1" d="M1095.85,168.19c-2.5-0.01-6.7-0.88-8.54-3.78c-1.84,2.89-6.04,3.77-8.54,3.78l-0.01-1.81
	c0.31,0,7.64-0.1,7.64-5.24h1.81c0,2.11,1.24,3.63,3.67,4.51c1.96,0.71,3.94,0.73,3.96,0.73L1095.85,168.19z"/>
<path class="st1" d="M264.85,168.19c-2.5-0.01-6.7-0.88-8.54-3.78c-1.84,2.89-6.04,3.77-8.54,3.78l-0.01-1.81
	c0.31,0,7.64-0.1,7.64-5.24h1.81c0,2.11,1.24,3.63,3.67,4.51c1.96,0.71,3.94,0.73,3.96,0.73L264.85,168.19z"/>
<path class="st1" d="M393.85,168.19c-2.5-0.01-6.7-0.88-8.54-3.78c-1.84,2.89-6.04,3.77-8.54,3.78l-0.01-1.81
	c0.31,0,7.64-0.1,7.64-5.24h1.81c0,2.11,1.24,3.63,3.67,4.51c1.96,0.71,3.94,0.73,3.96,0.73L393.85,168.19z"/>
<path class="st1" d="M364.85,168.19c-2.5-0.01-6.7-0.88-8.54-3.78c-1.84,2.89-6.04,3.77-8.54,3.78l-0.01-1.81
	c0.31,0,7.64-0.1,7.64-5.24h1.81c0,2.11,1.24,3.63,3.67,4.51c1.96,0.71,3.94,0.73,3.96,0.73L364.85,168.19z"/>
<g>
	<path d="M337.31,108.14h4.25c0.44,0,0.79-0.35,0.79-0.79l0-6.21c0-0.44-0.35-0.79-0.79-0.79h-4.25c-0.44,0-0.79,0.35-0.79,0.79
		v6.21C336.52,107.79,336.88,108.14,337.31,108.14z"/>
	<path d="M339.43,117.75c-1.1,0-2,0.89-2,2v2.46h3.99v-2.46C341.43,118.64,340.54,117.75,339.43,117.75L339.43,117.75z"/>
	<path d="M339.43,142.86c-1.1,0-2,0.89-2,2v4.06h3.99v-4.06C341.43,143.75,340.54,142.86,339.43,142.86L339.43,142.86z"/>
	<path d="M351.37,166.61l-4.04-51.46h0.56c0.81,0,1.48-0.66,1.48-1.48v-2.05c0-0.81-0.66-1.48-1.48-1.48h-0.05l0-11.77h0.83
		c0.38,0,0.69-0.31,0.69-0.69s-0.31-0.69-0.69-0.69h-15.14v-0.68c0-3.25,2.65-5.9,5.9-5.9c2.75,0,5.17,1.94,5.76,4.62
		c0.08,0.37,0.45,0.61,0.82,0.52c0.37-0.08,0.61-0.45,0.52-0.82c-0.68-3.08-3.32-5.37-6.42-5.67v-1.93c0-0.38-0.31-0.69-0.69-0.69
		c-0.38,0-0.69,0.31-0.69,0.69v1.93c-3.69,0.35-6.59,3.46-6.59,7.25v0.68h-1.96c-0.38,0-0.69,0.31-0.69,0.69s0.31,0.69,0.69,0.69
		h0.83v11.78h-0.05c-0.81,0-1.48,0.66-1.48,1.48v2.05c0,0.81,0.66,1.48,1.48,1.48h0.56l-3.89,51.46c-0.03,0.38,0.26,0.71,0.64,0.74
		c0.02,0,0.04,0,0.05,0c0.36,0,0.66-0.28,0.69-0.64l0.95-12.56h18.92l0.48,12.46C350.37,167.61,351.37,166.61,351.37,166.61z
		 M346.46,98.36v2h-1.29c-0.44,0-0.79,0.35-0.79,0.79v6.21c0,0.44,0.35,0.79,0.79,0.79h1.29v2H332.4v-2h1.29
		c0.44,0,0.79-0.35,0.79-0.79v-6.21c0-0.44-0.35-0.79-0.79-0.79h-1.29v-2H346.46z M330.98,113.77c-0.05,0-0.1-0.04-0.1-0.1v-2.05
		c0-0.05,0.04-0.1,0.1-0.1h16.91c0.05,0,0.1,0.04,0.1,0.1v2.05c0,0.05-0.04,0.1-0.1,0.1h-3.15c-0.38,0-0.69,0.31-0.69,0.69
		c0,0.38,0.31,0.69,0.69,0.69h1.21l0.66,8.74l-14.35,0l0.66-8.74h7.75c0.38,0,0.69-0.31,0.69-0.69s-0.31-0.69-0.69-0.69
		L330.98,113.77z M332.16,125.25l14.56,0.01l0.93,12.37h-16.43L332.16,125.25z M330.08,152.77l1.04-13.77h16.64l1.04,13.77H330.08z"
		/>
	<path d="M353.81,104.25c0,0.38,0.31,0.69,0.69,0.69h3.5c0.38,0,0.69-0.31,0.69-0.69c0-0.38-0.31-0.69-0.69-0.69h-3.5
		C354.12,103.56,353.81,103.87,353.81,104.25z"/>
	<path d="M353.78,100.5c0.12,0,0.24-0.03,0.34-0.09l3.03-1.75c0.33-0.19,0.44-0.61,0.25-0.94c-0.19-0.33-0.61-0.44-0.94-0.25
		l-3.03,1.75c-0.33,0.19-0.44,0.61-0.25,0.94C353.31,100.38,353.54,100.5,353.78,100.5L353.78,100.5z"/>
	<path d="M353.44,109.29l3.03,1.75c0.11,0.06,0.23,0.09,0.34,0.09c0.24,0,0.47-0.12,0.6-0.34c0.19-0.33,0.08-0.75-0.25-0.94
		l-3.03-1.75c-0.33-0.19-0.75-0.08-0.94,0.25C352.99,108.68,353.1,109.1,353.44,109.29L353.44,109.29z"/>
	<path d="M320.87,104.94h3.5c0.38,0,0.69-0.31,0.69-0.69c0-0.38-0.31-0.69-0.69-0.69h-3.5c-0.38,0-0.69,0.31-0.69,0.69
		C320.18,104.63,320.49,104.94,320.87,104.94L320.87,104.94z"/>
	<path d="M321.72,98.66l3.03,1.75c0.11,0.06,0.23,0.09,0.34,0.09c0.24,0,0.47-0.12,0.6-0.34c0.19-0.33,0.08-0.75-0.25-0.94
		l-3.03-1.75c-0.33-0.19-0.75-0.08-0.94,0.25C321.27,98.05,321.39,98.47,321.72,98.66L321.72,98.66z"/>
	<path d="M324.74,108.09l-3.03,1.75c-0.33,0.19-0.44,0.61-0.25,0.94c0.13,0.22,0.36,0.34,0.6,0.34c0.12,0,0.24-0.03,0.34-0.09
		l3.03-1.75c0.33-0.19,0.44-0.61,0.25-0.94C325.5,108.02,325.07,107.9,324.74,108.09L324.74,108.09z"/>
	<path d="M317.75,143.03c0.08,0,0.17-0.02,0.26-0.05l4.76-1.91c0.35-0.14,0.52-0.54,0.38-0.9s-0.54-0.52-0.9-0.38l-4.76,1.91
		c-0.35,0.14-0.52,0.54-0.38,0.9C317.21,142.87,317.47,143.03,317.75,143.03L317.75,143.03z"/>
	<path d="M319.23,122.88l4.41,2.61c0.11,0.06,0.23,0.1,0.35,0.1c0.24,0,0.46-0.12,0.59-0.34c0.19-0.33,0.08-0.75-0.24-0.94
		l-4.41-2.61c-0.33-0.19-0.75-0.08-0.94,0.24C318.8,122.26,318.91,122.69,319.23,122.88L319.23,122.88z"/>
	<path d="M354.21,126.12c-0.31,0.21-0.39,0.64-0.18,0.96c0.13,0.19,0.35,0.3,0.57,0.3c0.13,0,0.27-0.04,0.39-0.12l4.23-2.9
		c0.31-0.21,0.39-0.64,0.18-0.96c-0.21-0.31-0.64-0.39-0.96-0.18L354.21,126.12z"/>
	<path d="M355.86,141.96c-0.12,0.36,0.08,0.75,0.44,0.87l4.87,1.58c0.07,0.02,0.14,0.03,0.21,0.03c0.29,0,0.56-0.18,0.66-0.48
		c0.12-0.36-0.08-0.75-0.44-0.87l-4.87-1.58C356.37,141.4,355.98,141.6,355.86,141.96L355.86,141.96z"/>
</g>
</svg>
