<?xml version="1.0" encoding="UTF-8" standalone="no"?>
<!-- Generator: Adobe Illustrator 24.0.0, SVG Export Plug-In . SVG Version: 6.00 Build 0)  -->

<svg
   version="1.1"
   id="Layer_1"
   x="0px"
   y="0px"
   viewBox="0 0 580.29878 158.34045"
   xml:space="preserve"
   sodipodi:docname="hero_camping.svg"
   width="580.29877"
   height="158.34045"
   inkscape:version="1.2.2 (b0a84865, 2022-12-01)"
   xmlns:inkscape="http://www.inkscape.org/namespaces/inkscape"
   xmlns:sodipodi="http://sodipodi.sourceforge.net/DTD/sodipodi-0.dtd"
   xmlns="http://www.w3.org/2000/svg"
   xmlns:svg="http://www.w3.org/2000/svg"><defs
   id="defs173" /><sodipodi:namedview
   id="namedview171"
   pagecolor="#ffffff"
   bordercolor="#000000"
   borderopacity="0.25"
   inkscape:showpageshadow="2"
   inkscape:pageopacity="0.0"
   inkscape:pagecheckerboard="0"
   inkscape:deskcolor="#d1d1d1"
   showgrid="false"
   inkscape:zoom="1.3165632"
   inkscape:cx="290.14938"
   inkscape:cy="79.753101"
   inkscape:window-width="1440"
   inkscape:window-height="872"
   inkscape:window-x="0"
   inkscape:window-y="0"
   inkscape:window-maximized="0"
   inkscape:current-layer="Layer_1" />
<style
   type="text/css"
   id="style132">
	.st0{fill:#2D2D2C;}
	.st1{fill:#1E1E1D;}
</style>
<title
   id="title134">artwork</title>
<g
   id="g150"
   transform="translate(-168.62084)">
	<polygon
   class="st0"
   points="713.6,128.5 709,126.6 706.5,127.4 712.9,130.1 "
   id="polygon136" />
	<polygon
   class="st0"
   points="644.5,125.6 658.8,129.8 639.9,88.3 "
   id="polygon138" />
	<path
   class="st0"
   d="m 702.8,122.7 c 0.3,0.1 0.7,0.2 1,0.2 0.3,0 0.6,0 0.9,-0.1 0.5,-0.2 1,-0.5 1.2,-1.1 v 0 c 0.3,-0.8 0.3,-1.7 -0.1,-2.5 l -0.1,-0.3 c -0.1,-0.2 -0.1,-0.3 -0.2,-0.5 -0.7,-1.7 -1.2,-3.5 -1.6,-5.3 -1.3,2.2 -2.3,4.5 -2.9,6.9 0,0.1 0,0.1 0,0.2 0,0.4 0.1,0.8 0.3,1.1 0.3,0.7 0.8,1.2 1.5,1.4 z"
   id="path140" />
	<path
   class="st0"
   d="m 693.9,129.3 19.9,-6.4 -0.5,-1.7 -5.7,1.8 c 0,0 -0.1,0 -0.1,0.1 -0.2,0.3 -0.5,0.6 -0.8,0.9 -0.1,0 -0.1,0.1 -0.2,0.1 -0.3,0.3 -0.7,0.5 -1.1,0.6 -0.2,0.1 -0.5,0.1 -0.7,0.2 -0.1,0 -0.3,0 -0.4,0 -0.1,0 -0.2,0 -0.4,0 v 0 c -0.1,0 -0.1,0 -0.2,0 -0.2,0 -0.4,0 -0.7,-0.1 -0.1,0 -0.2,-0.1 -0.3,-0.1 -0.1,0 -0.2,0 -0.4,-0.1 v 0 l -8.9,2.9 z"
   id="path142" />
	<path
   class="st0"
   d="m 693.6,122 4.5,1.9 2,-0.6 c 0,0 -0.1,-0.1 -0.1,-0.1 -0.1,-0.1 -0.1,-0.2 -0.2,-0.3 0,-0.1 -0.1,-0.1 -0.1,-0.2 l -5.4,-2.3 z"
   id="path144" />
	<polygon
   class="st0"
   points="613.6,116.5 628,120.7 638.7,87.4 "
   id="polygon146" />
	<path
   class="st0"
   d="m 661.6,131 c 0,0 0,0.1 0,0.1 l 29.7,-8.6 c 0,-0.2 0,-0.3 0.1,-0.5 l 0.1,-0.3 1.3,-3.2 c 0.1,-0.2 0.3,-0.4 0.5,-0.5 0.2,-0.1 0.5,-0.1 0.8,0 l 4.9,2 c 0,-0.1 0,-0.2 0,-0.2 0.2,-2.5 3.9,-9.1 4.6,-10.4 0.3,-0.5 0.9,-0.7 1.4,-0.4 0.3,0.2 0.5,0.5 0.5,0.8 0.3,2.7 0.9,5.4 1.9,7.9 0,0 0,0 0,0.1 l 7.6,-2.2 -21.2,-42.5 -53.4,11.4 z m 12.3,-44.1 c 0.1,-0.3 0.4,-0.5 0.7,-0.6 L 689,83.9 c 0.5,-0.1 0.9,0.2 1.1,0.6 l 3.2,7.4 c 0.2,0.5 0,1.1 -0.5,1.3 -0.1,0 -0.1,0 -0.2,0.1 L 679.3,96 c -0.1,0 -0.1,0 -0.2,0 -0.4,0 -0.7,-0.2 -0.9,-0.5 l -4.4,-7.8 c -0.1,-0.2 -0.1,-0.5 0.1,-0.8 z"
   id="path148" />
</g>
<g
   id="g154"
   transform="translate(-168.62084)">
	<path
   d="m 326.6,106.7 c -2.6,1.5 -5,3.8 -7.1,7.9 l 0.8,0.4 c 1.4,-2.8 3,-4.7 4.7,-6 -1.6,2.5 -2.9,5.1 -3.6,7.9 l 0.9,0.2 c 0.9,-3.5 2.7,-6.7 5,-9.8 z m -12,0.4 -0.7,0.6 c 1.9,2.6 3.4,4.5 3.4,7 h 0.9 c 0,-1.8 -0.8,-3.3 -1.7,-4.8 0.9,0.8 1.7,1.6 2.1,2.7 l 0.9,-0.3 c -1,-2.5 -3.1,-3.6 -4.9,-5.2 z m 15.1,6.3 c -0.8,0 -1.5,0.3 -2.2,0.8 -1.7,1.2 -2.8,3.3 -3.4,4.6 l 0.9,0.4 c 0.5,-1.3 1.6,-3.2 3,-4.2 0.7,-0.5 1.5,-0.7 2.3,-0.6 0.5,0.1 1,0.3 1.5,0.6 -0.7,0 -1.3,0 -2,0.3 -1.5,0.7 -2.9,2.3 -3.8,5.5 l 0.9,0.3 c 0.9,-3 2.1,-4.3 3.3,-4.9 1.2,-0.5 2.4,-0.3 3.3,0.2 l 0.5,-0.7 c -1.3,-1.3 -2.5,-2 -3.6,-2.2 -0.2,-0.1 -0.5,-0.2 -0.7,-0.1 z m -14.5,1.8 -0.4,0.9 c 3.9,2.3 5.3,4.3 6,6.8 l 0.9,-0.3 c -0.6,-2 -1.6,-3.7 -3.7,-5.4 3.9,1.6 6.8,4.1 8,8.6 l 0.9,-0.2 c -1.5,-6.2 -6.1,-9 -11.7,-10.4 z m -14.6,1.2 c 0,0 -0.2,0 -0.2,0 0,0 -0.2,0.1 -0.2,0.1 0,0 -0.1,0.1 -0.1,0.1 0,0 0,0.1 0,0.1 v 0.2 l 0.1,0.2 c 0,0 0,0 0,0 0,0 0,0 0,0.1 0.1,0.1 0.1,0.3 0.2,0.6 0.2,0.6 0.5,1.4 0.8,2.4 0.6,2 1.2,4.9 1.2,7.8 h 0.9 c -0.1,-3 -0.7,-5.9 -1.3,-8 0,0 0,0 0,0 0.9,1.4 1.6,2.6 2.1,3.6 l 0.8,-0.4 c -0.8,-1.8 -2.2,-4 -4.1,-6.6 0,0 0,0 0,0 0,0 0,0 -0.1,-0.1 0,0 0,0 -0.1,-0.1 0,0 0,0 -0.1,0 0.2,0 0.1,0 0.1,0 z m 30.7,0.6 -1.2,1.1 c -2.1,1.8 -2.6,2.9 -3.5,5 l 0.9,0.4 c 0.7,-1.5 1.2,-2.4 2.1,-3.3 -1.3,4.8 -0.8,6.9 -1.3,10.5 l 0.9,0.1 c 0.6,-4.2 -0.2,-6 1.7,-12.2 z m -19.2,0.8 c -0.2,0 -0.4,0 -0.7,0 l -0.9,0.1 0.7,0.7 c 2.2,2.2 3.1,4.3 3.5,6.2 0.3,2 0,3.9 -0.4,5.8 l 0.9,0.2 c 0.4,-2 0.8,-4 0.4,-6.1 -0.3,-1.9 -1.3,-3.9 -3,-5.9 1,0.2 2,0.8 3,2.1 l 0.7,-0.6 c -1.2,-1.5 -2.6,-2.4 -4.2,-2.5 z m 5.3,0.6 -0.7,0.6 c 2.6,2.7 2.5,5.6 2.6,8.1 h 0.9 c 0,-2.5 0.1,-5.8 -2.8,-8.7 z m -8.6,0.9 c 0,0 -2.4,2.2 -3.8,6.1 l 0.9,0.3 c 0.5,-1.2 1,-2.2 1.6,-3.1 -0.4,1.5 -0.5,2.8 -0.4,4.2 h 0.9 c -0.1,-2.2 -0.1,-3.7 1.6,-6.9 z m 7.9,1 -0.7,1.4 0.8,0.4 0.7,-1.4 z m -4.9,1.7 -0.8,0.4 c 0.7,2.9 1.1,5.7 0.7,8.3 l 0.9,0.2 c 0.4,-2.2 0.1,-4.4 -0.3,-6.7 0.3,0.6 0.6,1.5 0.9,3 l 0.9,-0.2 c -0.6,-2.9 -1.1,-3.6 -2.3,-5 z m -14.9,0.2 -0.5,0.8 c 0,0 2.8,2.7 3.2,8 l 0.9,-0.1 c -0.3,-3.5 -1.5,-5.8 -2.4,-7.2 0.9,0.4 1.8,1 2.8,2.2 l 0.7,-0.6 c -1.7,-2.1 -3.2,-2.6 -4.7,-3.1 z m 12.9,1 c -0.2,1.1 -0.4,2 -0.7,2.8 l -0.7,-0.1 c -0.2,1 -0.1,1.7 -0.1,2.3 l 0.2,1.8 0.7,-1.6 c 0.2,-0.5 0.5,-1.1 0.7,-1.7 0.1,1.8 0.4,3.4 0.8,4.6 l 0.9,-0.3 c -0.6,-1.8 -1,-4 -0.8,-7.5 z m 13.8,2.8 -0.2,0.9 c -0.4,1.6 -0.8,3.3 -1.3,4.1 l 0.8,0.5 c 0.5,-0.8 0.8,-1.9 1.1,-3 0.3,1.2 0.4,2.8 0.4,4.6 h 0.9 c 0,-2.5 0,-4.9 -1.1,-6.3 z m -19.1,1.9 -0.1,1.3 c 0,0.8 -0.1,1.5 -0.3,2 -0.2,0.5 -0.4,0.8 -0.6,1 l 0.5,0.8 c 0.5,-0.3 0.8,-0.8 1,-1.5 0.1,-0.3 0.1,-0.7 0.1,-1 l 0.2,0.3 0.8,-0.6 z m 13.7,0.6 c -0.6,1.5 -1.6,2.6 -1.7,5.7 h 0.9 c 0.1,-1.8 0.4,-2.8 0.8,-3.6 l 0.1,1.6 h 0.9 l -0.2,-3.5 z"
   id="path152" />
</g>
<g
   id="g158"
   transform="translate(-168.62084)">
	<path
   d="m 274,106.2 c 1.6,2.2 2.9,4.4 3.5,6.9 l 0.6,-0.2 c -0.5,-2 -1.4,-3.9 -2.6,-5.6 1.2,1 2.3,2.3 3.3,4.3 l 0.6,-0.3 c -1.5,-2.9 -3.2,-4.6 -5.1,-5.6 z m 5.4,3.5 0.6,0.2 c 0.3,-0.8 0.9,-1.4 1.5,-1.9 -0.7,1.1 -1.2,2.1 -1.2,3.4 h 0.7 c 0,-1.8 1.1,-3.1 2.4,-5 l -0.5,-0.4 c -1.2,1.2 -2.8,1.9 -3.5,3.7 z m -7.8,0.8 c -0.8,0.1 -1.7,0.6 -2.5,1.6 l 0.4,0.5 c 0.6,-0.3 1.5,-0.5 2.4,-0.1 0.9,0.4 1.7,1.3 2.3,3.5 l 0.6,-0.2 c -0.7,-2.2 -1.6,-3.4 -2.7,-3.9 -0.5,-0.2 -1,-0.3 -1.4,-0.2 0.4,-0.2 0.8,-0.4 1.1,-0.5 0.6,-0.1 1.2,0.1 1.7,0.4 1,0.7 1.8,2.1 2.1,3 l 0.6,-0.3 c -0.4,-1 -1.2,-2.4 -2.4,-3.3 -0.5,-0.3 -1,-0.5 -1.5,-0.6 -0.3,0 -0.5,0.1 -0.7,0.1 z m 2.5,8.5 0.6,0.2 c 0.9,-3.2 2.9,-5 5.7,-6.1 -1.5,1.2 -2.2,2.4 -2.6,3.8 l 0.6,0.2 c 0.5,-1.8 1.5,-3.1 4.3,-4.8 l -0.3,-0.6 c -3.9,1.1 -7.1,3.1 -8.3,7.3 z m 18.6,-6.4 c 0,0.1 0,0.1 0,0 -0.1,0.1 -0.1,0.1 -0.1,0.1 0,0 0,0.1 -0.1,0.1 0,0 0,0 0,0 -1.3,1.9 -2.3,3.4 -2.9,4.7 l 0.6,0.3 c 0.3,-0.7 0.9,-1.6 1.5,-2.6 0,0 0,0 0,0 -0.4,1.5 -0.8,3.5 -0.9,5.7 h 0.7 c 0.1,-2.1 0.5,-4.1 0.9,-5.5 0.2,-0.7 0.4,-1.3 0.5,-1.7 0.1,-0.2 0.1,-0.4 0.2,-0.4 0,0 0,0 0,-0.1 0,0 0,0 0,0 l 0.1,-0.1 V 113 c 0,0 0,0 0,-0.1 0,0 -0.1,-0.1 -0.1,-0.1 0,0 -0.1,-0.1 -0.1,-0.1 0,0 -0.2,0 -0.2,0 0,-0.1 0,-0.1 -0.1,-0.1 z m -21.3,1.6 c 1.4,4.4 0.8,5.7 1.2,8.6 l 0.7,-0.1 c -0.3,-2.6 0,-4.1 -0.9,-7.5 0.6,0.7 1,1.3 1.5,2.4 l 0.6,-0.3 c -0.7,-1.5 -1,-2.3 -2.5,-3.5 l -0.9,-0.8 z m 10.3,1.2 0.5,0.4 c 0.7,-0.9 1.4,-1.3 2.1,-1.5 -1.3,1.4 -1.9,2.8 -2.2,4.2 -0.3,1.5 0,3 0.3,4.4 l 0.6,-0.1 c -0.3,-1.4 -0.5,-2.7 -0.3,-4.1 0.2,-1.4 0.9,-2.8 2.5,-4.4 l 0.5,-0.5 -0.7,-0.1 c -0.2,0 -0.3,0 -0.5,0 -0.9,0 -1.9,0.6 -2.8,1.7 z m -2.8,4.7 h 0.7 c 0.1,-1.8 0,-3.8 1.8,-5.7 l -0.5,-0.5 c -2,2.2 -1.9,4.5 -2,6.2 z m 7.6,-5 c 1.2,2.3 1.2,3.4 1.1,4.9 h 0.7 c 0,-1 0,-1.9 -0.3,-3 0.4,0.6 0.8,1.3 1.1,2.2 l 0.6,-0.2 c -1,-2.7 -2.7,-4.3 -2.7,-4.3 z m -5.6,0.6 0.5,1 0.6,-0.3 -0.5,-1 z m 2.4,4.5 0.7,0.1 c 0.2,-1.1 0.4,-1.7 0.6,-2.1 -0.3,1.6 -0.5,3.2 -0.2,4.7 l 0.7,-0.1 c -0.3,-1.9 0,-3.9 0.5,-5.9 l -0.6,-0.3 c -0.9,1 -1.3,1.5 -1.7,3.6 z m 8.8,-1.2 0.5,0.4 c 0.8,-0.9 1.4,-1.3 2,-1.6 -0.7,1 -1.5,2.6 -1.7,5.1 l 0.7,0.1 c 0.3,-3.8 2.3,-5.7 2.3,-5.7 l -0.3,-0.6 c -1.2,0.4 -2.3,0.7 -3.5,2.3 z m -6.4,-1.5 c 0.1,2.5 -0.2,4.1 -0.6,5.3 l 0.6,0.2 c 0.3,-0.9 0.4,-2 0.5,-3.3 0.2,0.4 0.3,0.9 0.5,1.2 l 0.5,1.2 0.1,-1.3 c 0,-0.4 0.1,-0.9 -0.1,-1.6 l -0.5,0.1 c -0.2,-0.6 -0.4,-1.2 -0.5,-2 z m -9.6,2.5 c -0.8,1 -0.8,2.7 -0.8,4.5 h 0.7 c 0,-1.3 0.1,-2.4 0.3,-3.3 0.2,0.8 0.4,1.6 0.8,2.2 l 0.6,-0.4 c -0.4,-0.6 -0.7,-1.8 -1,-2.9 l -0.2,-0.7 z m 12.8,2.4 0.5,0.4 0.2,-0.2 c 0,0.2 0,0.5 0.1,0.7 0.1,0.4 0.3,0.8 0.7,1 l 0.4,-0.6 c -0.2,-0.1 -0.3,-0.3 -0.4,-0.7 -0.1,-0.4 -0.2,-0.8 -0.2,-1.4 v -1 z m -9.2,-1.1 -0.1,2.5 h 0.7 l 0.1,-1.1 c 0.3,0.6 0.5,1.3 0.6,2.6 h 0.7 c -0.1,-2.2 -0.8,-3 -1.2,-4 z"
   id="path156" />
</g>
<g
   id="g162"
   transform="translate(-168.62084)">
	<path
   d="m 230.4,113.7 c -1.8,1 -3.6,2.7 -5.1,5.6 l 0.6,0.3 c 1,-2 2.1,-3.3 3.3,-4.3 -1.2,1.8 -2.1,3.6 -2.6,5.6 l 0.6,0.2 c 0.6,-2.5 1.9,-4.8 3.5,-6.9 z m -8.4,0.4 -0.5,0.4 c 1.3,1.8 2.4,3.2 2.4,5 h 0.7 c 0,-1.3 -0.5,-2.4 -1.2,-3.4 0.6,0.5 1.2,1.1 1.5,1.9 l 0.6,-0.2 c -0.8,-1.9 -2.3,-2.6 -3.5,-3.7 z m 10.6,4.4 c -0.6,0 -1.1,0.2 -1.5,0.6 -1.2,0.8 -2,2.3 -2.4,3.3 l 0.6,0.3 c 0.4,-0.9 1.2,-2.3 2.1,-3 0.5,-0.3 1,-0.5 1.7,-0.4 0.3,0.1 0.7,0.2 1.1,0.5 -0.5,0 -1,0 -1.4,0.2 -1.1,0.5 -2.1,1.6 -2.7,3.9 l 0.6,0.2 c 0.6,-2.1 1.5,-3.1 2.3,-3.5 0.8,-0.4 1.7,-0.2 2.4,0.1 l 0.4,-0.5 c -0.9,-0.9 -1.7,-1.4 -2.5,-1.6 -0.3,-0.1 -0.5,-0.2 -0.7,-0.1 z m -10.2,1.2 -0.3,0.6 c 2.8,1.7 3.7,3 4.3,4.8 l 0.6,-0.2 c -0.4,-1.4 -1.2,-2.6 -2.6,-3.8 2.8,1.1 4.8,2.9 5.7,6.1 l 0.6,-0.2 c -1.1,-4.2 -4.3,-6.2 -8.3,-7.3 z m -10.4,0.9 c 0,0 -0.2,0 -0.2,0 0,0 -0.1,0.1 -0.1,0.1 0,0 0,0.1 -0.1,0.1 0,0 0,0 0,0.1 v 0.1 l 0.1,0.1 c 0,0 0,0 0,0 0,0 0,0 0,0.1 0,0.1 0.1,0.2 0.2,0.4 0.1,0.4 0.3,1 0.5,1.7 0.4,1.5 0.8,3.4 0.9,5.5 h 0.7 c -0.1,-2.1 -0.5,-4.2 -0.9,-5.7 0,0 0,0 0,0 0.6,1 1.2,1.9 1.5,2.6 l 0.6,-0.3 c -0.6,-1.3 -1.6,-2.8 -2.9,-4.7 0,0 0,0 0,0 0,0 0,0 -0.1,-0.1 0,0 0,0 0,0 0,0 0,0 -0.1,0 0,0 -0.1,0 -0.1,0 z m 21.8,0.4 -0.9,0.8 c -1.5,1.3 -1.8,2.1 -2.5,3.5 l 0.6,0.3 c 0.5,-1 0.9,-1.7 1.5,-2.4 -0.9,3.4 -0.6,4.9 -0.9,7.5 l 0.7,0.1 c 0.4,-3 -0.2,-4.3 1.2,-8.6 z m -13.6,0.6 c -0.2,0 -0.3,0 -0.5,0 l -0.7,0.1 0.5,0.5 c 1.6,1.6 2.2,3 2.5,4.4 0.3,1.4 0,2.7 -0.3,4.1 l 0.6,0.1 c 0.3,-1.4 0.5,-2.8 0.3,-4.4 -0.2,-1.3 -0.9,-2.7 -2.2,-4.2 0.7,0.1 1.4,0.6 2.1,1.5 l 0.5,-0.4 c -0.7,-1 -1.7,-1.6 -2.8,-1.7 z m 3.8,0.4 -0.5,0.5 c 1.8,1.9 1.8,4 1.8,5.7 h 0.7 c -0.1,-1.8 0,-4.1 -2,-6.2 z m -6.1,0.7 c 0,0 -1.7,1.6 -2.7,4.3 l 0.6,0.2 c 0.3,-0.9 0.7,-1.6 1.1,-2.2 -0.3,1.1 -0.3,2 -0.3,3 h 0.7 c -0.1,-1.6 -0.1,-2.6 1.1,-4.9 z m 5.5,0.7 -0.5,1 0.6,0.3 0.5,-1 z m -3.4,1.2 -0.6,0.3 c 0.5,2.1 0.8,4.1 0.5,5.9 l 0.7,0.1 c 0.3,-1.5 0.1,-3.1 -0.2,-4.7 0.2,0.5 0.4,1 0.6,2.1 l 0.7,-0.1 c -0.5,-2.1 -0.9,-2.6 -1.7,-3.6 z m -10.6,0.1 -0.3,0.6 c 0,0 2,1.9 2.3,5.7 l 0.7,-0.1 c -0.2,-2.5 -1.1,-4.1 -1.7,-5.1 0.6,0.3 1.2,0.7 2,1.6 l 0.5,-0.4 c -1.4,-1.6 -2.5,-1.9 -3.5,-2.3 z m 9.1,0.8 c -0.1,0.8 -0.3,1.4 -0.5,2 l -0.5,-0.1 c -0.1,0.7 -0.1,1.2 -0.1,1.6 l 0.1,1.3 0.5,-1.2 c 0.2,-0.4 0.3,-0.8 0.5,-1.2 0.1,1.3 0.3,2.4 0.5,3.3 l 0.6,-0.2 c -0.4,-1.2 -0.7,-2.8 -0.6,-5.3 z m 9.9,1.9 -0.2,0.7 c -0.3,1.1 -0.6,2.3 -1,2.9 l 0.6,0.4 c 0.4,-0.6 0.6,-1.3 0.8,-2.2 0.2,0.8 0.3,2 0.3,3.3 h 0.7 c 0,-1.8 0,-3.5 -0.8,-4.5 z m -13.6,1.4 v 1 c 0,0.6 -0.1,1 -0.2,1.4 -0.1,0.4 -0.3,0.6 -0.4,0.7 l 0.4,0.6 c 0.3,-0.2 0.5,-0.6 0.7,-1 0.1,-0.2 0.1,-0.5 0.1,-0.7 l 0.2,0.2 0.5,-0.4 z m 9.7,0.4 c -0.4,1.1 -1.1,1.8 -1.2,4 h 0.7 c 0,-1.3 0.3,-2 0.6,-2.6 l 0.1,1.1 h 0.7 l -0.1,-2.5 z"
   id="path160" />
</g>
<g
   id="g166"
   transform="translate(-168.62084)">
	<path
   d="m 552.4,105.8 c 2.1,2.3 3.7,4.6 4.5,7.2 l 0.8,-0.2 c -0.6,-2.1 -1.8,-4 -3.3,-5.9 1.5,1 2.9,2.4 4.2,4.5 l 0.8,-0.3 c -1.9,-3.1 -4.1,-4.8 -6.5,-5.9 z m 6.9,3.7 0.8,0.3 c 0.4,-0.9 1.1,-1.5 1.9,-2 -0.9,1.1 -1.6,2.2 -1.6,3.6 h 0.8 c 0,-1.8 1.4,-3.3 3.1,-5.2 l -0.6,-0.5 c -1.6,1.1 -3.5,1.9 -4.4,3.8 z m -10,0.8 c -1,0.1 -2.1,0.7 -3.2,1.6 l 0.5,0.5 c 0.8,-0.3 1.9,-0.5 3,-0.1 1.1,0.4 2.2,1.4 3,3.6 l 0.8,-0.2 c -0.8,-2.3 -2.1,-3.6 -3.5,-4 -0.6,-0.2 -1.2,-0.3 -1.8,-0.3 0.5,-0.3 1,-0.4 1.4,-0.5 0.8,-0.1 1.5,0.1 2.1,0.4 1.3,0.7 2.2,2.2 2.7,3.1 l 0.8,-0.3 c -0.5,-1 -1.5,-2.5 -3,-3.4 -0.6,-0.3 -1.2,-0.5 -2,-0.6 -0.2,0.1 -0.5,0.1 -0.8,0.2 z m 3.2,8.9 0.8,0.2 c 1.1,-3.3 3.7,-5.2 7.3,-6.3 -1.9,1.3 -2.8,2.6 -3.4,4 l 0.8,0.2 c 0.6,-1.8 1.9,-3.3 5.4,-5 l -0.3,-0.6 c -5,0.9 -9.1,3 -10.6,7.5 z m 23.7,-6.7 c 0,0 0,0 0,0 -0.1,0.1 -0.1,0.1 -0.1,0.1 -0.1,0 -0.1,0.1 -0.1,0.1 0,0 0,0 0,0 -1.7,1.9 -3,3.6 -3.7,4.9 l 0.8,0.3 c 0.4,-0.8 1.1,-1.7 1.9,-2.7 0,0 0,0 0,0 -0.5,1.6 -1.1,3.7 -1.1,5.9 h 0.8 c 0.1,-2.2 0.6,-4.2 1.1,-5.7 0.3,-0.8 0.5,-1.4 0.7,-1.8 0.1,-0.2 0.2,-0.4 0.2,-0.5 0,0 0,0 0,-0.1 0,0 0,0 0,0 l 0.1,-0.1 v -0.1 c 0,0 0,0 0,-0.1 0,-0.1 -0.1,-0.1 -0.1,-0.1 0,0 -0.2,-0.1 -0.2,-0.1 0,0 -0.2,0 -0.2,0 0.1,0 0,0 -0.1,0 z m -27.1,1.6 c 1.8,4.6 1,5.9 1.6,9 l 0.8,-0.1 c -0.4,-2.7 0,-4.2 -1.2,-7.8 0.8,0.7 1.3,1.4 1.9,2.5 l 0.8,-0.3 c -0.9,-1.5 -1.3,-2.4 -3.2,-3.7 l -1.1,-0.8 z m 13.1,1.3 0.7,0.4 c 0.9,-0.9 1.8,-1.4 2.7,-1.5 -1.6,1.5 -2.5,3 -2.7,4.4 -0.3,1.6 0,3.1 0.3,4.6 l 0.8,-0.1 c -0.4,-1.4 -0.6,-2.8 -0.3,-4.3 0.3,-1.5 1.2,-2.9 3.1,-4.6 l 0.6,-0.5 -0.8,-0.1 c -0.2,0 -0.4,0 -0.6,0 -1.4,-0.1 -2.7,0.5 -3.8,1.7 z m -3.6,5 h 0.8 c 0.1,-1.8 0,-3.9 2.4,-6 l -0.6,-0.5 c -2.6,2.3 -2.5,4.7 -2.6,6.5 z m 9.7,-5.4 c 1.6,2.4 1.5,3.5 1.4,5.1 h 0.8 c 0,-1 0,-2 -0.4,-3.1 0.5,0.6 1,1.4 1.4,2.3 l 0.8,-0.2 c -1.3,-2.9 -3.5,-4.5 -3.5,-4.5 z m -7.2,0.7 0.7,1 0.7,-0.3 -0.7,-1 z m 3.1,4.7 0.8,0.1 c 0.3,-1.2 0.5,-1.8 0.8,-2.2 -0.4,1.7 -0.6,3.3 -0.3,4.9 l 0.8,-0.1 c -0.4,-1.9 -0.1,-4 0.6,-6.2 l -0.7,-0.3 c -1,1.1 -1.5,1.6 -2,3.8 z m 11.2,-1.3 0.6,0.4 c 1,-0.9 1.8,-1.3 2.5,-1.6 -0.8,1 -1.9,2.7 -2.2,5.3 l 0.8,0.1 c 0.4,-3.9 2.9,-5.9 2.9,-5.9 l -0.4,-0.6 c -1.2,0.3 -2.6,0.7 -4.2,2.3 z m -8.2,-1.5 c 0.1,2.6 -0.2,4.3 -0.7,5.6 l 0.8,0.2 c 0.4,-0.9 0.6,-2.1 0.7,-3.4 0.2,0.5 0.4,0.9 0.6,1.3 l 0.6,1.2 0.2,-1.3 c 0.1,-0.4 0.1,-0.9 -0.1,-1.7 l -0.6,0.1 c -0.2,-0.6 -0.5,-1.2 -0.6,-2.1 z m -12.2,2.6 c -1,1 -1,2.8 -1,4.7 h 0.8 c 0,-1.3 0.1,-2.5 0.4,-3.4 0.3,0.8 0.5,1.7 1,2.3 l 0.7,-0.4 c -0.5,-0.6 -0.8,-1.8 -1.2,-3 l -0.2,-0.7 z m 16.3,2.5 0.7,0.4 0.2,-0.2 c 0,0.3 0.1,0.5 0.1,0.8 0.2,0.5 0.4,0.8 0.9,1.1 l 0.5,-0.6 c -0.2,-0.1 -0.4,-0.3 -0.5,-0.7 -0.1,-0.4 -0.2,-0.9 -0.3,-1.5 v -1 z m -11.7,-1.1 -0.1,2.6 h 0.8 l 0.1,-1.2 c 0.4,0.6 0.7,1.4 0.7,2.7 h 0.8 c -0.1,-2.3 -1,-3.1 -1.5,-4.2 z"
   id="path164" />
</g>
<path
   class="st1"
   d="m 134.37916,52.2 c 0.3,-0.3 0.3,-0.7 0,-1 -0.3,-0.3 -0.7,-0.3 -1,0 -0.6,0.5 -1.3,0.9 -2,1.2 -0.3,0.1 -0.5,0.1 -0.8,0.2 1.8,-1.8 3.1,-4 3.9,-6.3 0.3,-0.8 -1,-1.2 -1.3,-0.4 -0.5,1.6 -1.3,3.1 -2.4,4.4 0,-1.3 0,-2.5 0.1,-3.8 0,-0.4 -0.3,-0.7 -0.7,-0.7 -0.4,0 -0.7,0.3 -0.7,0.7 -0.1,1.8 -0.2,3.5 -0.1,5.3 0,0 0,0 0,0 -0.8,0.7 -1.6,1.4 -2.5,2 0.3,-0.7 0.6,-1.4 0.9,-2.2 0.3,-0.8 -1,-1.2 -1.3,-0.4 -0.5,1.4 -1.1,2.6 -1.8,3.9 v 0 c 0,-0.1 -0.1,-0.1 -0.1,-0.2 0,0 0,0 0,0 0,-0.1 -0.1,-0.2 -0.1,-0.3 0,-0.1 0,-0.1 0,-0.2 v -0.1 0 c 0,-0.1 0,-0.3 0,-0.4 0,-0.3 0,-0.6 0,-0.8 0,-0.4 -0.3,-0.7 -0.7,-0.7 -0.4,0 -0.7,0.3 -0.7,0.7 -0.2,1.1 0.1,2.3 0.8,3.2 -0.6,0.9 -1.3,1.7 -2.1,2.4 -0.1,-0.2 -0.1,-0.4 -0.2,-0.6 -0.1,-0.2 -0.1,-0.4 -0.1,-0.5 0,-0.1 -0.1,-0.3 -0.1,-0.4 0,-0.4 0,-0.7 0,-1.1 0,0 0,-0.1 0,-0.1 v -0.1 c 0,-0.1 0,-0.2 0,-0.2 0,-0.2 0.1,-0.4 0.2,-0.6 0.1,-0.4 -0.1,-0.7 -0.5,-0.8 -0.4,-0.1 -0.7,0.1 -0.8,0.5 0,0 0,0 0,0 -0.5,1.7 -0.3,3.4 0.4,5 -1.4,1.2 -3,2.2 -4.7,2.9 1.2,-3.8 2.8,-7.6 4.6,-11.2 2.3,-0.3 4.4,-1.5 5.7,-3.5 0.5,-0.7 -0.7,-1.4 -1.2,-0.7 -0.9,1.3 -2.2,2.3 -3.7,2.7 0.1,-0.2 0.2,-0.4 0.3,-0.6 0.5,-0.8 1.1,-1.5 1.7,-2.1 1.7,-1.4 3.7,-2.3 5.9,-2.6 0.4,-0.1 0.6,-0.5 0.4,-0.9 -0.1,-0.3 -0.5,-0.5 -0.8,-0.5 -1.7,0.4 -3.3,0.9 -4.9,1.8 0.3,-0.5 0.7,-1 1.1,-1.5 0.8,-0.8 1.7,-1.6 2.6,-2.2 0.7,-0.5 0,-1.7 -0.7,-1.2 -1,0.7 -1.9,1.4 -2.7,2.2 -0.7,0.8 -1.4,1.7 -2,2.7 -1.2,2 -2.3,4 -3.5,6 -0.1,-2.3 0.3,-4.6 1.3,-6.8 0.2,-0.3 0.1,-0.7 -0.2,-0.9 -0.3,-0.2 -0.7,-0.1 -0.9,0.2 -0.6,1.4 -1.1,2.9 -1.3,4.5 -0.2,-0.3 -0.4,-0.6 -0.5,-1 -0.2,-0.9 -0.2,-1.9 0,-2.8 0.1,-0.4 -0.1,-0.7 -0.5,-0.8 -0.4,-0.1 -0.7,0.1 -0.8,0.5 -0.3,1.2 -0.2,2.5 0.1,3.7 0.3,0.9 0.8,1.7 1.6,2.3 0,1.2 0,2.4 0.3,3.6 0,0.1 0.1,0.2 0.1,0.3 -0.1,0.2 -0.2,0.4 -0.3,0.6 0,0 -0.1,-0.1 -0.1,-0.1 -0.1,-0.1 -0.1,-0.3 -0.2,-0.4 0,0 -0.1,-0.1 -0.1,-0.2 0,-0.1 -0.1,-0.1 -0.1,-0.2 -0.1,-0.3 -0.2,-0.6 -0.2,-0.9 0,-0.1 0,-0.1 0,-0.2 v -0.1 0 c 0,-0.2 0,-0.3 0,-0.5 0,-0.4 -0.3,-0.7 -0.7,-0.7 -0.4,0 -0.7,0.3 -0.7,0.7 0.1,1.5 0.5,2.9 1.4,4.1 0,0 0.1,0.1 0.1,0.1 -0.1,0.3 -0.2,0.6 -0.4,0.9 -0.1,-0.1 -0.1,-0.1 -0.2,-0.2 0,-0.1 -0.1,-0.1 -0.1,-0.2 0,0 -0.1,-0.1 -0.1,-0.1 -0.1,-0.1 -0.2,-0.2 -0.3,-0.4 -0.2,-0.2 -0.3,-0.5 -0.4,-0.8 v 0 c 0,0 0,0 0,0 v 0 0 c 0,-0.1 0,-0.1 -0.1,-0.2 -0.1,-0.1 -0.1,-0.3 -0.1,-0.5 -0.1,-0.4 -0.5,-0.6 -0.8,-0.5 -0.4,0.1 -0.6,0.5 -0.5,0.8 v 0 c 0.4,1.3 1.1,2.4 2,3.3 -0.6,1.7 -1.2,3.3 -1.8,5.1 0,0.1 0,0.1 0,0.2 -2.2,2.2 -4.7,3.9 -7.5,5.2 0.1,-1.2 0.2,-2.4 0.4,-3.6 2.7,-1.2 4.8,-3.6 5.6,-6.4 0.1,-0.4 -0.1,-0.7 -0.5,-0.8 -0.4,-0.1 -0.7,0.1 -0.8,0.5 -0.6,2.2 -2.1,4 -4,5.1 0.5,-2.7 1.3,-5.4 2.3,-7.9 v 0 c 1,0.1 2.1,-0.2 3,-0.8 0.8,-0.6 1.4,-1.4 1.8,-2.3 0.1,-0.4 -0.1,-0.7 -0.5,-0.8 -0.4,-0.1 -0.7,0.1 -0.8,0.5 0,0 0,0.1 -0.1,0.1 v 0 0 c 0,0.1 -0.1,0.2 -0.1,0.3 -0.1,0.2 -0.2,0.3 -0.3,0.5 v 0.1 c 0,0 -0.1,0.1 -0.1,0.1 -0.1,0.1 -0.1,0.1 -0.2,0.2 -0.1,0.1 -0.2,0.1 -0.2,0.2 v 0 c 0,0 -0.1,0.1 -0.1,0.1 -0.2,0.1 -0.4,0.2 -0.5,0.3 v 0 0 c -0.1,0 -0.1,0 -0.2,0.1 -0.1,0 -0.2,0.1 -0.3,0.1 -0.1,0 -0.2,0 -0.3,0.1 v 0 c -0.1,0 -0.1,0 -0.2,0 0,0 -0.1,0 -0.1,0 1.1,-2.5 2.4,-4.9 4,-7.2 0.5,-0.7 -0.7,-1.4 -1.2,-0.7 -1.1,1.6 -2.1,3.3 -3,5 -0.3,-1.3 -0.4,-2.6 -0.2,-3.9 0.1,-0.4 -0.1,-0.7 -0.5,-0.8 -0.4,-0.1 -0.7,0.1 -0.8,0.5 -0.3,1.9 -0.1,3.9 0.6,5.8 0,0.1 0.1,0.1 0.1,0.2 -0.6,1.4 -1.2,2.8 -1.7,4.2 -1.2,-2.2 -2,-4.5 -2.4,-6.9 1.4,-2 2.7,-4 3.9,-6.1 1.8,0.4 3.6,0.2 5.3,-0.6 0.3,-0.2 0.4,-0.6 0.2,-0.9 -0.2,-0.3 -0.6,-0.4 -0.9,-0.2 -1.2,0.5 -2.5,0.7 -3.8,0.5 0.2,-0.4 0.5,-0.9 0.7,-1.3 0.1,0 0.2,0 0.3,0 0.9,-0.2 1.8,-0.5 2.6,-0.9 1.3,1.1 3,1.7 4.6,1.6 0.4,0 0.7,-0.3 0.7,-0.7 0,-0.4 -0.3,-0.7 -0.7,-0.7 -0.7,0.1 -1.4,0 -2.1,-0.3 -0.1,0 -0.2,-0.1 -0.3,-0.1 -0.1,0 -0.1,0 0,0 0,0 -0.1,0 -0.1,-0.1 -0.2,-0.1 -0.3,-0.2 -0.5,-0.3 -0.1,0 -0.2,-0.1 -0.2,-0.2 0.9,-0.4 1.8,-0.9 2.6,-1.5 0,0 0.1,0.1 0.1,0.1 1.8,0.9 3.8,1.2 5.7,0.8 0.4,-0.1 0.6,-0.5 0.5,-0.8 -0.1,-0.4 -0.5,-0.6 -0.8,-0.5 -1.4,0.3 -2.9,0.2 -4.2,-0.4 0.5,-0.4 1,-0.8 1.4,-1.2 v 0 c 1.7,0.3 3.4,0.3 5.1,-0.2 0.4,-0.1 0.6,-0.5 0.5,-0.8 -0.1,-0.3 -0.5,-0.6 -0.8,-0.5 0,0 0,0 0,0 -1.1,0.3 -2.3,0.4 -3.5,0.3 0.2,-0.2 0.4,-0.5 0.7,-0.7 0.1,0 0.1,0 0.2,0 1.6,-0.7 3.1,-1.7 4.4,-2.9 0.3,-0.3 0.3,-0.7 0,-1 -0.3,-0.3 -0.7,-0.3 -1,0 -0.3,0.3 -0.6,0.6 -0.9,0.8 -0.1,0.1 -0.2,0.1 -0.2,0.2 0,0 -0.1,0.1 -0.1,0.1 0,0 -0.1,0 -0.1,0.1 -0.2,0.1 -0.3,0.2 -0.5,0.4 v 0 c 1.5,-2.2 2.5,-4.7 3.1,-7.3 0.2,-0.9 -1.1,-1.2 -1.3,-0.4 -0.3,1.4 -0.8,2.8 -1.4,4.2 -0.1,-1 0,-2 0.3,-2.9 0.1,-0.4 -0.1,-0.7 -0.5,-0.8 -0.4,-0.1 -0.7,0.1 -0.8,0.5 -0.6,1.6 -0.6,3.4 0,5 0,0 0,0 0,0 -0.3,0.5 -0.6,1 -1,1.5 -0.4,-1.1 -0.6,-2.2 -0.5,-3.3 0,-0.4 -0.3,-0.7 -0.7,-0.7 -0.4,0 -0.7,0.3 -0.7,0.7 -0.2,1.6 0.2,3.2 0.9,4.5 -0.5,0.6 -1,1.1 -1.5,1.7 0,-0.1 -0.1,-0.2 -0.1,-0.3 -0.1,-0.3 -0.2,-0.7 -0.3,-1 0,-0.1 0,-0.2 0,-0.2 0,0.1 0,-0.1 0,-0.1 0,-0.2 0,-0.3 0,-0.5 0,-0.3 0,-0.7 0.1,-1 0,-0.4 -0.3,-0.7 -0.7,-0.7 -0.4,0 -0.7,0.3 -0.7,0.7 -0.2,1.4 0.1,2.9 0.7,4.2 -2.2,1.9 -4.8,3.4 -7.6,4.2 0.1,-0.3 0.2,-0.5 0.4,-0.8 v 0 0 0 c 1.1,-0.4 2.1,-0.9 3,-1.6 0.2,-0.1 0.3,-0.2 0.3,-0.4 0,-0.2 0,-0.4 -0.1,-0.5 -0.2,-0.3 -0.6,-0.4 -0.9,-0.2 -0.4,0.3 -0.9,0.6 -1.3,0.8 0,0 -0.1,0 -0.1,0.1 1.1,-2.5 2.1,-5.1 2.9,-7.8 0.1,-0.4 -0.1,-0.7 -0.5,-0.8 -0.4,-0.1 -0.7,0.1 -0.8,0.5 -0.5,1.7 -1.1,3.4 -1.8,5.1 0,-0.1 -0.1,-0.1 -0.1,-0.2 -0.1,-0.2 -0.2,-0.3 -0.3,-0.5 0,-0.1 -0.1,-0.2 -0.1,-0.2 0,0 0,-0.1 -0.1,-0.1 0,0.1 0,0 0,-0.1 -0.1,-0.3 -0.2,-0.7 -0.3,-1.1 0,0 0,-0.1 0,-0.1 0,0 0,-0.1 0,-0.1 0,0.1 0,-0.1 0,-0.1 0,0 0,-0.1 0,-0.1 0,-0.2 0,-0.4 0,-0.6 0,-0.4 -0.3,-0.7 -0.7,-0.7 -0.4,0 -0.7,0.3 -0.7,0.7 0,1.7 0.6,3.4 1.8,4.6 -0.2,0.6 -0.5,1.2 -0.7,1.8 v 0 c -0.2,-0.3 -0.5,-0.7 -0.6,-1 -0.4,-0.7 -0.6,-1.4 -0.7,-2.1 -0.1,-0.4 -0.5,-0.6 -0.8,-0.5 -0.4,0.1 -0.6,0.5 -0.5,0.8 0.3,1.5 1,3 2.1,4.1 -1.5,3.2 -3.3,6.3 -5.3,9.3 -0.1,-1.5 0,-3.1 0.2,-4.6 0.1,-0.9 -1.2,-1.2 -1.3,-0.4 -0.3,2.2 -0.4,4.4 -0.1,6.6 -0.4,0.5 -0.8,1.1 -1.2,1.6 0,-0.9 0.1,-1.8 0.2,-2.7 0.1,-0.4 -0.1,-0.7 -0.5,-0.8 -0.4,-0.1 -0.7,0.1 -0.8,0.5 0,0 0,0 0,0 -0.3,1.5 -0.4,3.1 -0.3,4.6 0,0 0,0.1 0,0.1 -1.5,1.8 -3.100001,3.6 -4.800001,5.2 1.1,-2.4 2.1,-4.9 3.000001,-7.4 0,0 0,-0.1 0,-0.1 1.1,-2.7 2.1,-5.5 3,-8.3 0.2,-0.5 0.3,-1 0.5,-1.6 2.1,-0.2 4,-1.2 5.1,-2.9 0.2,-0.3 0.1,-0.7 -0.2,-0.9 -0.3,-0.2 -0.7,-0.1 -0.9,0.2 -0.8,1.2 -2.1,1.9 -3.5,2.2 0.7,-2.1 1.3,-4.2 1.9,-6.3 2.4,-1.2 3.5,-3.9 4.4,-6.4 0.1,-0.4 -0.1,-0.7 -0.5,-0.8 -0.4,-0.1 -0.7,0.1 -0.8,0.5 -0.5,1.7 -1.4,3.3 -2.6,4.7 -0.1,-0.4 -0.4,-0.6 -0.8,-0.6 -0.3,0 -0.5,0.2 -0.6,0.5 -1.2,4.2 -2.5,8.4 -3.9,12.5 0,0 0,0 0,-0.1 0,-0.1 0,-0.2 -0.1,-0.3 -0.3,-1.4 -0.5,-2.7 -0.7,-4.1 0,0 0,-0.1 0,-0.1 0.2,-1.9 1.1,-3.7 2.5,-5 0.3,-0.3 0.3,-0.7 0,-1 -0.3,-0.3 -0.7,-0.3 -1,0 -0.8,0.8 -1.5,1.7 -2.000001,2.7 0,-0.4 -0.1,-0.9 -0.1,-1.3 0,0 0,-0.2 0,-0.2 0,-0.3 0.1,-0.5 0.2,-0.8 0.100001,-0.3 0.100001,-0.5 0.200001,-0.8 0,-0.1 0.1,-0.2 0.1,-0.3 0.6,-1 1.2,-2 1.8,-3.1 0.1,-0.1 0.2,-0.1 0.2,-0.2 1.5,0.2 3.1,-0.2 4.2,-1.2 0.3,-0.3 0.3,-0.7 0,-1 -0.3,-0.3 -0.7,-0.3 -1,0 -0.1,0.1 -0.1,0.1 -0.2,0.2 0.1,-0.1 -0.1,0.1 -0.1,0.1 -0.1,0.1 -0.3,0.2 -0.5,0.3 0,0 -0.1,0 -0.1,0.1 0,0 -0.1,0.1 -0.1,0 0.1,0 -0.1,0 -0.1,0 0,0 -0.1,0 -0.1,0 -0.2,0.1 -0.3,0.1 -0.5,0.1 -0.1,0 -0.2,0 -0.3,0 v 0 c 0,0 -0.1,0 -0.1,0 -0.2,0 -0.3,0 -0.5,0 0,0 -0.1,0 -0.1,0 0.8,-1.7 1.4,-3.4 1.9,-5.2 0.1,-0.4 -0.1,-0.7 -0.5,-0.8 -0.4,-0.1 -0.7,0.1 -0.8,0.5 -0.5,1.6 -1.1,3.1 -1.7,4.6 0,0 0,-0.1 0,-0.1 0,-0.1 0,-0.1 0,-0.2 0,0 0,-0.1 0,-0.1 0,-0.1 0,-0.3 0,-0.4 0,-0.1 0,-0.3 0,-0.4 0,-0.1 0,-0.1 0,-0.2 0,0 0,-0.2 0,-0.2 0.1,-0.4 -0.1,-0.7 -0.5,-0.8 -0.4,-0.1 -0.7,0.1 -0.8,0.5 -0.2,1.3 0,2.6 0.5,3.8 -0.4,0.8 -0.900001,1.6 -1.400001,2.4 -0.2,-3.3 -0.2,-6.7 0,-10 0.1,-0.9 -1.3,-0.9 -1.4,0 -0.1,2.1 -0.2,4.1 -0.2,6.2 -0.1,-0.1 -0.2,-0.2 -0.3,-0.4 0,0 -0.1,-0.1 -0.1,-0.1 v 0 c -0.1,-0.1 -0.1,-0.2 -0.2,-0.2 -0.2,-0.3 -0.4,-0.6 -0.5,-0.9 0,-0.1 -0.1,-0.2 -0.1,-0.2 v -0.1 -0.1 c -0.1,-0.2 -0.1,-0.4 -0.2,-0.6 -0.1,-0.4 -0.5,-0.6 -0.8,-0.5 -0.4,0.1 -0.6,0.5 -0.5,0.8 0.5,1.6 1.5,3 2.8,4.1 0,1.6 0.1,3.1 0.3,4.7 -0.1,0 -0.1,-0.1 -0.2,-0.1 -0.3,-0.2 -0.7,-0.1 -0.9,0.2 -0.1,0.2 -0.1,0.3 -0.1,0.5 0.1,0.2 0.2,0.3 0.3,0.4 0.1,0 0.1,0.1 0.2,0.1 0.3,0.2 0.5,0.5 0.8,0.8 0,0.1 0.1,0.1 0.1,0.2 0.3,2.7 0.7,5.3 1.2,8 0,0.7 0.1,1.4 0.1,2.1 0,0.4 -0.1,0.7 -0.1,1.1 -0.1,-0.4 -0.2,-0.8 -0.3,-1.2 -0.1,-0.4 -0.5,-0.6 -0.8,-0.5 -0.4,0.1 -0.6,0.5 -0.5,0.8 0.5,1.4 0.6,2.9 0.5,4.3 -0.1,0.1 -0.1,0.3 -0.2,0.4 -0.3,-0.8 -0.8,-1.5 -1.4,-2.1 -0.3,-0.3 -0.7,-0.3 -1,0 -0.3,0.3 -0.3,0.7 0,1 0.1,0.1 0.3,0.3 0.4,0.4 0,0 0.1,0.1 0.1,0.1 v 0 0 c 0.1,0.1 0.1,0.2 0.2,0.2 0.1,0.2 0.2,0.3 0.3,0.5 0,0 0,0.1 0.1,0.1 0,0 0.1,0.1 0,0.1 0,-0.1 0,0.1 0,0.1 0,0 0,0.1 0.1,0.1 0.1,0.2 0.1,0.3 0.1,0.5 0,0.1 0,0.2 0.1,0.3 0,0 0,0.1 0,0.1 0,-0.1 0,0.1 0,0.1 0,0.2 0,0.4 0,0.5 0,0.1 0,0.2 0,0.3 0,0 0,0.1 0,0.1 0,0 0,0 0,0 v 0 c 0,0 0,0.1 0,0.1 0,-0.1 -0.1,-0.2 -0.1,-0.3 -0.5,-0.7 -1.2,-1.2 -1.8,-1.8 -0.3,-0.3 -0.7,-0.3 -1,0 -0.3,0.3 -0.3,0.7 0,1 0.2,0.3 0.5,0.5 0.8,0.8 0.1,0.1 0.3,0.3 0.4,0.4 0.1,0.1 0.1,0.1 0.2,0.2 0,0 0.1,0.1 0.1,0.1 v 0 0 c 0,0.1 0.1,0.1 0.1,0.2 0,0 0.1,0.1 0.1,0.1 v 0 c 0.1,0.2 0.1,0.4 0.2,0.6 v 0 c 0,0.1 0,0.1 0,0.2 0,0.1 0,0.2 0,0.3 0,0.2 0,0.4 0,0.6 -1.2,2.8 -2.4,5.5 -3.7,8.2 -0.7,-1.9 -0.8,-4 -0.2,-5.9 0.1,-0.4 -0.1,-0.7 -0.5,-0.8 -0.4,-0.1 -0.7,0.1 -0.8,0.5 -0.4,1.2 -0.5,2.4 -0.4,3.7 -0.2,-0.2 -0.3,-0.4 -0.5,-0.6 -0.1,-0.2 -0.2,-0.4 -0.3,-0.6 v -0.1 c 0,0 0,-0.1 0,-0.1 0,-0.1 -0.1,-0.2 -0.1,-0.3 -0.1,-0.2 -0.1,-0.4 -0.2,-0.6 0,-0.1 0,-0.1 0,-0.2 v -0.1 c 0,-0.1 0,-0.2 0,-0.3 0,-0.4 -0.3,-0.7 -0.7,-0.7 -0.4,0 -0.7,0.3 -0.7,0.7 0.1,2 1.2,3.8 2.9,4.9 0.2,0.6 0.4,1.3 0.7,1.9 0,0 0.1,0.1 0.1,0.1 -0.5,1.1 -1.1,2.2 -1.6,3.3 -1.4,2.7 -2.8,5.4 -4.3,8 0.1,-2.2 0.2,-4.4 0.3,-6.6 0.8,-0.3 1.4,-1 1.8,-1.7 0.5,-0.8 1,-1.7 1.3,-2.7 0.1,-0.4 -0.1,-0.7 -0.5,-0.8 -0.4,-0.1 -0.7,0.1 -0.8,0.5 -0.1,0.3 -0.3,0.7 -0.4,1 -0.2,0.4 -0.4,0.7 -0.6,1.1 -0.1,0.2 -0.2,0.3 -0.3,0.5 -0.1,0.1 -0.1,0.2 -0.2,0.3 0,0 -0.1,0.1 -0.1,0.1 0,0 0,0 0,0 v 0.1 c 0,0 0,0.1 -0.1,0.1 0.2,-3.8 0.5,-7.5 0.9,-11.2 0.6,-0.7 1.1,-1.5 1.6,-2.3 1.3,0.8 3,0.5 4,-0.7 0.3,-0.3 0.3,-0.7 0,-1 -0.3,-0.3 -0.7,-0.3 -1,0 -0.1,0.1 -0.2,0.2 -0.3,0.3 0,0 0,0 -0.1,0.1 0,0 0,0 0,0 -0.1,0 -0.1,0.1 -0.2,0.1 -0.1,0 -0.1,0.1 -0.2,0.1 0,0 0,0 -0.1,0 0,0 0,0 0,0 -0.1,0 -0.3,0.1 -0.4,0.1 0,0 -0.1,0 -0.1,0 -0.1,0 -0.1,0 -0.2,0 0,0 -0.1,0 -0.1,0 v 0 0 c 0,0 -0.1,0 -0.1,0 -0.1,0 -0.1,0 -0.2,-0.1 0,0 -0.1,0 -0.1,0 -0.1,0 -0.1,-0.1 -0.2,-0.1 1,-1.4 1.9,-2.9 2.6,-4.5 2.5,-1.5 4.3,-4.1 4.8,-7 0.1,-0.4 -0.1,-0.7 -0.5,-0.8 -0.4,-0.1 -0.7,0.1 -0.8,0.5 -0.3,1.8 -1.2,3.4 -2.4,4.7 1.3,-3.7 1.8,-7.6 1.5,-11.5 -0.1,-0.9 -1.4,-0.9 -1.4,0 0.1,1.1 0.1,2.2 0,3.4 -0.1,-0.1 -0.2,-0.3 -0.3,-0.4 -0.1,-0.1 -0.1,-0.3 -0.2,-0.4 v 0 0 c 0,-0.1 -0.1,-0.1 -0.1,-0.2 -0.1,-0.3 -0.2,-0.6 -0.2,-0.9 -0.1,-0.4 -0.5,-0.6 -0.8,-0.5 -0.4,0.1 -0.6,0.5 -0.5,0.8 0.3,1.3 0.9,2.5 1.9,3.4 0,0 0.1,0 0.1,0.1 -0.2,1.2 -0.4,2.4 -0.7,3.6 -0.4,-1.1 -0.7,-2.2 -0.9,-3.3 0,-0.4 -0.3,-0.7 -0.7,-0.7 -0.4,0 -0.7,0.3 -0.7,0.7 0.2,1.8 0.7,3.5 1.5,5.1 0,0.1 0.1,0.1 0.1,0.2 -1,3 -2.6,5.7 -4.6,8.2 0.2,-1.5 0.3,-2.9 0.5,-4.4 0,0 0,-0.1 0,-0.1 0.1,-0.5 0.1,-1.1 0.2,-1.6 1.1,-0.1 2.1,-0.7 2.8,-1.5 0.3,-0.3 0.3,-0.7 0,-1 -0.3,-0.3 -0.7,-0.3 -1,0 -0.2,0.2 -0.3,0.3 -0.5,0.5 h -0.1 c 0,0 -0.1,0.1 -0.1,0.1 -0.1,0.1 -0.2,0.1 -0.3,0.2 -0.1,0 -0.1,0.1 -0.2,0.1 v 0 0 c -0.1,0 -0.2,0.1 -0.3,0.1 v 0 c 0.4,-2.7 0.7,-5.3 1.2,-8 0.1,-0.9 -1.2,-1.2 -1.3,-0.4 -0.3,1.6 -0.5,3.1 -0.7,4.7 -0.9,-0.7 -1.7,-1.5 -2.4,-2.3 0.6,-1.4 0.7,-2.9 0.3,-4.4 -0.1,-0.4 -0.5,-0.6 -0.8,-0.5 -0.3,0.1 -0.6,0.5 -0.5,0.8 0,0 0,0 0,0 0,0.2 0.1,0.3 0.1,0.5 0,0.1 0,0.2 0,0.3 v 0 0 c 0,0.3 0,0.6 0,1 0,0.1 0,0.1 0,0.2 0,0 0,0.1 0,0.1 v 0 c 0,0.2 -0.1,0.3 -0.1,0.5 0,0 0,0 0,0.1 -0.4,-0.7 -0.8,-1.4 -1.1,-2.2 -0.1,-0.4 -0.5,-0.6 -0.8,-0.5 -0.4,0.1 -0.6,0.5 -0.5,0.8 0.7,1.7 1.6,3.3 2.8,4.7 -1.4,0.1 -2.8,-0.6 -3.6,-1.8 -0.2,-0.3 -0.6,-0.4 -0.9,-0.2 -0.3,0.2 -0.4,0.6 -0.2,0.9 1.3,2 3.7,2.9 6,2.3 0.5,0.4 1,0.9 1.5,1.2 -0.1,1 -0.3,2.1 -0.4,3.1 -0.4,-0.8 -0.8,-1.7 -1,-2.7 -0.1,-0.4 -0.5,-0.6 -0.8,-0.5 -0.4,0.1 -0.6,0.5 -0.5,0.8 0.4,1.6 1,3.1 2,4.5 -0.2,1.7 -0.4,3.4 -0.6,5.1 -0.4,-0.8 -0.7,-1.6 -0.9,-2.5 -0.1,-0.4 -0.5,-0.6 -0.8,-0.5 -0.4,0.1 -0.6,0.5 -0.5,0.8 0.4,1.6 1,3.1 1.9,4.4 0,0 0,0.1 0,0.1 -0.2,1.6 -0.3,3.1 -0.4,4.7 -1.9,-1.6 -3.5,-3.4 -4.9,-5.5 0,-0.3 0,-0.5 0,-0.8 1,-0.2 2,-0.6 2.8,-1.2 0.2,-0.1 0.3,-0.2 0.3,-0.4 0,-0.2 0,-0.4 -0.1,-0.5 -0.2,-0.3 -0.6,-0.4 -0.9,-0.2 -0.2,0.2 -0.5,0.3 -0.7,0.5 -0.1,0.1 -0.2,0.1 -0.3,0.2 -0.1,0 -0.1,0.1 -0.2,0.1 0.2,-0.1 -0.1,0 -0.1,0 -0.2,0.1 -0.5,0.2 -0.8,0.2 v 0 c 0,-0.4 0,-0.8 0,-1.2 1.5,-0.3 2.8,-1 3.8,-2.2 0.3,-0.3 0.3,-0.7 0,-1 -0.3,-0.3 -0.7,-0.3 -1,0 -0.2,0.3 -0.4,0.5 -0.7,0.7 -0.1,0.1 -0.1,0.1 -0.2,0.2 v 0 0 c 0,0 -0.1,0 -0.1,0.1 -0.1,0.1 -0.3,0.2 -0.4,0.3 -0.1,0.1 -0.3,0.2 -0.4,0.2 0,0 -0.1,0 -0.1,0 v 0 c -0.1,0 -0.1,0.1 -0.2,0.1 -0.2,0.1 -0.3,0.1 -0.5,0.1 0,-0.5 0,-1.1 0.1,-1.6 0,0 0,0 0.1,0 0.7,-0.1 1.3,-0.5 1.7,-1 0.4,-0.6 0.8,-1.3 1,-2 0,-0.2 0,-0.4 -0.1,-0.5 -0.2,-0.3 -0.6,-0.4 -0.9,-0.2 -0.2,0.1 -0.3,0.2 -0.3,0.4 -0.1,0.1 -0.1,0.3 -0.2,0.4 v 0 0 c 0,0 0,0.1 0,0.1 0,0.1 -0.1,0.1 -0.1,0.2 -0.1,0.1 -0.1,0.3 -0.2,0.4 0,0.1 -0.1,0.1 -0.1,0.2 0,0 0,0.1 -0.1,0.1 -0.1,0.1 -0.2,0.2 -0.3,0.3 0,0 -0.1,0.1 -0.1,0.1 0,0 -0.1,0 -0.1,0.1 -0.1,0 -0.1,0.1 -0.2,0.1 0,0 0,0 -0.1,0 v 0 c 0.1,-1.2 0.2,-2.5 0.4,-3.7 0.1,-0.9 -1.2,-1.2 -1.3,-0.4 -0.4,3.1 -0.6,6.3 -0.6,9.5 -1.2,-2.3 -2,-4.8 -2.3,-7.4 -0.1,-0.9 -1.4,-0.5 -1.3,0.4 0.2,1 0.4,2 0.7,3 -0.1,0 -0.1,-0.1 -0.2,-0.1 v 0 c 0,0 -0.1,-0.1 -0.1,-0.1 -0.1,-0.1 -0.3,-0.2 -0.4,-0.4 -0.5,-0.5 -1,-1 -1.4,-1.6 -0.3,-0.3 -0.7,-0.3 -1,0 -0.3,0.3 -0.3,0.7 0,1 0.9,1.3 2.1,2.3 3.5,3 0,0 0,0 0.1,0 0.3,0.8 0.6,1.6 1,2.4 -1.5,0.3 -2.8,-0.8 -3.9,-1.7 -0.3,-0.3 -0.7,-0.3 -1,0 -0.3,0.3 -0.3,0.7 0,1 0.8,0.7 1.7,1.3 2.7,1.7 0.9,0.4 1.9,0.5 2.9,0.2 0.3,0.5 0.6,1 0.9,1.5 0.2,4 0.8,8 1.8,11.8 h -0.1 c -0.3,0 -0.6,-0.1 -0.9,-0.2 0,0 -0.1,-0.1 -0.1,-0.1 -0.1,0 -0.1,0 -0.2,-0.1 -0.1,-0.1 -0.3,-0.1 -0.4,-0.2 -0.1,-0.1 -0.2,-0.2 -0.4,-0.2 0,0 -0.1,0 -0.1,-0.1 -0.1,0 -0.1,-0.1 -0.2,-0.1 -0.3,-0.3 -0.7,-0.3 -1,0 -0.3,0.3 -0.3,0.7 0,1 v 0 c 1,0.9 2.3,1.4 3.6,1.5 0.3,1.1 0.6,2.2 1,3.3 -0.4,-0.5 -0.8,-0.9 -1.3,-1.4 -0.7,-0.6 -1.6,0.4 -1,1 1.7,1.5 2.9,3.5 3.5,5.6 0,1.1 0.1,2.1 0.2,3.2 -2.7,-2.6 -5.3,-5.3 -7.8,-8.1 -0.6,-1 -0.8,-2.2 -0.7,-3.4 v 0 c 1.1,-1.2 1.8,-2.6 2,-4.1 0.1,-0.4 -0.1,-0.7 -0.5,-0.8 -0.4,-0.1 -0.7,0.1 -0.8,0.5 -0.1,0.3 -0.1,0.7 -0.3,1 -0.1,0.2 -0.1,0.3 -0.2,0.5 0,0 -0.1,0.1 0,0.1 0.1,0 0,0.1 0,0.1 0,0.1 -0.1,0.1 -0.1,0.2 0.1,-1.2 0.1,-2.4 0.1,-3.5 0,0 0.1,0 0.1,0 0.9,-0.6 1.5,-1.6 1.8,-2.6 0.5,-1 0.6,-2.2 0.5,-3.3 -0.1,-0.4 -0.5,-0.6 -0.8,-0.5 -0.4,0.1 -0.6,0.5 -0.5,0.8 0.1,0.9 -0.1,1.7 -0.4,2.5 -0.1,0.5 -0.3,0.9 -0.6,1.3 0,-1.1 -0.1,-2.1 -0.2,-3.2 -0.1,-0.9 -1.4,-0.9 -1.4,0 0.2,1.9 0.2,3.9 0.2,5.8 -0.8,-1.3 -1.2,-2.7 -1.2,-4.2 0,-0.4 -0.3,-0.7 -0.7,-0.7 -0.4,0 -0.6,0.3 -0.7,0.7 0,2.3 0.9,4.6 2.4,6.3 0,0 0.1,0 0.1,0.1 -0.1,1.3 -0.1,2.6 -0.3,3.9 -0.7,-0.8 -1.3,-1.6 -2,-2.5 0,0 0,-0.1 0,-0.1 -1.5,-2.5 -2.4,-5.3 -2.4,-8.3 0.1,-0.2 0.2,-0.4 0.3,-0.6 0,-0.1 0.1,-0.2 0.1,-0.3 v 0 0 c 0,0 0,-0.1 0.1,-0.1 0.1,-0.2 0.2,-0.4 0.2,-0.5 0.2,-0.3 0.4,-0.7 0.6,-1 0,0 0.1,-0.1 0.1,-0.1 0.1,-0.1 0.1,-0.1 0.2,-0.2 h 0.1 v 0 c 0.1,0 0.1,-0.1 0.2,-0.1 0.3,-0.2 0.4,-0.6 0.2,-0.9 -0.2,-0.3 -0.6,-0.4 -0.9,-0.2 -0.2,0.1 -0.4,0.2 -0.6,0.4 0.8,-4.7 1.5,-9.4 2,-14.1 0.4,-0.2 0.7,-0.4 1.1,-0.7 1.5,0.7 3.2,0.9 4.8,0.6 0.4,0 0.7,-0.3 0.7,-0.7 0,-0.4 -0.3,-0.7 -0.7,-0.7 -1.2,0.2 -2.4,0.1 -3.5,-0.1 0.5,-0.4 1,-0.9 1.5,-1.3 1.6,0.4 3.2,0.2 4.6,-0.6 0.3,-0.2 0.4,-0.6 0.2,-0.9 -0.2,-0.3 -0.6,-0.4 -0.9,-0.2 -0.3,0.2 -0.5,0.3 -0.8,0.4 -0.3,0.1 -0.6,0.2 -1,0.2 0,0 -0.2,0 -0.2,0 -0.1,0 -0.1,0 -0.2,0 -0.2,0 -0.4,0 -0.5,0 h -0.1 c 0.6,-0.6 1.1,-1.3 1.6,-1.9 0.1,0 0.2,0 0.3,0 1.9,-0.7 3.6,-1.7 5.1,-3 1.3,0.2 2.7,0.1 3.9,-0.5 0,0 0.1,0.1 0.1,0.1 2.3,0.8 4.9,0.5 6.9,-0.8 0.7,-0.5 0.1,-1.7 -0.7,-1.2 -1.3,0.8 -2.9,1.2 -4.5,1 1,-0.6 2,-1.4 2.8,-2.2 0.6,-0.6 -0.4,-1.6 -1,-1 -0.9,1 -2,1.8 -3.3,2.4 -0.9,0.5 -2,0.8 -3.1,0.9 1.8,-1.9 3,-4.2 3.7,-6.7 0.1,-0.4 -0.1,-0.7 -0.5,-0.8 -0.4,-0.1 -0.7,0.1 -0.8,0.5 -0.4,1.4 -1,2.8 -1.8,4 -0.4,-1.2 -0.5,-2.5 -0.2,-3.7 0.1,-0.4 -0.1,-0.7 -0.5,-0.8 -0.4,-0.1 -0.7,0.1 -0.8,0.5 0,0 0,0 0,0 -0.5,1.8 -0.3,3.7 0.6,5.4 -1.3,1.7 -3,3.1 -5,4.1 2.1,-3.5 3.1,-7.6 3,-11.6 0,-0.9 -1.4,-0.9 -1.4,0 0,1.6 -0.1,3.2 -0.4,4.7 -0.2,-0.3 -0.4,-0.7 -0.5,-1.1 -0.1,-0.2 -0.1,-0.4 -0.2,-0.6 0,-0.1 0,-0.2 -0.1,-0.3 v 0 0 c 0,0 0,-0.1 0,-0.1 0,-0.2 0,-0.4 0,-0.6 0,-0.1 0,-0.2 0,-0.3 0,0 0,-0.1 0,-0.1 0,0 0,-0.2 0,-0.1 0.1,-0.4 -0.1,-0.7 -0.5,-0.8 -0.4,-0.1 -0.7,0.1 -0.8,0.5 -0.3,1.9 0.3,3.9 1.6,5.3 -0.1,0.3 -0.2,0.7 -0.3,1 -0.3,-0.2 -0.5,-0.4 -0.7,-0.7 -0.1,-0.1 -0.2,-0.3 -0.3,-0.4 -0.1,-0.2 -0.3,-0.4 -0.4,-0.6 -0.1,-0.1 -0.1,-0.2 -0.1,-0.3 0,0 0,-0.1 -0.1,-0.1 0,0 0,0 0,0 v -0.1 c -0.1,-0.2 -0.1,-0.4 -0.2,-0.6 -0.1,-0.2 -0.1,-0.4 -0.1,-0.7 v 0 0 c 0,-0.1 0,-0.1 0,-0.2 0,-0.1 0,-0.2 0,-0.4 0,-0.4 -0.3,-0.7 -0.7,-0.7 -0.4,0 -0.7,0.3 -0.7,0.7 0.1,2.1 1.1,4.1 2.9,5.3 -1.6,3.8 -4.3,7 -7.7,9.2 0.2,-1.7 0.3,-3.4 0.4,-5.1 1.4,-0.1 2.7,-1 3.3,-2.3 0.2,-0.3 0.1,-0.7 -0.2,-0.9 -0.3,-0.2 -0.7,-0.1 -0.9,0.2 -0.1,0.1 -0.1,0.3 -0.2,0.4 0,0.1 -0.1,0.1 -0.1,0.2 v 0 c 0,-0.1 0,0 0,0 -0.1,0.1 -0.2,0.2 -0.3,0.3 0,0 -0.1,0.1 -0.1,0.1 v 0 c 0,0 -0.1,0 -0.1,0.1 -0.1,0.1 -0.3,0.2 -0.4,0.2 0,0 -0.2,0.1 -0.1,0 0.1,0 0,0 0,0 -0.1,0 -0.1,0.1 -0.2,0.1 -0.1,0 -0.3,0.1 -0.4,0.1 0,-0.5 0.1,-1 0.1,-1.4 0.8,-0.4 1.4,-0.9 1.9,-1.7 0.6,-1 0.9,-2.1 1.1,-3.3 0.1,-0.4 -0.1,-0.7 -0.5,-0.8 -0.4,-0.1 -0.7,0.1 -0.8,0.5 -0.1,1 -0.4,1.9 -0.9,2.8 -0.1,0.1 -0.1,0.2 -0.2,0.3 0,0 -0.1,0.1 -0.1,0.1 V 32 c 0,0 0,0 0,0 -0.1,0.1 -0.2,0.3 -0.4,0.4 0.1,-2.4 0.2,-4.9 0.3,-7.3 0,-0.4 -0.3,-0.7 -0.7,-0.7 -0.4,0 -0.6,0.3 -0.7,0.7 0,1.6 -0.1,3.2 -0.2,4.8 -0.1,-0.1 -0.1,-0.1 -0.2,-0.2 0,0 -0.1,-0.2 0,-0.1 0,-0.1 -0.1,-0.1 -0.1,-0.1 -0.1,-0.1 -0.2,-0.2 -0.2,-0.3 -0.1,-0.2 -0.3,-0.4 -0.4,-0.7 v -0.1 0 c 0,-0.1 0,-0.1 -0.1,-0.2 0,-0.1 -0.1,-0.3 -0.1,-0.4 -0.1,-0.4 -0.5,-0.6 -0.8,-0.5 -0.4,0.1 -0.6,0.5 -0.5,0.8 0.3,1.2 1,2.2 1.8,3 0.1,0.1 0.3,0.2 0.5,0.2 0,0.5 -0.1,1 -0.1,1.5 v 0 c -0.1,0 -0.1,0 -0.2,-0.1 0,0 -0.1,0 -0.1,0 v 0 0 c 0,0 -0.1,0 -0.1,0 -0.1,0 -0.1,-0.1 -0.2,-0.1 -0.1,-0.1 -0.2,-0.1 -0.3,-0.2 h -0.1 c -0.1,0 -0.1,-0.1 -0.2,-0.1 -0.1,-0.1 -0.2,-0.2 -0.2,-0.3 -0.2,-0.2 -0.3,-0.4 -0.4,-0.7 -0.2,-0.3 -0.6,-0.4 -0.9,-0.2 -0.3,0.2 -0.4,0.6 -0.2,0.9 0,0 0,0 0,0 v 0 c 0,0 0,0 0,0 0.3,0.7 0.8,1.3 1.3,1.8 0.5,0.5 1,1 1.5,1.4 -0.2,2.5 -0.4,4.9 -0.6,7.3 -0.1,-0.1 -0.1,-0.2 -0.2,-0.3 0,-0.1 -0.1,-0.1 -0.1,-0.2 v 0 -0.1 c 0,-0.1 -0.1,-0.3 -0.1,-0.4 -0.1,-0.3 -0.1,-0.6 -0.2,-0.9 0,-0.2 -0.2,-0.3 -0.3,-0.4 -0.2,-0.1 -0.3,-0.1 -0.5,-0.1 -0.4,0.1 -0.6,0.5 -0.5,0.8 0.2,1.3 0.8,2.5 1.7,3.5 0,0 0,0 0,0 -0.1,1 -0.2,2.1 -0.4,3.1 -1.4,-1.8 -2.5,-3.8 -3.4,-5.9 0.1,-0.7 0.1,-1.4 0.2,-2.1 1.1,-1.2 1.9,-2.6 2.3,-4.2 0.1,-0.4 -0.1,-0.7 -0.5,-0.8 -0.4,-0.1 -0.7,0.1 -0.8,0.5 -0.1,0.4 -0.2,0.8 -0.4,1.1 0,0 -0.1,0.1 0,0.1 0,-0.1 0,0.1 0,0.1 0,0.1 -0.1,0.2 -0.1,0.2 -0.1,0.2 -0.2,0.4 -0.3,0.5 v 0 c 0,-1.4 0,-2.8 -0.1,-4.3 -0.1,-0.9 -1.4,-0.9 -1.4,0 0.1,1.8 0.1,3.6 0,5.4 -0.5,-2.1 -0.9,-4.1 -1.1,-6.3 0.1,0 0.1,-0.1 0.2,-0.1 0.7,-0.6 1.2,-1.4 1.4,-2.3 0.1,-0.4 -0.1,-0.7 -0.5,-0.8 -0.4,-0.1 -0.7,0.1 -0.8,0.5 0,0.1 -0.1,0.2 -0.1,0.3 -0.1,0.2 -0.2,0.4 -0.4,0.6 -0.2,-2 -0.3,-4 -0.4,-5.9 0,-0.9 -1.4,-0.9 -1.4,0 0.1,1.7 0.2,3.5 0.3,5.2 -0.9,-1.2 -1.5,-2.5 -1.9,-3.9 -0.1,-0.4 -0.5,-0.6 -0.9,-0.4 -0.3,0.1 -0.5,0.5 -0.5,0.8 0.6,2.2 1.8,4.2 3.5,5.8 0,0.3 0.1,0.7 0.1,1 -0.1,0 -0.3,-0.1 -0.4,-0.1 0,0 -0.1,0 -0.1,0 v 0 c -0.1,0 -0.2,-0.1 -0.2,-0.1 -0.2,-0.1 -0.3,-0.2 -0.5,-0.3 -0.1,-0.1 -0.3,-0.2 -0.4,-0.3 v 0 c 0,0 -0.1,0 -0.1,-0.1 -0.1,-0.1 -0.1,-0.1 -0.2,-0.2 -0.1,-0.1 -0.3,-0.2 -0.4,-0.4 -0.1,-0.1 -0.1,-0.1 -0.2,-0.2 0,0 0,-0.1 -0.1,-0.1 v 0 0 c -0.2,-0.3 -0.6,-0.4 -0.9,-0.2 -0.3,0.2 -0.4,0.6 -0.2,0.9 1,1.3 2.4,2.2 3.9,2.5 0.1,0.7 0.2,1.3 0.4,2 h -0.1 v 0 c -0.1,0 -0.2,-0.1 -0.3,-0.1 -0.3,-0.2 -0.7,-0.3 -1,-0.5 -0.3,-0.2 -0.6,-0.4 -0.9,-0.6 -0.1,-0.1 -0.2,-0.1 -0.2,-0.2 0,0 -0.1,-0.1 -0.1,-0.1 v 0 0 c -0.2,-0.1 -0.3,-0.2 -0.5,-0.4 -0.3,-0.3 -0.7,-0.3 -1,0 -0.3,0.3 -0.3,0.7 0,1 1.3,1.1 2.7,1.9 4.3,2.5 0,0 0.1,0 0.1,0 0.3,1.3 0.7,2.6 1.2,3.9 -0.2,2 -0.6,4 -1.1,5.9 -0.8,-1.3 -1.3,-2.7 -1.5,-4.2 0,-0.4 -0.3,-0.7 -0.7,-0.7 -0.4,0 -0.7,0.3 -0.7,0.7 0.2,2.1 1,4.1 2.3,5.8 0,0 0.1,0.1 0.1,0.1 -0.5,1.7 -1.1,3.4 -1.8,5 -0.5,-1 -1.1,-2 -1.6,-3 -0.2,-0.3 -0.3,-0.6 -0.4,-0.9 0.1,0 0.1,-0.1 0.1,-0.2 0.8,-1.2 1.1,-2.7 0.8,-4.1 -0.1,-0.4 -0.5,-0.6 -0.8,-0.5 -0.4,0.1 -0.6,0.5 -0.5,0.8 0,0 0,0.1 0,0.1 v 0 c 0,0.1 0,0.2 0,0.2 0,0.1 0,0.3 0,0.4 0,0.1 0,0.3 0,0.4 v 0 c 0,0 0,0.1 0,0.1 0,0.1 0,0.1 0,0.2 -0.1,0.3 -0.1,0.6 -0.3,0.8 v 0.1 c -0.4,-0.9 -0.9,-1.8 -1.3,-2.7 1.6,-1.8 2.1,-4.4 1.4,-6.7 -0.1,-0.4 -0.5,-0.6 -0.8,-0.5 -0.4,0.1 -0.6,0.5 -0.5,0.8 0.5,1.6 0.3,3.4 -0.6,4.9 -0.6,-1.5 -1.2,-2.9 -1.8,-4.4 -0.3,-0.8 -1.6,-0.5 -1.3,0.4 1.6,4.1 3.4,8.1 5.4,12 -2,-1.2 -3.8,-2.6 -5.4,-4.3 -0.1,-1.1 0,-2.3 0.1,-3.4 0.1,-0.9 -1.3,-0.9 -1.4,0 -0.1,0.6 -0.1,1.2 -0.1,1.9 -0.7,-0.9 -1.4,-1.7 -2,-2.7 0.4,-1.2 0.4,-2.5 0.2,-3.8 -0.1,-0.4 -0.5,-0.6 -0.8,-0.5 -0.4,0.1 -0.6,0.5 -0.5,0.8 0,0.1 0,0.2 0,0.2 v 0 c 0,0 0,0.1 0,0.1 0,0.1 0,0.3 0,0.4 0,0.3 0,0.6 0,0.9 v 0 c -0.8,-1.4 -1.4,-2.8 -1.9,-4.3 -0.3,-0.8 -1.6,-0.5 -1.3,0.4 0.2,0.7 0.5,1.3 0.7,1.9 -0.1,-0.1 -0.3,-0.2 -0.4,-0.3 -0.4,-0.3 -0.8,-0.7 -1.2,-1.1 -0.7,-0.8 -1.2,-1.8 -1.4,-2.9 -0.1,-0.4 -0.5,-0.6 -0.8,-0.5 -0.4,0.1 -0.6,0.5 -0.5,0.8 0.6,2.6 2.5,4.7 4.9,5.7 0.1,0 0.2,0 0.2,0 1.2,2.4 2.8,4.7 4.7,6.6 0.1,2.4 0.6,4.8 1.3,7.1 -2,-1.6 -3.5,-3.8 -4.1,-6.3 -0.1,-0.4 -0.5,-0.6 -0.9,-0.4 -0.3,0.1 -0.5,0.5 -0.5,0.8 0.9,3.4 3,6.3 6.1,8 0,0 0.1,0 0.1,0 0.6,1.6 1.4,3.1 2.3,4.5 -2,-0.6 -3.9,-1.3 -5.9,-2.1 -0.1,-1.5 -0.4,-3 -0.9,-4.4 -0.1,-0.4 -0.5,-0.6 -0.8,-0.5 -0.4,0.1 -0.6,0.5 -0.5,0.8 0.4,1.1 0.6,2.2 0.7,3.4 -0.9,-0.4 -1.8,-0.8 -2.6,-1.2 0,0 0,0 0,0 -0.2,-3.1 -0.7,-6.3 -1.7,-9.3 1.2,-1.2 2,-2.8 2,-4.5 0,-0.4 -0.3,-0.7 -0.7,-0.7 -0.4,0 -0.7,0.3 -0.7,0.7 0,0.2 0,0.4 0,0.6 0,0 0,0 0,0 v 0 c 0,0 0,0.1 0,0.1 0,0.1 0,0.2 -0.1,0.3 0,0.2 -0.1,0.4 -0.2,0.5 0,0.1 -0.1,0.2 -0.1,0.3 v 0 c 0,0 0,0.1 -0.1,0.1 -0.2,0.3 -0.4,0.7 -0.6,1 v 0 0 l -0.1,0.1 c -0.2,-0.6 -0.4,-1.2 -0.7,-1.8 0.1,-0.1 0.1,-0.1 0.2,-0.2 0.7,-1 1,-2.3 0.8,-3.5 -0.1,-0.4 -0.5,-0.6 -0.8,-0.5 -0.4,0.1 -0.6,0.5 -0.5,0.8 V 42 c 0,0.1 0,0.1 0,0.2 0,0.1 0,0.2 0,0.3 0,0.1 0,0.1 0,0.2 0,0 0,0.3 0,0.1 0,0.1 0,0.2 -0.1,0.4 0,0.1 -0.1,0.2 -0.1,0.4 0,0.1 0,0.1 -0.1,0.2 v 0.1 c 0,0 0,0.1 0,0.1 -0.6,-1.2 -1.2,-2.4 -1.9,-3.5 -0.5,-0.8 -1.6,-0.1 -1.2,0.7 1.4,2.3 2.5,4.7 3.4,7.2 -2.3,-1.5 -4.3,-3.3 -6.1,-5.4 -0.3,-0.3 -0.7,-0.3 -1,0 -0.3,0.3 -0.3,0.7 0,1 2.1,2.5 4.7,4.7 7.5,6.4 0.1,0 0.1,0 0.2,0.1 0.2,0.7 0.4,1.4 0.5,2.1 -0.2,-0.1 -0.5,-0.1 -0.7,-0.2 -0.1,0 -0.2,-0.1 -0.3,-0.1 0,0 -0.1,0 -0.1,-0.1 h -0.1 l -0.1,-0.1 c 0,0 -0.1,0 -0.1,-0.1 -0.1,0 -0.2,-0.1 -0.3,-0.1 -0.4,-0.2 -0.7,-0.4 -1,-0.6 0,0 -0.1,-0.1 -0.1,-0.1 0,0 -0.1,0 -0.1,-0.1 -0.1,-0.1 -0.2,-0.1 -0.2,-0.2 -0.2,-0.1 -0.3,-0.3 -0.5,-0.4 -0.3,-0.3 -0.7,-0.3 -1,0 -0.3,0.3 -0.3,0.7 0,1 0,0 0,0 0,0 1.2,1.3 2.9,2.1 4.6,2.5 0.1,0 0.1,0 0.2,0 0.2,1.1 0.3,2.2 0.4,3.3 -2.2,-1.2 -4.4,-2.4 -6.4,-3.8 v 0 c 0.2,-2.4 -0.7,-4.8 -2.5,-6.6 -0.3,-0.3 -0.7,-0.2 -1,0 -0.2,0.3 -0.2,0.7 0,0.9 1.2,1.2 2,2.9 2.1,4.7 -1,-0.7 -1.9,-1.4 -2.9,-2.1 -0.7,-0.5 -1.7,0.4 -1,1 1.8,1.4 3.7,2.7 5.6,4 -1.4,0.6 -3,0.6 -4.4,-0.1 -0.3,-0.2 -0.7,-0.1 -0.9,0.2 -0.2,0.3 -0.1,0.7 0.2,0.9 1.9,1 4.3,1 6.2,-0.1 0.1,0 0.1,-0.1 0.2,-0.2 0.4,0.3 0.8,0.5 1.3,0.8 0,0.1 -0.1,0.2 -0.1,0.3 0,0 0,0.1 0,0.1 0,0.1 0,0.2 -0.1,0.2 v 0 0 c 0,0 0,0.1 -0.1,0.1 0,0.1 -0.1,0.1 -0.1,0.2 0,0 0,0 0,0.1 0,0 0,0.1 -0.1,0.1 -0.1,0.1 -0.1,0.1 -0.2,0.2 0.1,-0.1 0,0 0,0 0,0 -0.1,0.1 -0.1,0.1 -0.1,0 -0.1,0.1 -0.2,0.1 v 0 c 0,0 -0.1,0 -0.1,0 -0.1,0 -0.2,0.1 -0.3,0.1 -0.1,0 -0.2,0 -0.3,0.1 v 0 c 0,0 -0.1,0 -0.1,0 -0.4,0 -0.9,0 -1.3,0 -0.4,0 -0.7,0.3 -0.7,0.7 0,0.4 0.3,0.7 0.7,0.7 1,0.1 2.1,-0.1 3,-0.5 0.7,-0.4 1.2,-1 1.4,-1.8 2,1.1 4.1,2.2 6.3,3.1 -1.2,1 -2.8,1.3 -4.2,0.9 -0.4,-0.1 -0.7,0.1 -0.8,0.5 -0.1,0.4 0.1,0.7 0.5,0.8 2.1,0.6 4.3,0 5.8,-1.5 0.1,-0.1 0.1,-0.1 0.1,-0.2 2.4,1 4.8,1.8 7.3,2.6 0.1,0.1 0.2,0.1 0.3,0.1 0.5,0.1 1,0.3 1.6,0.5 2.5,0.7 5.1,1.2 7.6,1.5 1.2,1.6 2.4,3.2 3.6,4.8 -1.1,0.2 -2.3,0.1 -3.4,-0.1 -0.4,-0.1 -0.7,0.1 -0.8,0.5 -0.1,0.4 0.1,0.7 0.5,0.8 0,0 0,0 0,0 1.5,0.4 3.2,0.4 4.7,0 0.7,0.8 1.3,1.6 2,2.4 -2.9,0.2 -5.8,0.1 -8.7,-0.3 -0.1,-0.2 -0.2,-0.4 -0.4,-0.5 0.1,0 0.1,-0.1 0.2,-0.2 1.2,-1.7 1.7,-3.8 1.6,-5.9 0,-0.4 -0.3,-0.7 -0.7,-0.7 -0.4,0 -0.7,0.3 -0.7,0.7 0.1,1.7 -0.3,3.4 -1.2,4.8 -0.6,-0.9 -1.1,-1.8 -1.7,-2.7 1,-0.4 1.7,-1.4 1.6,-2.5 0,-0.2 -0.1,-0.4 -0.2,-0.5 -0.3,-0.3 -0.7,-0.3 -1,0 -0.1,0.1 -0.2,0.3 -0.2,0.5 0,0.2 0,0.4 -0.1,0.6 0,0.1 -0.1,0.2 -0.2,0.3 -0.1,0.2 -0.3,0.3 -0.5,0.4 0,0 -0.1,0 -0.1,0 0,-0.1 -0.1,-0.2 -0.1,-0.3 0,-0.1 0,-0.2 -0.1,-0.3 v -0.1 c 0,-0.1 0,-0.1 0,-0.2 0,-0.2 0,-0.5 0,-0.7 0,-0.1 0,-0.1 0,-0.2 v -0.1 c 0,-0.1 0,-0.1 0,0 0,-0.1 0,-0.1 0,-0.2 0,-0.1 0,-0.1 0,-0.2 0.1,-0.4 -0.1,-0.7 -0.5,-0.8 -0.4,-0.1 -0.7,0.1 -0.8,0.5 -0.1,0.6 -0.2,1.3 -0.1,1.9 0,0 -0.1,0 -0.1,-0.1 -0.2,-0.1 -0.4,-0.2 -0.5,-0.3 -0.1,-0.1 -0.2,-0.1 -0.2,-0.2 v 0 c 0,0 -0.1,-0.1 -0.1,-0.1 -0.3,-0.3 -0.6,-0.6 -0.9,-0.9 v 0 c 0,0 -0.1,-0.1 -0.1,-0.1 -0.1,-0.1 -0.1,-0.2 -0.2,-0.3 -0.1,-0.2 -0.2,-0.4 -0.3,-0.6 -0.2,-0.3 -0.6,-0.4 -0.9,-0.2 -0.3,0.2 -0.4,0.6 -0.2,0.9 0.8,1.7 2.3,2.9 4,3.5 0.4,0.6 0.8,1.3 1.2,1.9 -1.3,-0.4 -2.5,-1.1 -3.5,-2 -0.3,-0.3 -0.7,-0.3 -1,0 -0.3,0.3 -0.3,0.7 0,1 1.5,1.4 3.4,2.3 5.5,2.7 0.2,0.3 0.4,0.6 0.6,0.8 -2.5,-0.4 -5,-1 -7.4,-1.8 -0.7,-0.8 -1.3,-1.6 -1.8,-2.5 0,0 0,-0.1 0,-0.1 0,0 0,-0.1 0,-0.1 v 0 -0.1 c 0,0 0,-0.1 0,-0.1 0,-0.1 0,-0.2 0.1,-0.3 0,-0.2 0.1,-0.3 0.1,-0.5 0,0 0,-0.1 0,-0.1 V 68 67.9 c 0,0 0,-0.1 0.1,-0.1 0.1,-0.3 0.3,-0.6 0.5,-0.8 v 0 c 0,0 0,-0.1 0.1,-0.1 0.1,-0.1 0.1,-0.1 0.2,-0.2 0.1,-0.1 0.2,-0.2 0.4,-0.4 0.3,-0.3 0.3,-0.7 0,-1 -0.3,-0.3 -0.7,-0.3 -1,0 -0.6,0.5 -1.1,1.2 -1.4,1.9 -0.2,-0.7 -0.4,-1.4 -0.4,-2.1 0,-0.4 -0.3,-0.7 -0.7,-0.7 -0.4,0 -0.7,0.3 -0.7,0.7 0.2,1.6 0.6,3.1 1.3,4.5 0,0 0,0 0,0.1 0.2,0.4 0.4,0.8 0.7,1.2 -0.1,0 -0.1,0 -0.2,0 -0.2,-0.1 -0.4,-0.2 -0.6,-0.2 0,0 -0.1,0 -0.1,0 -2.2,-1.4 -4.2,-3.2 -5.6,-5.4 -0.2,-0.3 -0.6,-0.4 -0.9,-0.2 -0.3,0.2 -0.4,0.6 -0.2,0.9 0.3,0.4 0.6,0.8 0.9,1.2 -1.5,-0.5 -3,-0.6 -4.5,-0.4 -0.4,0.1 -0.6,0.5 -0.5,0.8 0.1,0.4 0.5,0.6 0.8,0.5 2.7,-0.3 5.4,0.6 7.3,2.5 -1.2,0 -2.3,0.5 -3.2,1.2 -1,0.8 -1.8,1.8 -2.4,2.9 -0.2,0.3 -0.1,0.7 0.2,0.9 0.3,0.2 0.7,0.1 0.9,-0.2 0.5,-0.8 1.1,-1.6 1.8,-2.3 -0.2,1 -0.1,2.1 0.1,3.1 0.1,0.4 0.5,0.6 0.8,0.5 0.4,-0.1 0.6,-0.5 0.5,-0.8 -0.1,-0.6 -0.2,-1.1 -0.2,-1.7 0,-0.4 0.1,-0.9 0.3,-1.3 0.2,-0.3 0.5,-0.6 0.8,-0.7 0.1,0 0.2,-0.1 0.3,-0.1 1,-0.1 2.1,-0.1 3.1,0.1 0.3,0.1 0.6,0.2 0.9,0.3 -0.1,0 -0.2,0.1 -0.2,0.1 -0.5,0.1 -0.9,0.4 -1.1,0.8 -0.2,0.4 -0.3,0.8 -0.2,1.2 0,0.4 0.3,0.7 0.7,0.7 0.4,0 0.7,-0.3 0.7,-0.7 0,-0.1 0,-0.1 0,-0.2 0,0 0,-0.1 0,-0.1 0,0 0,0 0,0 0,0 0,-0.1 0,-0.1 v 0 0 c 0,0 0,0 0,0 0.1,0 0.1,-0.1 0.2,-0.1 h 0.1 v 0 0 c 0.1,0 0.2,-0.1 0.2,-0.1 0.6,-0.2 1.3,-0.4 1.9,-0.5 1.4,0.4 2.8,0.8 4.2,1.1 0,0 0,0.1 0,0.1 v 0 c 0,0.1 -0.1,0.2 -0.1,0.2 0,0 -0.1,0.1 -0.1,0.1 v 0 c -0.1,0.1 -0.2,0.3 -0.4,0.4 h -0.1 c 0,0 -0.1,0.1 -0.1,0.1 -0.1,0 -0.2,0.1 -0.2,0.1 0,0 -0.1,0 -0.1,0.1 0,0 0,0 0,0 v 0 c -0.1,0 -0.2,0.1 -0.3,0.1 -0.2,0.1 -0.4,0.1 -0.6,0.1 0,0 -0.1,0 -0.1,0 0,0 0,0 0,0 h -0.1 c -0.1,0 -0.2,0 -0.3,0 -0.2,0 -0.5,0 -0.7,0.1 -0.4,0 -0.7,0.3 -0.7,0.7 0,0.4 0.3,0.7 0.7,0.7 1.1,0 2.1,-0.2 3.1,-0.7 0.8,-0.4 1.4,-1.1 1.6,-2 0.9,0.2 1.8,0.3 2.7,0.4 1.5,2.2 3.1,4.3 4.7,6.3 -2.4,-0.6 -4.6,-1.5 -6.6,-2.8 -0.7,-0.5 -1.4,0.7 -0.7,1.2 1.4,0.9 2.9,1.6 4.5,2.2 -1.6,0.7 -3.3,0.8 -4.9,0.2 -0.2,-1 -0.7,-1.9 -1.4,-2.6 -0.3,-0.3 -0.7,-0.3 -1,0 -0.3,0.3 -0.3,0.7 0,1 0.1,0.2 0.3,0.3 0.4,0.5 v 0 0 c 0,0 0.1,0.1 0.1,0.1 0.1,0.1 0.1,0.2 0.2,0.3 0.1,0.1 0.1,0.2 0.1,0.3 0,0 0,0.1 0.1,0.1 v 0 c 0.1,0.2 0.1,0.3 0.1,0.5 v 0 c -0.1,0 -0.2,0 -0.3,0.1 h -0.1 c 0,0 -0.1,0 -0.1,0 -0.3,0 -0.6,0 -0.9,-0.1 -0.7,-0.3 -1.3,-0.6 -1.8,-1.1 -0.3,-0.3 -0.7,-0.3 -1,0 -0.3,0.3 -0.3,0.7 0,1 0.7,0.6 1.6,1.1 2.5,1.5 0.8,0.2 1.7,0.2 2.4,-0.2 0,0 0,0 0.1,0 2.3,0.9 4.8,0.6 6.9,-0.7 0.1,-0.1 0.2,-0.2 0.2,-0.3 0.8,0.2 1.7,0.4 2.5,0.6 2.3,2.7 4.7,5.3 7.3,7.7 -1.3,0.2 -2.6,0.2 -3.9,0 0.1,-1 -0.1,-2 -0.7,-2.9 -0.6,-1 -1.4,-1.8 -2.3,-2.5 -0.3,-0.3 -0.7,-0.3 -1,0 -0.3,0.3 -0.3,0.7 0,1 0.8,0.6 1.5,1.3 2,2.1 0.2,0.4 0.4,0.8 0.5,1.2 0.1,0.3 0.1,0.6 0.1,0.9 -1.5,-0.4 -2.9,-1 -4.1,-1.8 -0.7,-0.5 -1.4,0.7 -0.7,1.2 3.3,2.2 7.4,2.9 11.3,2.1 1.6,1.5 3.2,2.9 4.9,4.3 0,0.8 0,1.6 0,2.4 -0.1,-0.1 -0.3,-0.1 -0.4,-0.2 -0.4,-0.2 -0.7,-0.4 -1,-0.7 0,0 -0.1,-0.1 -0.1,-0.1 v 0 0 c -0.1,-0.1 -0.2,-0.1 -0.2,-0.2 -0.2,-0.1 -0.3,-0.3 -0.5,-0.4 -0.3,-0.3 -0.6,-0.6 -0.8,-0.9 -0.3,-0.3 -0.7,-0.3 -1,0 -0.3,0.3 -0.3,0.7 0,1 1.1,1.3 2.5,2.3 4,3 -0.1,4.7 -0.2,9.4 -0.5,14 -0.2,3.6 -0.5,7.5 -0.8,11.1 -0.1,0.9 3.4,0.9 3.5,0 0.7,-9.1 -0.4,-19 -0.3,-28.2 1.5,-0.2 2.8,-0.9 3.9,-2 v 0 c 1.4,0.8 3.1,1.3 4.7,1.2 0.4,0 0.7,-0.3 0.7,-0.7 0,-0.4 -0.3,-0.7 -0.7,-0.7 -1.2,0 -2.5,-0.2 -3.6,-0.8 0.1,-0.1 0.2,-0.1 0.2,-0.2 0,0 0,0 0.1,0 1.8,0.6 3.9,0.3 5.4,-1 0.3,-0.3 0.3,-0.7 0,-1 -0.3,-0.3 -0.7,-0.3 -1,0 0,0 -0.1,0.1 0,0 0,0 -0.1,0.1 -0.1,0.1 -0.1,0.1 -0.2,0.1 -0.2,0.2 -0.2,0.1 -0.3,0.2 -0.5,0.3 0,0 -0.1,0 0,0 0,0 -0.1,0 -0.1,0.1 -0.1,0 -0.2,0.1 -0.3,0.1 -0.2,0.1 -0.4,0.1 -0.6,0.1 0,0 -0.1,0 -0.1,0 0.1,0 -0.1,0 -0.1,0 -0.1,0 -0.2,0 -0.3,0 -0.2,0 -0.4,0 -0.6,0 0,0 -0.1,0 -0.1,0 v 0 0 h -0.1 c 0.6,-0.6 1.2,-1.1 1.8,-1.7 0.6,-0.6 -0.4,-1.6 -1,-1 -0.7,0.7 -1.4,1.3 -2.1,2 0.1,-0.3 0.1,-0.6 0.2,-0.9 0.2,-0.7 0.5,-1.4 0.9,-2 0.2,-0.3 0.1,-0.7 -0.2,-0.9 -0.3,-0.2 -0.7,-0.1 -0.9,0.2 0,0 0,0 0,0 -0.8,1.5 -1.3,3.2 -1.5,4.9 0,0 0,0 0,0.1 -0.1,0.1 -0.3,0.2 -0.4,0.3 -0.7,0.5 -1.4,1 -2.1,1.5 -0.4,0.3 -0.9,0.5 -1.4,0.6 0,0 0,0 -0.1,-0.1 0,-1 0,-2.1 0,-3.1 2,-2 3.8,-4.1 5.5,-6.4 1.6,-0.4 3.2,-1 4.7,-1.6 1.5,0.6 3.2,1 4.900001,1 2.3,1.3 5,1.6 7.6,0.8 0.4,-0.1 0.6,-0.5 0.4,-0.9 -0.1,-0.3 -0.5,-0.5 -0.8,-0.5 -1.3,0.4 -2.7,0.4 -4.1,0.2 1,-0.2 2,-0.6 3,-1.1 0.8,-0.4 0.1,-1.6 -0.7,-1.2 -2.7,1.3 -5.7,1.6 -8.600001,0.7 2.600001,-1.3 5.100001,-2.8 7.300001,-4.7 1.8,0.1 3.5,1 4.7,2.3 0.3,0.3 0.7,0.3 1,0 0.3,-0.3 0.3,-0.7 0,-1 -0.8,-0.7 -1.7,-1.4 -2.6,-2 0.9,-0.2 1.8,-0.4 2.6,-0.6 0.5,0.2 0.9,0.5 1.4,0.8 0.4,0.3 0.9,0.7 1.2,1.1 0.7,0.8 1.3,1.8 1.7,2.8 0.1,0.4 0.5,0.6 0.8,0.5 0.4,-0.1 0.6,-0.5 0.5,-0.8 -0.7,-2 -2,-3.7 -3.7,-4.8 1,-0.3 1.9,-0.7 2.9,-1 1.8,0.3 3.5,1.3 4.7,2.6 0.3,0.3 0.7,0.3 1,0 0.3,-0.3 0.3,-0.7 0,-1 -1,-1.2 -2.3,-2 -3.8,-2.5 0.5,-0.2 1,-0.5 1.5,-0.7 0.8,0 1.6,-0.2 2.5,-0.4 0,0 0.1,0 0,0 v 0 0 c 0,0 0.1,0 0.1,0 0.1,0 0.1,0 0.2,0.1 0,0 0.1,0 0.1,0 v 0 c 0.1,0 0.1,0.1 0.2,0.1 0.1,0 0.1,0.1 0.2,0.1 0,0 0.1,0 0.1,0.1 v 0 c 0,0 0.6,0.6 0.6,0.6 0,0.1 0.1,0.1 0.1,0.2 l 0.1,0.1 c 0.1,0.1 0.2,0.2 0.3,0.4 0.2,0.3 0.6,0.4 0.9,0.2 0.3,-0.2 0.4,-0.6 0.2,-0.9 -0.4,-0.5 -0.8,-1 -1.3,-1.5 0.6,-0.2 1.3,-0.2 1.9,0.1 0,0 0.1,0.1 0.1,0.1 0.1,0 0.2,0.1 0.2,0.1 0.2,0.1 0.3,0.2 0.4,0.3 0,0 0.1,0 0.1,0.1 0,0 0,0 0,0 0.1,0.1 0.1,0.1 0.2,0.2 0.1,0.1 0.1,0.1 0.2,0.2 0,0 0.1,0.1 0.1,0.1 0.1,0.1 0.1,0.1 0,0 0.2,0.3 0.6,0.4 0.9,0.2 0.3,-0.2 0.4,-0.6 0.2,-0.9 -0.5,-0.7 -1.2,-1.3 -2.1,-1.6 0.3,0 0.7,0 1,0 0.1,0 0.1,0 0.2,0 0.1,0 0.1,0 0.2,0 0.2,0 0.3,0.1 0.5,0.1 0.2,0 0.3,0.1 0.5,0.2 0.1,0 0.1,0.1 0.2,0.1 -0.1,0 0.1,0.1 0.2,0.1 0.3,0.2 0.7,0.1 0.9,-0.2 0.2,-0.3 0.1,-0.7 -0.2,-0.9 -0.8,-0.4 -1.6,-0.6 -2.5,-0.6 0.6,-0.6 1.2,-1.3 1.6,-2 0.5,-0.7 -0.7,-1.4 -1.2,-0.7 -1.3,2 -3.3,3.5 -5.7,4.3 1.6,-2.2 2.8,-4.7 3.6,-7.4 0.1,-0.4 -0.1,-0.7 -0.5,-0.8 -0.4,-0.1 -0.7,0.1 -0.8,0.5 -0.7,2.4 -1.9,4.8 -3.3,6.8 0.1,-1.7 0,-3.4 -0.4,-5.1 -0.1,-0.4 -0.5,-0.6 -0.8,-0.5 -0.4,0.1 -0.6,0.5 -0.5,0.8 v 0 c 0.4,1.9 0.5,3.9 0.2,5.9 v 0 c -0.2,0.1 -0.3,0.2 -0.5,0.2 0,0 -0.1,0 -0.1,0 0,-0.1 0.1,-0.3 0.1,-0.4 0.1,-0.9 -0.2,-1.8 -0.8,-2.5 -0.3,-0.3 -0.7,-0.3 -1,0 -0.3,0.3 -0.3,0.7 0,1 v 0 c 0,0 0,0.1 0.1,0.1 0,0.1 0.1,0.1 0.1,0.2 0,0 0.1,0.1 0.1,0.2 0,0.1 0,0.1 0.1,0.2 0,0.1 0,0.2 0.1,0.2 0,0 0,0.1 0,0.1 v 0 c 0,0.2 0,0.3 0,0.5 0,0 0,0 0,0 0,0 0,0.1 0,0.1 0,0.1 0,0.2 -0.1,0.2 0,0.1 0,0.1 -0.1,0.2 0,0 -0.1,0.1 -0.1,0.2 0,0.1 -0.1,0.1 -0.1,0.2 0,0 -0.1,0.1 -0.1,0.1 -0.1,0.1 -0.2,0.2 -0.3,0.3 0,0 0,0 0,0.1 -0.3,0.1 -0.6,0.3 -1,0.4 h -0.1 c -0.1,-0.2 -0.1,-0.5 -0.2,-0.7 0,-0.1 0,-0.1 0,-0.2 0,-0.1 0,-0.1 0,-0.2 0,-0.2 0,-0.3 0,-0.5 0,-0.6 0.1,-1.2 0.3,-1.8 0.1,-0.4 -0.1,-0.7 -0.5,-0.8 -0.4,-0.1 -0.7,0.1 -0.8,0.5 -0.5,1.4 -0.4,2.9 0,4.4 -2.3,0.8 -4.6,1.5 -7,1.9 0.7,-0.6 1.3,-1.3 2,-2 0.6,-0.7 -0.4,-1.6 -1,-1 -1,1.1 -2,2.1 -3.2,3.1 0,-0.1 0,-0.2 0,-0.3 0,-0.2 0,-0.3 0,-0.5 0,0 0,-0.2 0,-0.1 0,-0.1 0,-0.2 0,-0.2 0.1,-0.6 0.3,-1.2 0.4,-1.8 0.1,-0.4 -0.1,-0.7 -0.5,-0.8 -0.4,-0.1 -0.7,0.1 -0.8,0.5 -0.3,1.1 -0.5,2.2 -0.6,3.3 -0.5,-1.5 -0.5,-3.1 0,-4.5 0.1,-0.4 -0.1,-0.7 -0.5,-0.8 -0.4,-0.1 -0.7,0.1 -0.8,0.5 -0.6,2.2 -0.4,4.6 0.6,6.7 -3.100001,2.3 -6.500001,4.1 -10.200001,5.3 1.1,-1.5 2.1,-3.1 3,-4.7 1.9,-0.1 3.7,-0.9 5.200001,-2.2 0.3,-0.3 0.3,-0.7 0,-1 -0.3,-0.3 -0.700001,-0.3 -1.000001,0 -0.9,0.9 -2.1,1.5 -3.4,1.7 1.2,-2.1 2.2,-4.3 3.2,-6.6 2.500001,-0.3 5.000001,-1 7.400001,-2 2.1,0.9 4.4,0.9 6.5,0.1 0.4,-0.1 0.6,-0.5 0.5,-0.8 -0.1,-0.4 -0.5,-0.6 -0.8,-0.5 -1.4,0.6 -2.9,0.7 -4.3,0.4 2.3,-1.2 4.4,-2.7 6.2,-4.6 2.4,-0.9 4.6,-2.1 6.5,-3.8 1.8,1.2 4.1,1.4 6.2,0.6 0.4,-0.1 0.6,-0.5 0.5,-0.8 -0.1,-0.4 -0.5,-0.6 -0.8,-0.5 -1.5,0.6 -3.3,0.5 -4.8,-0.3 1.2,-1.1 2.2,-2.4 3,-3.7 0,0 0.1,0 0.1,0 1.9,1.1 4.2,1.4 6.3,0.8 0.4,-0.1 0.6,-0.5 0.4,-0.9 -0.1,-0.3 -0.5,-0.5 -0.8,-0.5 -1.5,0.4 -3,0.3 -4.4,-0.2 0.6,-0.3 1.1,-0.7 1.6,-1.1 2.3,-0.3 4.3,-0.9 5.7,-2.3 z m -18,4.2 v 0 c -0.1,-0.1 -0.1,0 0,0 z m -17.000001,-22 z m 1.900001,-7.9 v 0 c 0,-0.1 0,-0.1 0,0 z m -16.200001,37 c 0,0.1 0,0.1 0,0 -0.2,4 -0.5,8 -0.6,12 -2,-5.3 -3.3,-10.8 -3.8,-16.5 1.2,1.7 2.7,3.2 4.4,4.5 z m -16.4,-16.4 c -0.2,-0.1 -0.4,-0.2 -0.5,-0.3 -0.1,0 -0.1,-0.1 -0.2,-0.1 v 0 c -0.1,-0.1 -0.2,-0.2 -0.3,-0.3 -0.3,-0.3 -0.7,-0.3 -1,0 -0.3,0.3 -0.3,0.7 0,1 0.8,0.7 1.8,1.2 2.9,1.4 -0.4,2.7 -0.8,5.3 -1.3,8 -0.2,-0.3 -0.4,-0.6 -0.6,-0.8 -0.7,-0.9 -1.6,-1.5 -2.6,-1.9 -0.4,-0.1 -0.7,0.1 -0.8,0.5 -0.1,0.4 0.1,0.7 0.5,0.8 0.1,0 0.1,0 0.2,0.1 0,0 0.1,0 0.1,0 0.1,0 0.2,0.1 0.2,0.1 0.2,0.1 0.4,0.2 0.5,0.4 l 0.1,0.1 c 0,0 0.1,0.1 0.1,0.1 0.1,0.1 0.2,0.1 0.2,0.2 0.2,0.2 0.3,0.4 0.5,0.6 0,0.1 0,-0.1 0,0 0,0.1 0.1,0.1 0.1,0.2 0.1,0.1 0.1,0.2 0.2,0.3 0.1,0.2 0.2,0.4 0.4,0.6 0.1,0.1 0.1,0.2 0.2,0.3 v 0 0 c 0,0 0,0.1 0.1,0.1 0.1,0.2 0.1,0.4 0.2,0.6 v 0.1 c -0.2,1.1 -0.4,2.2 -0.6,3.2 -1.4,-2.1 -2.7,-4.2 -4,-6.4 -0.1,-1 0,-1.9 0.2,-2.9 0.1,-0.1 0.2,-0.1 0.3,-0.2 v 0 0 c 0.1,0 0.1,-0.1 0.2,-0.1 0.2,-0.1 0.4,-0.3 0.6,-0.4 0.2,-0.1 0.4,-0.2 0.7,-0.3 h 0.1 c 0.1,0 0.1,0 0.2,0 v 0 c 0,0 0.1,0 0.1,0 0.4,0.1 0.7,-0.1 0.8,-0.5 0.1,-0.4 -0.1,-0.7 -0.5,-0.8 -0.4,-0.1 -0.7,-0.1 -1.1,0 -0.3,0.1 -0.5,0.2 -0.8,0.4 0.9,-2.6 1.6,-5.4 2.1,-8.1 0.6,1.4 1.5,2.8 2.5,4 z m -9.6,15.3 c -0.4,-0.5 -0.8,-1.1 -1.1,-1.6 1,-2 1.3,-4.4 0.8,-6.6 -0.1,-0.4 -0.5,-0.6 -0.9,-0.4 -0.3,0.1 -0.5,0.5 -0.5,0.8 0.4,1.6 0.3,3.2 -0.3,4.7 -1.6,-3 -2.6,-6.3 -3,-9.7 1.9,1.7 4,3.2 6.3,4.4 0,0 0,0 0.1,0 0.3,0.6 0.6,1.1 0.9,1.7 0,0 -0.1,0 -0.1,0 -0.2,0 -0.4,0.1 -0.7,0.2 -0.2,0.1 -0.3,0.2 -0.4,0.3 -0.2,0.3 -0.1,0.7 0.2,0.9 0.2,0.1 0.3,0.1 0.5,0.1 0.2,-0.1 0.5,-0.1 0.7,-0.2 0.1,0 0.1,0 0.2,0 0,0 0.1,0 0.1,0 v 0 c 0,0 0,0 0.1,0.1 0,0 0,0 0,0 0.1,0.1 0.2,0.2 0.3,0.2 1.4,2.3 2.8,4.6 4.3,6.8 -1.3,-0.2 -2.6,-0.5 -3.9,-0.8 0.3,-1.6 -0.2,-3.1 -1.2,-4.3 -0.3,-0.3 -0.7,-0.3 -1,0 -0.3,0.3 -0.3,0.7 0,1 0,0 0.1,0.1 0.1,0.1 0,0.1 0.1,0.1 0.1,0.2 0.1,0.1 0.2,0.3 0.3,0.4 0,0.1 0.1,0.1 0.1,0.2 v 0 c 0,0 0,0.1 0,0.1 0.1,0.2 0.1,0.3 0.1,0.5 0,0.1 0.1,0.3 0.1,0.4 0,0 0,0.1 0,0.2 0,0.1 0,0.2 0,0.2 0,0.2 0,0.3 0,0.5 0,0 0,0.2 0,0.2 v 0 c -0.6,-0.1 -1.4,-0.3 -2.2,-0.6 z m 7.6,13 c 2.9,0.3 5.9,0.3 8.8,0.1 0.2,0.2 0.4,0.4 0.5,0.6 1.6,1.8 3.2,3.4 4.9,5.1 -0.5,0.2 -1.1,0.3 -1.6,0.4 -2.2,-0.5 -4,-1.9 -5.1,-3.8 -0.4,-0.8 -1.6,-0.1 -1.2,0.7 0.8,1.5 2,2.7 3.5,3.5 -1.6,0.1 -3.2,0.1 -4.8,-0.2 -1.7,-2.1 -3.4,-4.2 -5,-6.4 z m 15.1,7 c 0.1,0 0.2,-0.1 0.3,-0.2 0.7,0.7 1.5,1.4 2.2,2.1 0.1,3.4 0.1,6.8 0.1,10.2 -2,-1.7 -3.9,-3.4 -5.8,-5.2 v 0 c 0.5,-1.5 0.7,-3 0.4,-4.6 -0.1,-0.4 -0.5,-0.6 -0.8,-0.5 -0.4,0.1 -0.6,0.5 -0.5,0.8 0,0.1 0,0.1 0,0 0,0.1 0,0.1 0,0.2 0,0.1 0,0.2 0,0.2 0,0.2 0,0.4 0,0.5 0,0.3 0,0.7 0,1 0,0.2 0,0.2 -0.1,0.4 0,0.2 -0.1,0.3 -0.1,0.5 0,0.1 -0.1,0.2 -0.1,0.3 -1.6,-1.6 -3.1,-3.2 -4.6,-4.9 3.2,0.4 6.2,0 9,-0.8 z m 13.8,-4.8 c -0.3,-1.1 -0.4,-2.2 -0.4,-3.3 0,-0.4 -0.3,-0.7 -0.7,-0.7 -0.4,0 -0.7,0.3 -0.7,0.7 0,1.6 0.3,3.3 0.8,4.8 0,0 0,0.1 0.1,0.1 0,0 0,0 0,0.1 v 0 c -0.1,-0.1 -0.1,-0.1 -0.2,-0.2 0,0 -0.1,-0.1 -0.1,-0.1 v 0 c -0.2,-0.3 -0.4,-0.6 -0.6,-0.9 0,-0.1 -0.1,-0.2 -0.1,-0.2 0,0 0,-0.1 0,-0.1 v 0 c -0.1,-0.2 -0.1,-0.3 -0.2,-0.5 -0.1,-0.2 -0.1,-0.4 -0.1,-0.5 0,-0.1 0,-0.2 -0.1,-0.3 v 0 0 c 0,-0.1 0,-0.1 0,-0.2 0,-0.4 -0.3,-0.7 -0.7,-0.7 -0.4,0 -0.7,0.3 -0.7,0.7 0.2,1.6 0.9,3.2 2.1,4.3 -1.2,2 -2.5,3.9 -3.9,5.7 -0.5,-2.5 -0.4,-5 0.3,-7.4 0.1,-0.4 -0.1,-0.7 -0.5,-0.8 -0.4,-0.1 -0.7,0.1 -0.8,0.5 -0.9,3 -0.9,6.1 -0.1,9.1 0,0 0,0 0,0.1 -0.9,1.1 -1.9,2.2 -2.9,3.2 0,-4.1 0.1,-8.2 0.4,-12.3 1.4,-2.4 2.7,-4.8 3.9,-7.2 2.6,0.7 5.3,0.9 8,0.7 -0.9,1.7 -1.8,3.6 -2.8,5.4 z m 6.800001,-13 c 0.1,-0.4 -0.1,-0.7 -0.5,-0.8 -0.4,-0.1 -0.7,0.1 -0.8,0.5 -0.2,0.6 -0.4,1.2 -0.5,1.7 0,-0.1 -0.1,-0.3 -0.1,-0.4 -0.2,-0.6 -0.2,-1.3 -0.2,-1.9 0,-0.4 -0.300001,-0.7 -0.700001,-0.7 -0.4,0 -0.7,0.3 -0.7,0.7 0,1.5 0.4,3 1.1,4.4 -0.2,0.5 -0.4,1.1 -0.6,1.6 -0.1,-0.1 -0.2,-0.2 -0.3,-0.2 -0.2,-0.1 -0.3,-0.3 -0.4,-0.4 -0.1,-0.1 -0.1,-0.2 -0.2,-0.2 0,0 0,0 0,0 v -0.1 c 0,0 -0.1,-0.1 -0.1,-0.1 -0.1,-0.2 -0.2,-0.4 -0.3,-0.6 0,-0.1 -0.1,-0.2 -0.1,-0.3 0,0 0,-0.1 -0.1,-0.1 0,0.1 0,0 0,-0.1 -0.1,-0.2 -0.1,-0.4 -0.2,-0.6 0,-0.1 0,-0.2 -0.1,-0.3 0,0 0,-0.1 0,-0.1 v 0 c 0,0 0,0 0,0 0,-0.2 0,-0.4 0,-0.7 0,-0.4 -0.3,-0.7 -0.7,-0.7 -0.4,0 -0.7,0.3 -0.7,0.7 0,1.9 0.9,3.7 2.4,4.9 -2.5,0.2 -5,0 -7.4,-0.6 1.5,-3 2.9,-6 4.3,-9 2.3,0 4.4,-0.8 6.200001,-2.2 0.3,-0.3 0.3,-0.7 0,-1 -0.3,-0.3 -0.7,-0.3 -1,0 -1.000001,0.7 -2.100001,1.3 -3.200001,1.5 2.5,-2.4 4.700001,-5 6.800001,-7.8 0.3,1.3 0.7,2.7 1.2,3.9 v 0 c -0.2,0 -0.5,0 -0.7,0 v 0 c -0.1,0 -0.1,0 -0.2,0 -0.1,0 -0.2,-0.1 -0.4,-0.1 -0.1,0 -0.2,-0.1 -0.4,-0.1 v 0 0 c -0.1,0 -0.1,-0.1 -0.2,-0.1 -0.3,-0.2 -0.7,-0.1 -0.9,0.2 -0.2,0.3 -0.1,0.7 0.2,0.9 1,0.5 2.1,0.7 3.2,0.5 0.3,0.7 0.7,1.4 1.1,2 -0.5,1.6 -0.8,3.2 -1.1,4.9 0,-0.1 -0.1,-0.1 -0.2,-0.2 v -0.1 l -0.1,-0.1 c -0.1,-0.1 -0.1,-0.1 -0.2,-0.2 -0.1,-0.1 -0.2,-0.3 -0.3,-0.5 -0.1,-0.1 -0.2,-0.3 -0.2,-0.5 v 0 c 0,0 0,0 0,0 0,0 0,-0.1 0,-0.1 0,-0.1 -0.1,-0.2 -0.1,-0.3 -0.1,-0.3 -0.2,-0.7 -0.2,-1 -0.1,-0.4 -0.5,-0.6 -0.8,-0.5 -0.4,0.1 -0.6,0.5 -0.5,0.8 0.2,1.6 1,3 2.2,4.1 0.1,0 0.1,0.1 0.2,0.1 -0.2,1.2 -0.3,2.5 -0.3,3.7 -1.6,0.6 -3.3,1 -5,1.3 0.6,-1.8 1.2,-3.7 1.8,-5.7 z"
   id="path168" />
</svg>
