<?xml version="1.0" encoding="utf-8"?>
<!-- Generator: Adobe Illustrator 24.0.0, SVG Export Plug-In . SVG Version: 6.00 Build 0)  -->
<svg version="1.1" id="Layer_1" xmlns="http://www.w3.org/2000/svg" xmlns:xlink="http://www.w3.org/1999/xlink" x="0px" y="0px"
	 viewBox="0 0 918.3 159.1" style="enable-background:new 0 0 918.3 159.1;" xml:space="preserve">
<style type="text/css">
	.st0{fill:#2D2D2C;}
	.st1{fill:#1E1E1D;}
</style>
<title>artwork</title>
<g>
	<polygon class="st0" points="713.6,128.5 709,126.6 706.5,127.4 712.9,130.1 	"/>
	<polygon class="st0" points="639.9,88.3 644.5,125.6 658.8,129.8 	"/>
	<path class="st0" d="M702.8,122.7c0.3,0.1,0.7,0.2,1,0.2c0.3,0,0.6,0,0.9-0.1c0.5-0.2,1-0.5,1.2-1.1l0,0c0.3-0.8,0.3-1.7-0.1-2.5
		l-0.1-0.3c-0.1-0.2-0.1-0.3-0.2-0.5c-0.7-1.7-1.2-3.5-1.6-5.3c-1.3,2.2-2.3,4.5-2.9,6.9c0,0.1,0,0.1,0,0.2c0,0.4,0.1,0.8,0.3,1.1
		C701.6,122,702.1,122.5,702.8,122.7z"/>
	<path class="st0" d="M693.9,129.3l19.9-6.4l-0.5-1.7l-5.7,1.8c0,0-0.1,0-0.1,0.1c-0.2,0.3-0.5,0.6-0.8,0.9c-0.1,0-0.1,0.1-0.2,0.1
		c-0.3,0.3-0.7,0.5-1.1,0.6c-0.2,0.1-0.5,0.1-0.7,0.2c-0.1,0-0.3,0-0.4,0c-0.1,0-0.2,0-0.4,0l0,0c-0.1,0-0.1,0-0.2,0
		c-0.2,0-0.4,0-0.7-0.1c-0.1,0-0.2-0.1-0.3-0.1c-0.1,0-0.2,0-0.4-0.1l0,0l-8.9,2.9L693.9,129.3z"/>
	<path class="st0" d="M693.6,122l4.5,1.9l2-0.6c0,0-0.1-0.1-0.1-0.1c-0.1-0.1-0.1-0.2-0.2-0.3c0-0.1-0.1-0.1-0.1-0.2l-5.4-2.3
		L693.6,122z"/>
	<polygon class="st0" points="638.7,87.4 613.6,116.5 628,120.7 	"/>
	<path class="st0" d="M661.6,131c0,0,0,0.1,0,0.1l29.7-8.6c0-0.2,0-0.3,0.1-0.5l0.1-0.3l1.3-3.2c0.1-0.2,0.3-0.4,0.5-0.5
		c0.2-0.1,0.5-0.1,0.8,0l4.9,2c0-0.1,0-0.2,0-0.2c0.2-2.5,3.9-9.1,4.6-10.4c0.3-0.5,0.9-0.7,1.4-0.4c0.3,0.2,0.5,0.5,0.5,0.8
		c0.3,2.7,0.9,5.4,1.9,7.9c0,0,0,0,0,0.1l7.6-2.2l-21.2-42.5l-53.4,11.4L661.6,131z M673.9,86.9c0.1-0.3,0.4-0.5,0.7-0.6l14.4-2.4
		c0.5-0.1,0.9,0.2,1.1,0.6l3.2,7.4c0.2,0.5,0,1.1-0.5,1.3c-0.1,0-0.1,0-0.2,0.1L679.3,96c-0.1,0-0.1,0-0.2,0c-0.4,0-0.7-0.2-0.9-0.5
		l-4.4-7.8C673.7,87.5,673.7,87.2,673.9,86.9z"/>
</g>
<g>
	<path d="M326.6,106.7c-2.6,1.5-5,3.8-7.1,7.9l0.8,0.4c1.4-2.8,3-4.7,4.7-6c-1.6,2.5-2.9,5.1-3.6,7.9l0.9,0.2c0.9-3.5,2.7-6.7,5-9.8
		L326.6,106.7z M314.6,107.1l-0.7,0.6c1.9,2.6,3.4,4.5,3.4,7l0.9,0c0-1.8-0.8-3.3-1.7-4.8c0.9,0.8,1.7,1.6,2.1,2.7l0.9-0.3
		C318.5,109.8,316.4,108.7,314.6,107.1z M329.7,113.4c-0.8,0-1.5,0.3-2.2,0.8c-1.7,1.2-2.8,3.3-3.4,4.6l0.9,0.4
		c0.5-1.3,1.6-3.2,3-4.2c0.7-0.5,1.5-0.7,2.3-0.6c0.5,0.1,1,0.3,1.5,0.6c-0.7,0-1.3,0-2,0.3c-1.5,0.7-2.9,2.3-3.8,5.5l0.9,0.3
		c0.9-3,2.1-4.3,3.3-4.9c1.2-0.5,2.4-0.3,3.3,0.2l0.5-0.7c-1.3-1.3-2.5-2-3.6-2.2C330.2,113.4,329.9,113.3,329.7,113.4z
		 M315.2,115.2l-0.4,0.9c3.9,2.3,5.3,4.3,6,6.8l0.9-0.3c-0.6-2-1.6-3.7-3.7-5.4c3.9,1.6,6.8,4.1,8,8.6l0.9-0.2
		C325.4,119.4,320.8,116.6,315.2,115.2z M300.6,116.4c0,0-0.2,0-0.2,0s-0.2,0.1-0.2,0.1c0,0-0.1,0.1-0.1,0.1c0,0,0,0.1,0,0.1l0,0.2
		l0.1,0.2c0,0,0,0,0,0c0,0,0,0,0,0.1c0.1,0.1,0.1,0.3,0.2,0.6c0.2,0.6,0.5,1.4,0.8,2.4c0.6,2,1.2,4.9,1.2,7.8l0.9,0
		c-0.1-3-0.7-5.9-1.3-8c0,0,0,0,0,0c0.9,1.4,1.6,2.6,2.1,3.6l0.8-0.4c-0.8-1.8-2.2-4-4.1-6.6c0,0,0,0,0,0c0,0,0,0-0.1-0.1
		c0,0,0,0-0.1-0.1c0,0,0,0-0.1,0C300.7,116.4,300.6,116.4,300.6,116.4z M331.3,117l-1.2,1.1c-2.1,1.8-2.6,2.9-3.5,5l0.9,0.4
		c0.7-1.5,1.2-2.4,2.1-3.3c-1.3,4.8-0.8,6.9-1.3,10.5l0.9,0.1c0.6-4.2-0.2-6,1.7-12.2L331.3,117z M312.1,117.8c-0.2,0-0.4,0-0.7,0
		l-0.9,0.1l0.7,0.7c2.2,2.2,3.1,4.3,3.5,6.2c0.3,2,0,3.9-0.4,5.8l0.9,0.2c0.4-2,0.8-4,0.4-6.1c-0.3-1.9-1.3-3.9-3-5.9
		c1,0.2,2,0.8,3,2.1l0.7-0.6C315.1,118.8,313.7,117.9,312.1,117.8z M317.4,118.4l-0.7,0.6c2.6,2.7,2.5,5.6,2.6,8.1l0.9,0
		C320.2,124.6,320.3,121.3,317.4,118.4z M308.8,119.3c0,0-2.4,2.2-3.8,6.1l0.9,0.3c0.5-1.2,1-2.2,1.6-3.1c-0.4,1.5-0.5,2.8-0.4,4.2
		l0.9,0c-0.1-2.2-0.1-3.7,1.6-6.9L308.8,119.3z M316.7,120.3l-0.7,1.4l0.8,0.4l0.7-1.4L316.7,120.3z M311.8,122l-0.8,0.4
		c0.7,2.9,1.1,5.7,0.7,8.3l0.9,0.2c0.4-2.2,0.1-4.4-0.3-6.7c0.3,0.6,0.6,1.5,0.9,3l0.9-0.2C313.5,124.1,313,123.4,311.8,122z
		 M296.9,122.2l-0.5,0.8c0,0,2.8,2.7,3.2,8l0.9-0.1c-0.3-3.5-1.5-5.8-2.4-7.2c0.9,0.4,1.8,1,2.8,2.2l0.7-0.6
		C299.9,123.2,298.4,122.7,296.9,122.2z M309.8,123.2c-0.2,1.1-0.4,2-0.7,2.8l-0.7-0.1c-0.2,1-0.1,1.7-0.1,2.3l0.2,1.8l0.7-1.6
		c0.2-0.5,0.5-1.1,0.7-1.7c0.1,1.8,0.4,3.4,0.8,4.6l0.9-0.3c-0.6-1.8-1-4-0.8-7.5L309.8,123.2z M323.6,126l-0.2,0.9
		c-0.4,1.6-0.8,3.3-1.3,4.1l0.8,0.5c0.5-0.8,0.8-1.9,1.1-3c0.3,1.2,0.4,2.8,0.4,4.6l0.9,0c0-2.5,0-4.9-1.1-6.3L323.6,126z
		 M304.5,127.9l-0.1,1.3c0,0.8-0.1,1.5-0.3,2c-0.2,0.5-0.4,0.8-0.6,1l0.5,0.8c0.5-0.3,0.8-0.8,1-1.5c0.1-0.3,0.1-0.7,0.1-1l0.2,0.3
		l0.8-0.6L304.5,127.9z M318.2,128.5c-0.6,1.5-1.6,2.6-1.7,5.7l0.9,0c0.1-1.8,0.4-2.8,0.8-3.6l0.1,1.6l0.9,0l-0.2-3.5L318.2,128.5z"
		/>
</g>
<g>
	<path d="M274,106.2c1.6,2.2,2.9,4.4,3.5,6.9l0.6-0.2c-0.5-2-1.4-3.9-2.6-5.6c1.2,1,2.3,2.3,3.3,4.3l0.6-0.3
		c-1.5-2.9-3.2-4.6-5.1-5.6L274,106.2z M279.4,109.7l0.6,0.2c0.3-0.8,0.9-1.4,1.5-1.9c-0.7,1.1-1.2,2.1-1.2,3.4l0.7,0
		c0-1.8,1.1-3.1,2.4-5l-0.5-0.4C281.7,107.2,280.1,107.9,279.4,109.7z M271.6,110.5c-0.8,0.1-1.7,0.6-2.5,1.6l0.4,0.5
		c0.6-0.3,1.5-0.5,2.4-0.1s1.7,1.3,2.3,3.5l0.6-0.2c-0.7-2.2-1.6-3.4-2.7-3.9c-0.5-0.2-1-0.3-1.4-0.2c0.4-0.2,0.8-0.4,1.1-0.5
		c0.6-0.1,1.2,0.1,1.7,0.4c1,0.7,1.8,2.1,2.1,3l0.6-0.3c-0.4-1-1.2-2.4-2.4-3.3c-0.5-0.3-1-0.5-1.5-0.6
		C272,110.4,271.8,110.5,271.6,110.5z M274.1,119l0.6,0.2c0.9-3.2,2.9-5,5.7-6.1c-1.5,1.2-2.2,2.4-2.6,3.8l0.6,0.2
		c0.5-1.8,1.5-3.1,4.3-4.8l-0.3-0.6C278.5,112.8,275.3,114.8,274.1,119z M292.7,112.6C292.7,112.7,292.7,112.7,292.7,112.6
		c-0.1,0.1-0.1,0.1-0.1,0.1c0,0,0,0.1-0.1,0.1c0,0,0,0,0,0c-1.3,1.9-2.3,3.4-2.9,4.7l0.6,0.3c0.3-0.7,0.9-1.6,1.5-2.6c0,0,0,0,0,0
		c-0.4,1.5-0.8,3.5-0.9,5.7l0.7,0c0.1-2.1,0.5-4.1,0.9-5.5c0.2-0.7,0.4-1.3,0.5-1.7c0.1-0.2,0.1-0.4,0.2-0.4c0,0,0,0,0-0.1
		c0,0,0,0,0,0l0.1-0.1l0-0.1c0,0,0,0,0-0.1c0,0-0.1-0.1-0.1-0.1c0,0-0.1-0.1-0.1-0.1c0,0-0.2,0-0.2,0
		C292.8,112.6,292.8,112.6,292.7,112.6z M271.4,114.2c1.4,4.4,0.8,5.7,1.2,8.6l0.7-0.1c-0.3-2.6,0-4.1-0.9-7.5
		c0.6,0.7,1,1.3,1.5,2.4l0.6-0.3c-0.7-1.5-1-2.3-2.5-3.5l-0.9-0.8L271.4,114.2z M281.7,115.4l0.5,0.4c0.7-0.9,1.4-1.3,2.1-1.5
		c-1.3,1.4-1.9,2.8-2.2,4.2c-0.3,1.5,0,3,0.3,4.4l0.6-0.1c-0.3-1.4-0.5-2.7-0.3-4.1c0.2-1.4,0.9-2.8,2.5-4.4l0.5-0.5l-0.7-0.1
		c-0.2,0-0.3,0-0.5,0C283.6,113.7,282.6,114.3,281.7,115.4z M278.9,120.1l0.7,0c0.1-1.8,0-3.8,1.8-5.7l-0.5-0.5
		C278.9,116.1,279,118.4,278.9,120.1z M286.5,115.1c1.2,2.3,1.2,3.4,1.1,4.9l0.7,0c0-1,0-1.9-0.3-3c0.4,0.6,0.8,1.3,1.1,2.2l0.6-0.2
		c-1-2.7-2.7-4.3-2.7-4.3L286.5,115.1z M280.9,115.7l0.5,1l0.6-0.3l-0.5-1L280.9,115.7z M283.3,120.2l0.7,0.1
		c0.2-1.1,0.4-1.7,0.6-2.1c-0.3,1.6-0.5,3.2-0.2,4.7l0.7-0.1c-0.3-1.9,0-3.9,0.5-5.9l-0.6-0.3C284.1,117.6,283.7,118.1,283.3,120.2z
		 M292.1,119l0.5,0.4c0.8-0.9,1.4-1.3,2-1.6c-0.7,1-1.5,2.6-1.7,5.1l0.7,0.1c0.3-3.8,2.3-5.7,2.3-5.7l-0.3-0.6
		C294.4,117.1,293.3,117.4,292.1,119z M285.7,117.5c0.1,2.5-0.2,4.1-0.6,5.3l0.6,0.2c0.3-0.9,0.4-2,0.5-3.3c0.2,0.4,0.3,0.9,0.5,1.2
		l0.5,1.2l0.1-1.3c0-0.4,0.1-0.9-0.1-1.6l-0.5,0.1c-0.2-0.6-0.4-1.2-0.5-2L285.7,117.5z M276.1,120c-0.8,1-0.8,2.7-0.8,4.5l0.7,0
		c0-1.3,0.1-2.4,0.3-3.3c0.2,0.8,0.4,1.6,0.8,2.2l0.6-0.4c-0.4-0.6-0.7-1.8-1-2.9l-0.2-0.7L276.1,120z M288.9,122.4l0.5,0.4l0.2-0.2
		c0,0.2,0,0.5,0.1,0.7c0.1,0.4,0.3,0.8,0.7,1l0.4-0.6c-0.2-0.1-0.3-0.3-0.4-0.7c-0.1-0.4-0.2-0.8-0.2-1.4l0-1L288.9,122.4z
		 M279.7,121.3l-0.1,2.5l0.7,0l0.1-1.1c0.3,0.6,0.5,1.3,0.6,2.6l0.7,0c-0.1-2.2-0.8-3-1.2-4L279.7,121.3z"/>
</g>
<g>
	<path d="M230.4,113.7c-1.8,1-3.6,2.7-5.1,5.6l0.6,0.3c1-2,2.1-3.3,3.3-4.3c-1.2,1.8-2.1,3.6-2.6,5.6l0.6,0.2
		c0.6-2.5,1.9-4.8,3.5-6.9L230.4,113.7z M222,114.1l-0.5,0.4c1.3,1.8,2.4,3.2,2.4,5l0.7,0c0-1.3-0.5-2.4-1.2-3.4
		c0.6,0.5,1.2,1.1,1.5,1.9l0.6-0.2C224.7,115.9,223.2,115.2,222,114.1z M232.6,118.5c-0.6,0-1.1,0.2-1.5,0.6c-1.2,0.8-2,2.3-2.4,3.3
		l0.6,0.3c0.4-0.9,1.2-2.3,2.1-3c0.5-0.3,1-0.5,1.7-0.4c0.3,0.1,0.7,0.2,1.1,0.5c-0.5,0-1,0-1.4,0.2c-1.1,0.5-2.1,1.6-2.7,3.9
		l0.6,0.2c0.6-2.1,1.5-3.1,2.3-3.5s1.7-0.2,2.4,0.1l0.4-0.5c-0.9-0.9-1.7-1.4-2.5-1.6C233,118.5,232.8,118.4,232.6,118.5z
		 M222.4,119.7l-0.3,0.6c2.8,1.7,3.7,3,4.3,4.8l0.6-0.2c-0.4-1.4-1.2-2.6-2.6-3.8c2.8,1.1,4.8,2.9,5.7,6.1l0.6-0.2
		C229.6,122.8,226.4,120.8,222.4,119.7z M212,120.6c0,0-0.2,0-0.2,0s-0.1,0.1-0.1,0.1s0,0.1-0.1,0.1c0,0,0,0,0,0.1l0,0.1l0.1,0.1
		c0,0,0,0,0,0c0,0,0,0,0,0.1c0,0.1,0.1,0.2,0.2,0.4c0.1,0.4,0.3,1,0.5,1.7c0.4,1.5,0.8,3.4,0.9,5.5l0.7,0c-0.1-2.1-0.5-4.2-0.9-5.7
		c0,0,0,0,0,0c0.6,1,1.2,1.9,1.5,2.6l0.6-0.3c-0.6-1.3-1.6-2.8-2.9-4.7c0,0,0,0,0,0c0,0,0,0-0.1-0.1c0,0,0,0,0,0c0,0,0,0-0.1,0
		C212.1,120.6,212,120.6,212,120.6z M233.8,121l-0.9,0.8c-1.5,1.3-1.8,2.1-2.5,3.5l0.6,0.3c0.5-1,0.9-1.7,1.5-2.4
		c-0.9,3.4-0.6,4.9-0.9,7.5l0.7,0.1c0.4-3-0.2-4.3,1.2-8.6L233.8,121z M220.2,121.6c-0.2,0-0.3,0-0.5,0l-0.7,0.1l0.5,0.5
		c1.6,1.6,2.2,3,2.5,4.4s0,2.7-0.3,4.1l0.6,0.1c0.3-1.4,0.5-2.8,0.3-4.4c-0.2-1.3-0.9-2.7-2.2-4.2c0.7,0.1,1.4,0.6,2.1,1.5l0.5-0.4
		C222.3,122.3,221.3,121.7,220.2,121.6z M224,122l-0.5,0.5c1.8,1.9,1.8,4,1.8,5.7l0.7,0C225.9,126.4,226,124.1,224,122z
		 M217.9,122.7c0,0-1.7,1.6-2.7,4.3l0.6,0.2c0.3-0.9,0.7-1.6,1.1-2.2c-0.3,1.1-0.3,2-0.3,3l0.7,0c-0.1-1.6-0.1-2.6,1.1-4.9
		L217.9,122.7z M223.4,123.4l-0.5,1l0.6,0.3l0.5-1L223.4,123.4z M220,124.6l-0.6,0.3c0.5,2.1,0.8,4.1,0.5,5.9l0.7,0.1
		c0.3-1.5,0.1-3.1-0.2-4.7c0.2,0.5,0.4,1,0.6,2.1l0.7-0.1C221.2,126.1,220.8,125.6,220,124.6z M209.4,124.7l-0.3,0.6
		c0,0,2,1.9,2.3,5.7l0.7-0.1c-0.2-2.5-1.1-4.1-1.7-5.1c0.6,0.3,1.2,0.7,2,1.6l0.5-0.4C211.5,125.4,210.4,125.1,209.4,124.7z
		 M218.5,125.5c-0.1,0.8-0.3,1.4-0.5,2l-0.5-0.1c-0.1,0.7-0.1,1.2-0.1,1.6l0.1,1.3l0.5-1.2c0.2-0.4,0.3-0.8,0.5-1.2
		c0.1,1.3,0.3,2.4,0.5,3.3l0.6-0.2c-0.4-1.2-0.7-2.8-0.6-5.3L218.5,125.5z M228.4,127.4l-0.2,0.7c-0.3,1.1-0.6,2.3-1,2.9l0.6,0.4
		c0.4-0.6,0.6-1.3,0.8-2.2c0.2,0.8,0.3,2,0.3,3.3l0.7,0c0-1.8,0-3.5-0.8-4.5L228.4,127.4z M214.8,128.8l0,1c0,0.6-0.1,1-0.2,1.4
		c-0.1,0.4-0.3,0.6-0.4,0.7l0.4,0.6c0.3-0.2,0.5-0.6,0.7-1c0.1-0.2,0.1-0.5,0.1-0.7l0.2,0.2l0.5-0.4L214.8,128.8z M224.5,129.2
		c-0.4,1.1-1.1,1.8-1.2,4l0.7,0c0-1.3,0.3-2,0.6-2.6l0.1,1.1l0.7,0l-0.1-2.5L224.5,129.2z"/>
</g>
<g>
	<path d="M552.4,105.8c2.1,2.3,3.7,4.6,4.5,7.2l0.8-0.2c-0.6-2.1-1.8-4-3.3-5.9c1.5,1,2.9,2.4,4.2,4.5l0.8-0.3
		c-1.9-3.1-4.1-4.8-6.5-5.9L552.4,105.8z M559.3,109.5l0.8,0.3c0.4-0.9,1.1-1.5,1.9-2c-0.9,1.1-1.6,2.2-1.6,3.6l0.8,0
		c0-1.8,1.4-3.3,3.1-5.2l-0.6-0.5C562.1,106.8,560.2,107.6,559.3,109.5z M549.3,110.3c-1,0.1-2.1,0.7-3.2,1.6l0.5,0.5
		c0.8-0.3,1.9-0.5,3-0.1c1.1,0.4,2.2,1.4,3,3.6l0.8-0.2c-0.8-2.3-2.1-3.6-3.5-4c-0.6-0.2-1.2-0.3-1.8-0.3c0.5-0.3,1-0.4,1.4-0.5
		c0.8-0.1,1.5,0.1,2.1,0.4c1.3,0.7,2.2,2.2,2.7,3.1l0.8-0.3c-0.5-1-1.5-2.5-3-3.4c-0.6-0.3-1.2-0.5-2-0.6
		C549.9,110.2,549.6,110.2,549.3,110.3z M552.5,119.2l0.8,0.2c1.1-3.3,3.7-5.2,7.3-6.3c-1.9,1.3-2.8,2.6-3.4,4l0.8,0.2
		c0.6-1.8,1.9-3.3,5.4-5l-0.3-0.6C558.1,112.6,554,114.7,552.5,119.2z M576.2,112.5C576.2,112.5,576.2,112.5,576.2,112.5
		c-0.1,0.1-0.1,0.1-0.1,0.1c-0.1,0-0.1,0.1-0.1,0.1c0,0,0,0,0,0c-1.7,1.9-3,3.6-3.7,4.9l0.8,0.3c0.4-0.8,1.1-1.7,1.9-2.7
		c0,0,0,0,0,0c-0.5,1.6-1.1,3.7-1.1,5.9l0.8,0c0.1-2.2,0.6-4.2,1.1-5.7c0.3-0.8,0.5-1.4,0.7-1.8c0.1-0.2,0.2-0.4,0.2-0.5
		c0,0,0,0,0-0.1c0,0,0,0,0,0l0.1-0.1l0-0.1c0,0,0,0,0-0.1s-0.1-0.1-0.1-0.1c0,0-0.2-0.1-0.2-0.1c0,0-0.2,0-0.2,0
		C576.4,112.5,576.3,112.5,576.2,112.5z M549.1,114.1c1.8,4.6,1,5.9,1.6,9l0.8-0.1c-0.4-2.7,0-4.2-1.2-7.8c0.8,0.7,1.3,1.4,1.9,2.5
		l0.8-0.3c-0.9-1.5-1.3-2.4-3.2-3.7l-1.1-0.8L549.1,114.1z M562.2,115.4l0.7,0.4c0.9-0.9,1.8-1.4,2.7-1.5c-1.6,1.5-2.5,3-2.7,4.4
		c-0.3,1.6,0,3.1,0.3,4.6l0.8-0.1c-0.4-1.4-0.6-2.8-0.3-4.3s1.2-2.9,3.1-4.6l0.6-0.5l-0.8-0.1c-0.2,0-0.4,0-0.6,0
		C564.6,113.6,563.3,114.2,562.2,115.4z M558.6,120.4l0.8,0c0.1-1.8,0-3.9,2.4-6l-0.6-0.5C558.6,116.2,558.7,118.6,558.6,120.4z
		 M568.3,115c1.6,2.4,1.5,3.5,1.4,5.1l0.8,0c0-1,0-2-0.4-3.1c0.5,0.6,1,1.4,1.4,2.3l0.8-0.2c-1.3-2.9-3.5-4.5-3.5-4.5L568.3,115z
		 M561.1,115.7l0.7,1l0.7-0.3l-0.7-1L561.1,115.7z M564.2,120.4l0.8,0.1c0.3-1.2,0.5-1.8,0.8-2.2c-0.4,1.7-0.6,3.3-0.3,4.9l0.8-0.1
		c-0.4-1.9-0.1-4,0.6-6.2l-0.7-0.3C565.2,117.7,564.7,118.2,564.2,120.4z M575.4,119.1l0.6,0.4c1-0.9,1.8-1.3,2.5-1.6
		c-0.8,1-1.9,2.7-2.2,5.3l0.8,0.1c0.4-3.9,2.9-5.9,2.9-5.9l-0.4-0.6C578.4,117.1,577,117.5,575.4,119.1z M567.2,117.6
		c0.1,2.6-0.2,4.3-0.7,5.6l0.8,0.2c0.4-0.9,0.6-2.1,0.7-3.4c0.2,0.5,0.4,0.9,0.6,1.3l0.6,1.2l0.2-1.3c0.1-0.4,0.1-0.9-0.1-1.7
		l-0.6,0.1c-0.2-0.6-0.5-1.2-0.6-2.1L567.2,117.6z M555,120.2c-1,1-1,2.8-1,4.7l0.8,0c0-1.3,0.1-2.5,0.4-3.4c0.3,0.8,0.5,1.7,1,2.3
		l0.7-0.4c-0.5-0.6-0.8-1.8-1.2-3l-0.2-0.7L555,120.2z M571.3,122.7l0.7,0.4l0.2-0.2c0,0.3,0.1,0.5,0.1,0.8c0.2,0.5,0.4,0.8,0.9,1.1
		l0.5-0.6c-0.2-0.1-0.4-0.3-0.5-0.7c-0.1-0.4-0.2-0.9-0.3-1.5l0-1L571.3,122.7z M559.6,121.6l-0.1,2.6l0.8,0l0.1-1.2
		c0.4,0.6,0.7,1.4,0.7,2.7l0.8,0c-0.1-2.3-1-3.1-1.5-4.2L559.6,121.6z"/>
</g>
<path class="st1" d="M303,52.2c0.3-0.3,0.3-0.7,0-1c-0.3-0.3-0.7-0.3-1,0c-0.6,0.5-1.3,0.9-2,1.2c-0.3,0.1-0.5,0.1-0.8,0.2
	c1.8-1.8,3.1-4,3.9-6.3c0.3-0.8-1-1.2-1.3-0.4c-0.5,1.6-1.3,3.1-2.4,4.4c0-1.3,0-2.5,0.1-3.8c0-0.4-0.3-0.7-0.7-0.7
	c-0.4,0-0.7,0.3-0.7,0.7c-0.1,1.8-0.2,3.5-0.1,5.3c0,0,0,0,0,0c-0.8,0.7-1.6,1.4-2.5,2c0.3-0.7,0.6-1.4,0.9-2.2
	c0.3-0.8-1-1.2-1.3-0.4c-0.5,1.4-1.1,2.6-1.8,3.9l0,0c0-0.1-0.1-0.1-0.1-0.2c0,0,0,0,0,0c0-0.1-0.1-0.2-0.1-0.3c0-0.1,0-0.1,0-0.2
	l0-0.1l0,0c0-0.1,0-0.3,0-0.4c0-0.3,0-0.6,0-0.8c0-0.4-0.3-0.7-0.7-0.7c-0.4,0-0.7,0.3-0.7,0.7c-0.2,1.1,0.1,2.3,0.8,3.2
	c-0.6,0.9-1.3,1.7-2.1,2.4c-0.1-0.2-0.1-0.4-0.2-0.6c-0.1-0.2-0.1-0.4-0.1-0.5c0-0.1-0.1-0.3-0.1-0.4c0-0.4,0-0.7,0-1.1
	c0,0,0-0.1,0-0.1l0-0.1c0-0.1,0-0.2,0-0.2c0-0.2,0.1-0.4,0.2-0.6c0.1-0.4-0.1-0.7-0.5-0.8c-0.4-0.1-0.7,0.1-0.8,0.5c0,0,0,0,0,0
	c-0.5,1.7-0.3,3.4,0.4,5c-1.4,1.2-3,2.2-4.7,2.9c1.2-3.8,2.8-7.6,4.6-11.2c2.3-0.3,4.4-1.5,5.7-3.5c0.5-0.7-0.7-1.4-1.2-0.7
	c-0.9,1.3-2.2,2.3-3.7,2.7c0.1-0.2,0.2-0.4,0.3-0.6c0.5-0.8,1.1-1.5,1.7-2.1c1.7-1.4,3.7-2.3,5.9-2.6c0.4-0.1,0.6-0.5,0.4-0.9
	c-0.1-0.3-0.5-0.5-0.8-0.5c-1.7,0.4-3.3,0.9-4.9,1.8c0.3-0.5,0.7-1,1.1-1.5c0.8-0.8,1.7-1.6,2.6-2.2c0.7-0.5,0-1.7-0.7-1.2
	c-1,0.7-1.9,1.4-2.7,2.2c-0.7,0.8-1.4,1.7-2,2.7c-1.2,2-2.3,4-3.5,6c-0.1-2.3,0.3-4.6,1.3-6.8c0.2-0.3,0.1-0.7-0.2-0.9
	c-0.3-0.2-0.7-0.1-0.9,0.2c-0.6,1.4-1.1,2.9-1.3,4.5c-0.2-0.3-0.4-0.6-0.5-1c-0.2-0.9-0.2-1.9,0-2.8c0.1-0.4-0.1-0.7-0.5-0.8
	c-0.4-0.1-0.7,0.1-0.8,0.5c-0.3,1.2-0.2,2.5,0.1,3.7c0.3,0.9,0.8,1.7,1.6,2.3c0,1.2,0,2.4,0.3,3.6c0,0.1,0.1,0.2,0.1,0.3
	c-0.1,0.2-0.2,0.4-0.3,0.6c0,0-0.1-0.1-0.1-0.1c-0.1-0.1-0.1-0.3-0.2-0.4c0,0-0.1-0.1-0.1-0.2c0-0.1-0.1-0.1-0.1-0.2
	c-0.1-0.3-0.2-0.6-0.2-0.9c0-0.1,0-0.1,0-0.2l0-0.1l0,0c0-0.2,0-0.3,0-0.5c0-0.4-0.3-0.7-0.7-0.7s-0.7,0.3-0.7,0.7
	c0.1,1.5,0.5,2.9,1.4,4.1c0,0,0.1,0.1,0.1,0.1c-0.1,0.3-0.2,0.6-0.4,0.9c-0.1-0.1-0.1-0.1-0.2-0.2c0-0.1-0.1-0.1-0.1-0.2
	c0,0-0.1-0.1-0.1-0.1c-0.1-0.1-0.2-0.2-0.3-0.4c-0.2-0.2-0.3-0.5-0.4-0.8l0,0c0,0,0,0,0,0l0,0l0,0c0-0.1,0-0.1-0.1-0.2
	c-0.1-0.1-0.1-0.3-0.1-0.5c-0.1-0.4-0.5-0.6-0.8-0.5c-0.4,0.1-0.6,0.5-0.5,0.8l0,0c0.4,1.3,1.1,2.4,2,3.3c-0.6,1.7-1.2,3.3-1.8,5.1
	c0,0.1,0,0.1,0,0.2c-2.2,2.2-4.7,3.9-7.5,5.2c0.1-1.2,0.2-2.4,0.4-3.6c2.7-1.2,4.8-3.6,5.6-6.4c0.1-0.4-0.1-0.7-0.5-0.8
	c-0.4-0.1-0.7,0.1-0.8,0.5c-0.6,2.2-2.1,4-4,5.1c0.5-2.7,1.3-5.4,2.3-7.9l0,0c1,0.1,2.1-0.2,3-0.8c0.8-0.6,1.4-1.4,1.8-2.3
	c0.1-0.4-0.1-0.7-0.5-0.8c-0.4-0.1-0.7,0.1-0.8,0.5c0,0,0,0.1-0.1,0.1l0,0l0,0c0,0.1-0.1,0.2-0.1,0.3c-0.1,0.2-0.2,0.3-0.3,0.5
	l0,0.1c0,0-0.1,0.1-0.1,0.1c-0.1,0.1-0.1,0.1-0.2,0.2c-0.1,0.1-0.2,0.1-0.2,0.2l0,0c0,0-0.1,0.1-0.1,0.1c-0.2,0.1-0.4,0.2-0.5,0.3
	l0,0l0,0c-0.1,0-0.1,0-0.2,0.1c-0.1,0-0.2,0.1-0.3,0.1c-0.1,0-0.2,0-0.3,0.1l0,0c-0.1,0-0.1,0-0.2,0c0,0-0.1,0-0.1,0
	c1.1-2.5,2.4-4.9,4-7.2c0.5-0.7-0.7-1.4-1.2-0.7c-1.1,1.6-2.1,3.3-3,5c-0.3-1.3-0.4-2.6-0.2-3.9c0.1-0.4-0.1-0.7-0.5-0.8
	c-0.4-0.1-0.7,0.1-0.8,0.5c-0.3,1.9-0.1,3.9,0.6,5.8c0,0.1,0.1,0.1,0.1,0.2c-0.6,1.4-1.2,2.8-1.7,4.2c-1.2-2.2-2-4.5-2.4-6.9
	c1.4-2,2.7-4,3.9-6.1c1.8,0.4,3.6,0.2,5.3-0.6c0.3-0.2,0.4-0.6,0.2-0.9c-0.2-0.3-0.6-0.4-0.9-0.2c-1.2,0.5-2.5,0.7-3.8,0.5
	c0.2-0.4,0.5-0.9,0.7-1.3c0.1,0,0.2,0,0.3,0c0.9-0.2,1.8-0.5,2.6-0.9c1.3,1.1,3,1.7,4.6,1.6c0.4,0,0.7-0.3,0.7-0.7s-0.3-0.7-0.7-0.7
	c-0.7,0.1-1.4,0-2.1-0.3c-0.1,0-0.2-0.1-0.3-0.1c-0.1,0-0.1,0,0,0c0,0-0.1,0-0.1-0.1c-0.2-0.1-0.3-0.2-0.5-0.3
	c-0.1,0-0.2-0.1-0.2-0.2c0.9-0.4,1.8-0.9,2.6-1.5c0,0,0.1,0.1,0.1,0.1c1.8,0.9,3.8,1.2,5.7,0.8c0.4-0.1,0.6-0.5,0.5-0.8
	c-0.1-0.4-0.5-0.6-0.8-0.5c-1.4,0.3-2.9,0.2-4.2-0.4c0.5-0.4,1-0.8,1.4-1.2l0,0c1.7,0.3,3.4,0.3,5.1-0.2c0.4-0.1,0.6-0.5,0.5-0.8
	s-0.5-0.6-0.8-0.5c0,0,0,0,0,0c-1.1,0.3-2.3,0.4-3.5,0.3c0.2-0.2,0.4-0.5,0.7-0.7c0.1,0,0.1,0,0.2,0c1.6-0.7,3.1-1.7,4.4-2.9
	c0.3-0.3,0.3-0.7,0-1c-0.3-0.3-0.7-0.3-1,0c-0.3,0.3-0.6,0.6-0.9,0.8c-0.1,0.1-0.2,0.1-0.2,0.2c0,0-0.1,0.1-0.1,0.1
	c0,0-0.1,0-0.1,0.1c-0.2,0.1-0.3,0.2-0.5,0.4l0,0c1.5-2.2,2.5-4.7,3.1-7.3c0.2-0.9-1.1-1.2-1.3-0.4c-0.3,1.4-0.8,2.8-1.4,4.2
	c-0.1-1,0-2,0.3-2.9c0.1-0.4-0.1-0.7-0.5-0.8c-0.4-0.1-0.7,0.1-0.8,0.5c-0.6,1.6-0.6,3.4,0,5c0,0,0,0,0,0c-0.3,0.5-0.6,1-1,1.5
	c-0.4-1.1-0.6-2.2-0.5-3.3c0-0.4-0.3-0.7-0.7-0.7c-0.4,0-0.7,0.3-0.7,0.7c-0.2,1.6,0.2,3.2,0.9,4.5c-0.5,0.6-1,1.1-1.5,1.7
	c0-0.1-0.1-0.2-0.1-0.3c-0.1-0.3-0.2-0.7-0.3-1c0-0.1,0-0.2,0-0.2c0,0.1,0-0.1,0-0.1c0-0.2,0-0.3,0-0.5c0-0.3,0-0.7,0.1-1
	c0-0.4-0.3-0.7-0.7-0.7c-0.4,0-0.7,0.3-0.7,0.7c-0.2,1.4,0.1,2.9,0.7,4.2c-2.2,1.9-4.8,3.4-7.6,4.2c0.1-0.3,0.2-0.5,0.4-0.8l0,0l0,0
	l0,0c1.1-0.4,2.1-0.9,3-1.6c0.2-0.1,0.3-0.2,0.3-0.4c0-0.2,0-0.4-0.1-0.5c-0.2-0.3-0.6-0.4-0.9-0.2c-0.4,0.3-0.9,0.6-1.3,0.8
	c0,0-0.1,0-0.1,0.1c1.1-2.5,2.1-5.1,2.9-7.8c0.1-0.4-0.1-0.7-0.5-0.8c-0.4-0.1-0.7,0.1-0.8,0.5c-0.5,1.7-1.1,3.4-1.8,5.1
	c0-0.1-0.1-0.1-0.1-0.2c-0.1-0.2-0.2-0.3-0.3-0.5c0-0.1-0.1-0.2-0.1-0.2c0,0,0-0.1-0.1-0.1c0,0.1,0,0,0-0.1
	c-0.1-0.3-0.2-0.7-0.3-1.1c0,0,0-0.1,0-0.1c0,0,0-0.1,0-0.1c0,0.1,0-0.1,0-0.1c0,0,0-0.1,0-0.1c0-0.2,0-0.4,0-0.6
	c0-0.4-0.3-0.7-0.7-0.7s-0.7,0.3-0.7,0.7c0,1.7,0.6,3.4,1.8,4.6c-0.2,0.6-0.5,1.2-0.7,1.8l0,0c-0.2-0.3-0.5-0.7-0.6-1
	c-0.4-0.7-0.6-1.4-0.7-2.1c-0.1-0.4-0.5-0.6-0.8-0.5c-0.4,0.1-0.6,0.5-0.5,0.8c0.3,1.5,1,3,2.1,4.1c-1.5,3.2-3.3,6.3-5.3,9.3
	c-0.1-1.5,0-3.1,0.2-4.6c0.1-0.9-1.2-1.2-1.3-0.4c-0.3,2.2-0.4,4.4-0.1,6.6c-0.4,0.5-0.8,1.1-1.2,1.6c0-0.9,0.1-1.8,0.2-2.7
	c0.1-0.4-0.1-0.7-0.5-0.8s-0.7,0.1-0.8,0.5c0,0,0,0,0,0c-0.3,1.5-0.4,3.1-0.3,4.6c0,0,0,0.1,0,0.1c-1.5,1.8-3.1,3.6-4.8,5.2
	c1.1-2.4,2.1-4.9,3-7.4c0,0,0-0.1,0-0.1c1.1-2.7,2.1-5.5,3-8.3c0.2-0.5,0.3-1,0.5-1.6c2.1-0.2,4-1.2,5.1-2.9
	c0.2-0.3,0.1-0.7-0.2-0.9c-0.3-0.2-0.7-0.1-0.9,0.2c-0.8,1.2-2.1,1.9-3.5,2.2c0.7-2.1,1.3-4.2,1.9-6.3c2.4-1.2,3.5-3.9,4.4-6.4
	c0.1-0.4-0.1-0.7-0.5-0.8c-0.4-0.1-0.7,0.1-0.8,0.5c-0.5,1.7-1.4,3.3-2.6,4.7c-0.1-0.4-0.4-0.6-0.8-0.6c-0.3,0-0.5,0.2-0.6,0.5
	c-1.2,4.2-2.5,8.4-3.9,12.5c0,0,0,0,0-0.1c0-0.1,0-0.2-0.1-0.3c-0.3-1.4-0.5-2.7-0.7-4.1c0,0,0-0.1,0-0.1c0.2-1.9,1.1-3.7,2.5-5
	c0.3-0.3,0.3-0.7,0-1c-0.3-0.3-0.7-0.3-1,0c-0.8,0.8-1.5,1.7-2,2.7c0-0.4-0.1-0.9-0.1-1.3c0,0,0-0.2,0-0.2c0-0.3,0.1-0.5,0.2-0.8
	c0.1-0.3,0.1-0.5,0.2-0.8c0-0.1,0.1-0.2,0.1-0.3c0.6-1,1.2-2,1.8-3.1c0.1-0.1,0.2-0.1,0.2-0.2c1.5,0.2,3.1-0.2,4.2-1.2
	c0.3-0.3,0.3-0.7,0-1c-0.3-0.3-0.7-0.3-1,0c-0.1,0.1-0.1,0.1-0.2,0.2c0.1-0.1-0.1,0.1-0.1,0.1c-0.1,0.1-0.3,0.2-0.5,0.3
	c0,0-0.1,0-0.1,0.1c0,0-0.1,0.1-0.1,0c0.1,0-0.1,0-0.1,0c0,0-0.1,0-0.1,0c-0.2,0.1-0.3,0.1-0.5,0.1c-0.1,0-0.2,0-0.3,0l0,0
	c0,0-0.1,0-0.1,0c-0.2,0-0.3,0-0.5,0c0,0-0.1,0-0.1,0c0.8-1.7,1.4-3.4,1.9-5.2c0.1-0.4-0.1-0.7-0.5-0.8c-0.4-0.1-0.7,0.1-0.8,0.5
	c-0.5,1.6-1.1,3.1-1.7,4.6c0,0,0-0.1,0-0.1c0-0.1,0-0.1,0-0.2c0,0,0-0.1,0-0.1c0-0.1,0-0.3,0-0.4c0-0.1,0-0.3,0-0.4
	c0-0.1,0-0.1,0-0.2c0,0,0-0.2,0-0.2c0.1-0.4-0.1-0.7-0.5-0.8c-0.4-0.1-0.7,0.1-0.8,0.5c-0.2,1.3,0,2.6,0.5,3.8
	c-0.4,0.8-0.9,1.6-1.4,2.4c-0.2-3.3-0.2-6.7,0-10c0.1-0.9-1.3-0.9-1.4,0c-0.1,2.1-0.2,4.1-0.2,6.2c-0.1-0.1-0.2-0.2-0.3-0.4
	c0,0-0.1-0.1-0.1-0.1l0,0c-0.1-0.1-0.1-0.2-0.2-0.2c-0.2-0.3-0.4-0.6-0.5-0.9c0-0.1-0.1-0.2-0.1-0.2l0-0.1l0-0.1
	c-0.1-0.2-0.1-0.4-0.2-0.6c-0.1-0.4-0.5-0.6-0.8-0.5c-0.4,0.1-0.6,0.5-0.5,0.8c0.5,1.6,1.5,3,2.8,4.1c0,1.6,0.1,3.1,0.3,4.7
	c-0.1,0-0.1-0.1-0.2-0.1c-0.3-0.2-0.7-0.1-0.9,0.2c-0.1,0.2-0.1,0.3-0.1,0.5c0.1,0.2,0.2,0.3,0.3,0.4c0.1,0,0.1,0.1,0.2,0.1
	c0.3,0.2,0.5,0.5,0.8,0.8c0,0.1,0.1,0.1,0.1,0.2c0.3,2.7,0.7,5.3,1.2,8c0,0.7,0.1,1.4,0.1,2.1c0,0.4-0.1,0.7-0.1,1.1
	c-0.1-0.4-0.2-0.8-0.3-1.2c-0.1-0.4-0.5-0.6-0.8-0.5c-0.4,0.1-0.6,0.5-0.5,0.8c0.5,1.4,0.6,2.9,0.5,4.3c-0.1,0.1-0.1,0.3-0.2,0.4
	c-0.3-0.8-0.8-1.5-1.4-2.1c-0.3-0.3-0.7-0.3-1,0c-0.3,0.3-0.3,0.7,0,1c0.1,0.1,0.3,0.3,0.4,0.4c0,0,0.1,0.1,0.1,0.1l0,0l0,0
	c0.1,0.1,0.1,0.2,0.2,0.2c0.1,0.2,0.2,0.3,0.3,0.5c0,0,0,0.1,0.1,0.1c0,0,0.1,0.1,0,0.1c0-0.1,0,0.1,0,0.1c0,0,0,0.1,0.1,0.1
	c0.1,0.2,0.1,0.3,0.1,0.5c0,0.1,0,0.2,0.1,0.3c0,0,0,0.1,0,0.1c0-0.1,0,0.1,0,0.1c0,0.2,0,0.4,0,0.5c0,0.1,0,0.2,0,0.3
	c0,0,0,0.1,0,0.1c0,0,0,0,0,0l0,0c0,0,0,0.1,0,0.1c0-0.1-0.1-0.2-0.1-0.3c-0.5-0.7-1.2-1.2-1.8-1.8c-0.3-0.3-0.7-0.3-1,0
	c-0.3,0.3-0.3,0.7,0,1c0.2,0.3,0.5,0.5,0.8,0.8c0.1,0.1,0.3,0.3,0.4,0.4c0.1,0.1,0.1,0.1,0.2,0.2c0,0,0.1,0.1,0.1,0.1l0,0l0,0
	c0,0.1,0.1,0.1,0.1,0.2c0,0,0.1,0.1,0.1,0.1l0,0c0.1,0.2,0.1,0.4,0.2,0.6l0,0c0,0.1,0,0.1,0,0.2c0,0.1,0,0.2,0,0.3
	c0,0.2,0,0.4,0,0.6c-1.2,2.8-2.4,5.5-3.7,8.2c-0.7-1.9-0.8-4-0.2-5.9c0.1-0.4-0.1-0.7-0.5-0.8c-0.4-0.1-0.7,0.1-0.8,0.5
	c-0.4,1.2-0.5,2.4-0.4,3.7c-0.2-0.2-0.3-0.4-0.5-0.6c-0.1-0.2-0.2-0.4-0.3-0.6l0-0.1c0,0,0-0.1,0-0.1c0-0.1-0.1-0.2-0.1-0.3
	c-0.1-0.2-0.1-0.4-0.2-0.6c0-0.1,0-0.1,0-0.2l0-0.1c0-0.1,0-0.2,0-0.3c0-0.4-0.3-0.7-0.7-0.7s-0.7,0.3-0.7,0.7
	c0.1,2,1.2,3.8,2.9,4.9c0.2,0.6,0.4,1.3,0.7,1.9c0,0,0.1,0.1,0.1,0.1c-0.5,1.1-1.1,2.2-1.6,3.3c-1.4,2.7-2.8,5.4-4.3,8
	c0.1-2.2,0.2-4.4,0.3-6.6c0.8-0.3,1.4-1,1.8-1.7c0.5-0.8,1-1.7,1.3-2.7c0.1-0.4-0.1-0.7-0.5-0.8c-0.4-0.1-0.7,0.1-0.8,0.5
	c-0.1,0.3-0.3,0.7-0.4,1c-0.2,0.4-0.4,0.7-0.6,1.1c-0.1,0.2-0.2,0.3-0.3,0.5c-0.1,0.1-0.1,0.2-0.2,0.3c0,0-0.1,0.1-0.1,0.1
	c0,0,0,0,0,0l0,0.1c0,0,0,0.1-0.1,0.1c0.2-3.8,0.5-7.5,0.9-11.2c0.6-0.7,1.1-1.5,1.6-2.3c1.3,0.8,3,0.5,4-0.7c0.3-0.3,0.3-0.7,0-1
	c-0.3-0.3-0.7-0.3-1,0c-0.1,0.1-0.2,0.2-0.3,0.3c0,0,0,0-0.1,0.1c0,0,0,0,0,0c-0.1,0-0.1,0.1-0.2,0.1c-0.1,0-0.1,0.1-0.2,0.1
	c0,0,0,0-0.1,0c0,0,0,0,0,0c-0.1,0-0.3,0.1-0.4,0.1c0,0-0.1,0-0.1,0c-0.1,0-0.1,0-0.2,0c0,0-0.1,0-0.1,0l0,0l0,0c0,0-0.1,0-0.1,0
	c-0.1,0-0.1,0-0.2-0.1c0,0-0.1,0-0.1,0c-0.1,0-0.1-0.1-0.2-0.1c1-1.4,1.9-2.9,2.6-4.5c2.5-1.5,4.3-4.1,4.8-7
	c0.1-0.4-0.1-0.7-0.5-0.8c-0.4-0.1-0.7,0.1-0.8,0.5c-0.3,1.8-1.2,3.4-2.4,4.7c1.3-3.7,1.8-7.6,1.5-11.5c-0.1-0.9-1.4-0.9-1.4,0
	c0.1,1.1,0.1,2.2,0,3.4c-0.1-0.1-0.2-0.3-0.3-0.4c-0.1-0.1-0.1-0.3-0.2-0.4l0,0l0,0c0-0.1-0.1-0.1-0.1-0.2c-0.1-0.3-0.2-0.6-0.2-0.9
	c-0.1-0.4-0.5-0.6-0.8-0.5c-0.4,0.1-0.6,0.5-0.5,0.8c0.3,1.3,0.9,2.5,1.9,3.4c0,0,0.1,0,0.1,0.1c-0.2,1.2-0.4,2.4-0.7,3.6
	c-0.4-1.1-0.7-2.2-0.9-3.3c0-0.4-0.3-0.7-0.7-0.7c-0.4,0-0.7,0.3-0.7,0.7c0.2,1.8,0.7,3.5,1.5,5.1c0,0.1,0.1,0.1,0.1,0.2
	c-1,3-2.6,5.7-4.6,8.2c0.2-1.5,0.3-2.9,0.5-4.4c0,0,0-0.1,0-0.1c0.1-0.5,0.1-1.1,0.2-1.6c1.1-0.1,2.1-0.7,2.8-1.5
	c0.3-0.3,0.3-0.7,0-1c-0.3-0.3-0.7-0.3-1,0c-0.2,0.2-0.3,0.3-0.5,0.5l-0.1,0c0,0-0.1,0.1-0.1,0.1c-0.1,0.1-0.2,0.1-0.3,0.2
	c-0.1,0-0.1,0.1-0.2,0.1l0,0l0,0c-0.1,0-0.2,0.1-0.3,0.1l0,0c0.4-2.7,0.7-5.3,1.2-8c0.1-0.9-1.2-1.2-1.3-0.4
	c-0.3,1.6-0.5,3.1-0.7,4.7c-0.9-0.7-1.7-1.5-2.4-2.3c0.6-1.4,0.7-2.9,0.3-4.4c-0.1-0.4-0.5-0.6-0.8-0.5s-0.6,0.5-0.5,0.8
	c0,0,0,0,0,0c0,0.2,0.1,0.3,0.1,0.5c0,0.1,0,0.2,0,0.3l0,0l0,0c0,0.3,0,0.6,0,1c0,0.1,0,0.1,0,0.2c0,0,0,0.1,0,0.1l0,0
	c0,0.2-0.1,0.3-0.1,0.5c0,0,0,0,0,0.1c-0.4-0.7-0.8-1.4-1.1-2.2c-0.1-0.4-0.5-0.6-0.8-0.5c-0.4,0.1-0.6,0.5-0.5,0.8
	c0.7,1.7,1.6,3.3,2.8,4.7c-1.4,0.1-2.8-0.6-3.6-1.8c-0.2-0.3-0.6-0.4-0.9-0.2c-0.3,0.2-0.4,0.6-0.2,0.9c1.3,2,3.7,2.9,6,2.3
	c0.5,0.4,1,0.9,1.5,1.2c-0.1,1-0.3,2.1-0.4,3.1c-0.4-0.8-0.8-1.7-1-2.7c-0.1-0.4-0.5-0.6-0.8-0.5c-0.4,0.1-0.6,0.5-0.5,0.8
	c0.4,1.6,1,3.1,2,4.5c-0.2,1.7-0.4,3.4-0.6,5.1c-0.4-0.8-0.7-1.6-0.9-2.5c-0.1-0.4-0.5-0.6-0.8-0.5c-0.4,0.1-0.6,0.5-0.5,0.8
	c0.4,1.6,1,3.1,1.9,4.4c0,0,0,0.1,0,0.1c-0.2,1.6-0.3,3.1-0.4,4.7c-1.9-1.6-3.5-3.4-4.9-5.5c0-0.3,0-0.5,0-0.8c1-0.2,2-0.6,2.8-1.2
	c0.2-0.1,0.3-0.2,0.3-0.4c0-0.2,0-0.4-0.1-0.5c-0.2-0.3-0.6-0.4-0.9-0.2c-0.2,0.2-0.5,0.3-0.7,0.5c-0.1,0.1-0.2,0.1-0.3,0.2
	c-0.1,0-0.1,0.1-0.2,0.1c0.2-0.1-0.1,0-0.1,0c-0.2,0.1-0.5,0.2-0.8,0.2l0,0c0-0.4,0-0.8,0-1.2c1.5-0.3,2.8-1,3.8-2.2
	c0.3-0.3,0.3-0.7,0-1c-0.3-0.3-0.7-0.3-1,0c-0.2,0.3-0.4,0.5-0.7,0.7c-0.1,0.1-0.1,0.1-0.2,0.2l0,0l0,0c0,0-0.1,0-0.1,0.1
	c-0.1,0.1-0.3,0.2-0.4,0.3c-0.1,0.1-0.3,0.2-0.4,0.2c0,0-0.1,0-0.1,0l0,0c-0.1,0-0.1,0.1-0.2,0.1c-0.2,0.1-0.3,0.1-0.5,0.1
	c0-0.5,0-1.1,0.1-1.6c0,0,0,0,0.1,0c0.7-0.1,1.3-0.5,1.7-1c0.4-0.6,0.8-1.3,1-2c0-0.2,0-0.4-0.1-0.5c-0.2-0.3-0.6-0.4-0.9-0.2
	c-0.2,0.1-0.3,0.2-0.3,0.4c-0.1,0.1-0.1,0.3-0.2,0.4l0,0l0,0c0,0,0,0.1,0,0.1c0,0.1-0.1,0.1-0.1,0.2c-0.1,0.1-0.1,0.3-0.2,0.4
	c0,0.1-0.1,0.1-0.1,0.2c0,0,0,0.1-0.1,0.1c-0.1,0.1-0.2,0.2-0.3,0.3c0,0-0.1,0.1-0.1,0.1c0,0-0.1,0-0.1,0.1c-0.1,0-0.1,0.1-0.2,0.1
	c0,0,0,0-0.1,0l0,0c0.1-1.2,0.2-2.5,0.4-3.7c0.1-0.9-1.2-1.2-1.3-0.4c-0.4,3.1-0.6,6.3-0.6,9.5c-1.2-2.3-2-4.8-2.3-7.4
	c-0.1-0.9-1.4-0.5-1.3,0.4c0.2,1,0.4,2,0.7,3c-0.1,0-0.1-0.1-0.2-0.1l0,0c0,0-0.1-0.1-0.1-0.1c-0.1-0.1-0.3-0.2-0.4-0.4
	c-0.5-0.5-1-1-1.4-1.6c-0.3-0.3-0.7-0.3-1,0c-0.3,0.3-0.3,0.7,0,1c0.9,1.3,2.1,2.3,3.5,3c0,0,0,0,0.1,0c0.3,0.8,0.6,1.6,1,2.4
	c-1.5,0.3-2.8-0.8-3.9-1.7c-0.3-0.3-0.7-0.3-1,0c-0.3,0.3-0.3,0.7,0,1c0.8,0.7,1.7,1.3,2.7,1.7c0.9,0.4,1.9,0.5,2.9,0.2
	c0.3,0.5,0.6,1,0.9,1.5c0.2,4,0.8,8,1.8,11.8l-0.1,0c-0.3,0-0.6-0.1-0.9-0.2c0,0-0.1-0.1-0.1-0.1c-0.1,0-0.1,0-0.2-0.1
	c-0.1-0.1-0.3-0.1-0.4-0.2c-0.1-0.1-0.2-0.2-0.4-0.2c0,0-0.1,0-0.1-0.1c-0.1,0-0.1-0.1-0.2-0.1c-0.3-0.3-0.7-0.3-1,0
	c-0.3,0.3-0.3,0.7,0,1l0,0c1,0.9,2.3,1.4,3.6,1.5c0.3,1.1,0.6,2.2,1,3.3c-0.4-0.5-0.8-0.9-1.3-1.4c-0.7-0.6-1.6,0.4-1,1
	c1.7,1.5,2.9,3.5,3.5,5.6c0,1.1,0.1,2.1,0.2,3.2c-2.7-2.6-5.3-5.3-7.8-8.1c-0.6-1-0.8-2.2-0.7-3.4l0,0c1.1-1.2,1.8-2.6,2-4.1
	c0.1-0.4-0.1-0.7-0.5-0.8c-0.4-0.1-0.7,0.1-0.8,0.5c-0.1,0.3-0.1,0.7-0.3,1c-0.1,0.2-0.1,0.3-0.2,0.5c0,0-0.1,0.1,0,0.1s0,0.1,0,0.1
	c0,0.1-0.1,0.1-0.1,0.2c0.1-1.2,0.1-2.4,0.1-3.5c0,0,0.1,0,0.1,0c0.9-0.6,1.5-1.6,1.8-2.6c0.5-1,0.6-2.2,0.5-3.3
	c-0.1-0.4-0.5-0.6-0.8-0.5c-0.4,0.1-0.6,0.5-0.5,0.8c0.1,0.9-0.1,1.7-0.4,2.5c-0.1,0.5-0.3,0.9-0.6,1.3c0-1.1-0.1-2.1-0.2-3.2
	c-0.1-0.9-1.4-0.9-1.4,0c0.2,1.9,0.2,3.9,0.2,5.8c-0.8-1.3-1.2-2.7-1.2-4.2c0-0.4-0.3-0.7-0.7-0.7c-0.4,0-0.6,0.3-0.7,0.7
	c0,2.3,0.9,4.6,2.4,6.3c0,0,0.1,0,0.1,0.1c-0.1,1.3-0.1,2.6-0.3,3.9c-0.7-0.8-1.3-1.6-2-2.5c0,0,0-0.1,0-0.1
	c-1.5-2.5-2.4-5.3-2.4-8.3c0.1-0.2,0.2-0.4,0.3-0.6c0-0.1,0.1-0.2,0.1-0.3l0,0v0c0,0,0-0.1,0.1-0.1c0.1-0.2,0.2-0.4,0.2-0.5
	c0.2-0.3,0.4-0.7,0.6-1c0,0,0.1-0.1,0.1-0.1c0.1-0.1,0.1-0.1,0.2-0.2l0.1,0l0,0c0.1,0,0.1-0.1,0.2-0.1c0.3-0.2,0.4-0.6,0.2-0.9
	c-0.2-0.3-0.6-0.4-0.9-0.2c-0.2,0.1-0.4,0.2-0.6,0.4c0.8-4.7,1.5-9.4,2-14.1c0.4-0.2,0.7-0.4,1.1-0.7c1.5,0.7,3.2,0.9,4.8,0.6
	c0.4,0,0.7-0.3,0.7-0.7c0-0.4-0.3-0.7-0.7-0.7c-1.2,0.2-2.4,0.1-3.5-0.1c0.5-0.4,1-0.9,1.5-1.3c1.6,0.4,3.2,0.2,4.6-0.6
	c0.3-0.2,0.4-0.6,0.2-0.9c-0.2-0.3-0.6-0.4-0.9-0.2c-0.3,0.2-0.5,0.3-0.8,0.4c-0.3,0.1-0.6,0.2-1,0.2c0,0-0.2,0-0.2,0
	c-0.1,0-0.1,0-0.2,0c-0.2,0-0.4,0-0.5,0l-0.1,0c0.6-0.6,1.1-1.3,1.6-1.9c0.1,0,0.2,0,0.3,0c1.9-0.7,3.6-1.7,5.1-3
	c1.3,0.2,2.7,0.1,3.9-0.5c0,0,0.1,0.1,0.1,0.1c2.3,0.8,4.9,0.5,6.9-0.8c0.7-0.5,0.1-1.7-0.7-1.2c-1.3,0.8-2.9,1.2-4.5,1
	c1-0.6,2-1.4,2.8-2.2c0.6-0.6-0.4-1.6-1-1c-0.9,1-2,1.8-3.3,2.4c-0.9,0.5-2,0.8-3.1,0.9c1.8-1.9,3-4.2,3.7-6.7
	c0.1-0.4-0.1-0.7-0.5-0.8c-0.4-0.1-0.7,0.1-0.8,0.5c-0.4,1.4-1,2.8-1.8,4c-0.4-1.2-0.5-2.5-0.2-3.7c0.1-0.4-0.1-0.7-0.5-0.8
	s-0.7,0.1-0.8,0.5c0,0,0,0,0,0c-0.5,1.8-0.3,3.7,0.6,5.4c-1.3,1.7-3,3.1-5,4.1c2.1-3.5,3.1-7.6,3-11.6c0-0.9-1.4-0.9-1.4,0
	c0,1.6-0.1,3.2-0.4,4.7c-0.2-0.3-0.4-0.7-0.5-1.1c-0.1-0.2-0.1-0.4-0.2-0.6c0-0.1,0-0.2-0.1-0.3l0,0l0,0c0,0,0-0.1,0-0.1
	c0-0.2,0-0.4,0-0.6c0-0.1,0-0.2,0-0.3c0,0,0-0.1,0-0.1c0,0,0-0.2,0-0.1c0.1-0.4-0.1-0.7-0.5-0.8c-0.4-0.1-0.7,0.1-0.8,0.5
	c-0.3,1.9,0.3,3.9,1.6,5.3c-0.1,0.3-0.2,0.7-0.3,1c-0.3-0.2-0.5-0.4-0.7-0.7c-0.1-0.1-0.2-0.3-0.3-0.4c-0.1-0.2-0.3-0.4-0.4-0.6
	c-0.1-0.1-0.1-0.2-0.1-0.3c0,0,0-0.1-0.1-0.1c0,0,0,0,0,0l0-0.1c-0.1-0.2-0.1-0.4-0.2-0.6c-0.1-0.2-0.1-0.4-0.1-0.7l0,0l0,0
	c0-0.1,0-0.1,0-0.2c0-0.1,0-0.2,0-0.4c0-0.4-0.3-0.7-0.7-0.7c-0.4,0-0.7,0.3-0.7,0.7c0.1,2.1,1.1,4.1,2.9,5.3
	c-1.6,3.8-4.3,7-7.7,9.2c0.2-1.7,0.3-3.4,0.4-5.1c1.4-0.1,2.7-1,3.3-2.3c0.2-0.3,0.1-0.7-0.2-0.9c-0.3-0.2-0.7-0.1-0.9,0.2
	c-0.1,0.1-0.1,0.3-0.2,0.4c0,0.1-0.1,0.1-0.1,0.2l0,0c0-0.1,0,0,0,0c-0.1,0.1-0.2,0.2-0.3,0.3c0,0-0.1,0.1-0.1,0.1l0,0
	c0,0-0.1,0-0.1,0.1c-0.1,0.1-0.3,0.2-0.4,0.2c0,0-0.2,0.1-0.1,0c0.1,0,0,0,0,0c-0.1,0-0.1,0.1-0.2,0.1c-0.1,0-0.3,0.1-0.4,0.1
	c0-0.5,0.1-1,0.1-1.4c0.8-0.4,1.4-0.9,1.9-1.7c0.6-1,0.9-2.1,1.1-3.3c0.1-0.4-0.1-0.7-0.5-0.8c-0.4-0.1-0.7,0.1-0.8,0.5
	c-0.1,1-0.4,1.9-0.9,2.8c-0.1,0.1-0.1,0.2-0.2,0.3c0,0-0.1,0.1-0.1,0.1l0,0.1c0,0,0,0,0,0c-0.1,0.1-0.2,0.3-0.4,0.4
	c0.1-2.4,0.2-4.9,0.3-7.3c0-0.4-0.3-0.7-0.7-0.7c-0.4,0-0.6,0.3-0.7,0.7c0,1.6-0.1,3.2-0.2,4.8c-0.1-0.1-0.1-0.1-0.2-0.2
	c0,0-0.1-0.2,0-0.1c0-0.1-0.1-0.1-0.1-0.1c-0.1-0.1-0.2-0.2-0.2-0.3c-0.1-0.2-0.3-0.4-0.4-0.7l0-0.1l0,0c0-0.1,0-0.1-0.1-0.2
	c0-0.1-0.1-0.3-0.1-0.4c-0.1-0.4-0.5-0.6-0.8-0.5c-0.4,0.1-0.6,0.5-0.5,0.8c0.3,1.2,1,2.2,1.8,3c0.1,0.1,0.3,0.2,0.5,0.2
	c0,0.5-0.1,1-0.1,1.5l0,0c-0.1,0-0.1,0-0.2-0.1c0,0-0.1,0-0.1,0l0,0l0,0c0,0-0.1,0-0.1,0c-0.1,0-0.1-0.1-0.2-0.1
	c-0.1-0.1-0.2-0.1-0.3-0.2l-0.1,0c-0.1,0-0.1-0.1-0.2-0.1c-0.1-0.1-0.2-0.2-0.2-0.3c-0.2-0.2-0.3-0.4-0.4-0.7
	c-0.2-0.3-0.6-0.4-0.9-0.2c-0.3,0.2-0.4,0.6-0.2,0.9c0,0,0,0,0,0l0,0c0,0,0,0,0,0c0.3,0.7,0.8,1.3,1.3,1.8c0.5,0.5,1,1,1.5,1.4
	c-0.2,2.5-0.4,4.9-0.6,7.3c-0.1-0.1-0.1-0.2-0.2-0.3c0-0.1-0.1-0.1-0.1-0.2l0,0l0-0.1c0-0.1-0.1-0.3-0.1-0.4
	c-0.1-0.3-0.1-0.6-0.2-0.9c0-0.2-0.2-0.3-0.3-0.4c-0.2-0.1-0.3-0.1-0.5-0.1c-0.4,0.1-0.6,0.5-0.5,0.8c0.2,1.3,0.8,2.5,1.7,3.5
	c0,0,0,0,0,0c-0.1,1-0.2,2.1-0.4,3.1c-1.4-1.8-2.5-3.8-3.4-5.9c0.1-0.7,0.1-1.4,0.2-2.1c1.1-1.2,1.9-2.6,2.3-4.2
	c0.1-0.4-0.1-0.7-0.5-0.8c-0.4-0.1-0.7,0.1-0.8,0.5c-0.1,0.4-0.2,0.8-0.4,1.1c0,0-0.1,0.1,0,0.1c0-0.1,0,0.1,0,0.1
	c0,0.1-0.1,0.2-0.1,0.2c-0.1,0.2-0.2,0.4-0.3,0.5l0,0c0-1.4,0-2.8-0.1-4.3c-0.1-0.9-1.4-0.9-1.4,0c0.1,1.8,0.1,3.6,0,5.4
	c-0.5-2.1-0.9-4.1-1.1-6.3c0.1,0,0.1-0.1,0.2-0.1c0.7-0.6,1.2-1.4,1.4-2.3c0.1-0.4-0.1-0.7-0.5-0.8c-0.4-0.1-0.7,0.1-0.8,0.5
	c0,0.1-0.1,0.2-0.1,0.3c-0.1,0.2-0.2,0.4-0.4,0.6c-0.2-2-0.3-4-0.4-5.9c0-0.9-1.4-0.9-1.4,0c0.1,1.7,0.2,3.5,0.3,5.2
	c-0.9-1.2-1.5-2.5-1.9-3.9c-0.1-0.4-0.5-0.6-0.9-0.4c-0.3,0.1-0.5,0.5-0.5,0.8c0.6,2.2,1.8,4.2,3.5,5.8c0,0.3,0.1,0.7,0.1,1
	c-0.1,0-0.3-0.1-0.4-0.1c0,0-0.1,0-0.1,0l0,0c-0.1,0-0.2-0.1-0.2-0.1c-0.2-0.1-0.3-0.2-0.5-0.3c-0.1-0.1-0.3-0.2-0.4-0.3l0,0
	c0,0-0.1,0-0.1-0.1c-0.1-0.1-0.1-0.1-0.2-0.2c-0.1-0.1-0.3-0.2-0.4-0.4c-0.1-0.1-0.1-0.1-0.2-0.2c0,0,0-0.1-0.1-0.1l0,0l0,0
	c-0.2-0.3-0.6-0.4-0.9-0.2c-0.3,0.2-0.4,0.6-0.2,0.9c1,1.3,2.4,2.2,3.9,2.5c0.1,0.7,0.2,1.3,0.4,2l-0.1,0l0,0
	c-0.1,0-0.2-0.1-0.3-0.1c-0.3-0.2-0.7-0.3-1-0.5c-0.3-0.2-0.6-0.4-0.9-0.6c-0.1-0.1-0.2-0.1-0.2-0.2c0,0-0.1-0.1-0.1-0.1l0,0l0,0
	c-0.2-0.1-0.3-0.2-0.5-0.4c-0.3-0.3-0.7-0.3-1,0c-0.3,0.3-0.3,0.7,0,1c1.3,1.1,2.7,1.9,4.3,2.5c0,0,0.1,0,0.1,0
	c0.3,1.3,0.7,2.6,1.2,3.9c-0.2,2-0.6,4-1.1,5.9c-0.8-1.3-1.3-2.7-1.5-4.2c0-0.4-0.3-0.7-0.7-0.7c-0.4,0-0.7,0.3-0.7,0.7
	c0.2,2.1,1,4.1,2.3,5.8c0,0,0.1,0.1,0.1,0.1c-0.5,1.7-1.1,3.4-1.8,5c-0.5-1-1.1-2-1.6-3c-0.2-0.3-0.3-0.6-0.4-0.9
	c0.1,0,0.1-0.1,0.1-0.2c0.8-1.2,1.1-2.7,0.8-4.1c-0.1-0.4-0.5-0.6-0.8-0.5c-0.4,0.1-0.6,0.5-0.5,0.8c0,0,0,0.1,0,0.1l0,0
	c0,0.1,0,0.2,0,0.2c0,0.1,0,0.3,0,0.4c0,0.1,0,0.3,0,0.4l0,0c0,0,0,0.1,0,0.1c0,0.1,0,0.1,0,0.2c-0.1,0.3-0.1,0.6-0.3,0.8l0,0.1
	c-0.4-0.9-0.9-1.8-1.3-2.7c1.6-1.8,2.1-4.4,1.4-6.7c-0.1-0.4-0.5-0.6-0.8-0.5c-0.4,0.1-0.6,0.5-0.5,0.8c0.5,1.6,0.3,3.4-0.6,4.9
	c-0.6-1.5-1.2-2.9-1.8-4.4c-0.3-0.8-1.6-0.5-1.3,0.4c1.6,4.1,3.4,8.1,5.4,12c-2-1.2-3.8-2.6-5.4-4.3c-0.1-1.1,0-2.3,0.1-3.4
	c0.1-0.9-1.3-0.9-1.4,0c-0.1,0.6-0.1,1.2-0.1,1.9c-0.7-0.9-1.4-1.7-2-2.7c0.4-1.2,0.4-2.5,0.2-3.8c-0.1-0.4-0.5-0.6-0.8-0.5
	c-0.4,0.1-0.6,0.5-0.5,0.8c0,0.1,0,0.2,0,0.2l0,0c0,0,0,0.1,0,0.1c0,0.1,0,0.3,0,0.4c0,0.3,0,0.6,0,0.9l0,0
	c-0.8-1.4-1.4-2.8-1.9-4.3c-0.3-0.8-1.6-0.5-1.3,0.4c0.2,0.7,0.5,1.3,0.7,1.9c-0.1-0.1-0.3-0.2-0.4-0.3c-0.4-0.3-0.8-0.7-1.2-1.1
	c-0.7-0.8-1.2-1.8-1.4-2.9c-0.1-0.4-0.5-0.6-0.8-0.5c-0.4,0.1-0.6,0.5-0.5,0.8c0.6,2.6,2.5,4.7,4.9,5.7c0.1,0,0.2,0,0.2,0
	c1.2,2.4,2.8,4.7,4.7,6.6c0.1,2.4,0.6,4.8,1.3,7.1c-2-1.6-3.5-3.8-4.1-6.3c-0.1-0.4-0.5-0.6-0.9-0.4c-0.3,0.1-0.5,0.5-0.5,0.8
	c0.9,3.4,3,6.3,6.1,8c0,0,0.1,0,0.1,0c0.6,1.6,1.4,3.1,2.3,4.5c-2-0.6-3.9-1.3-5.9-2.1c-0.1-1.5-0.4-3-0.9-4.4
	c-0.1-0.4-0.5-0.6-0.8-0.5c-0.4,0.1-0.6,0.5-0.5,0.8c0.4,1.1,0.6,2.2,0.7,3.4c-0.9-0.4-1.8-0.8-2.6-1.2c0,0,0,0,0,0
	c-0.2-3.1-0.7-6.3-1.7-9.3c1.2-1.2,2-2.8,2-4.5c0-0.4-0.3-0.7-0.7-0.7s-0.7,0.3-0.7,0.7c0,0.2,0,0.4,0,0.6c0,0,0,0,0,0l0,0
	c0,0,0,0.1,0,0.1c0,0.1,0,0.2-0.1,0.3c0,0.2-0.1,0.4-0.2,0.5c0,0.1-0.1,0.2-0.1,0.3l0,0c0,0,0,0.1-0.1,0.1c-0.2,0.3-0.4,0.7-0.6,1
	l0,0l0,0l-0.1,0.1c-0.2-0.6-0.4-1.2-0.7-1.8c0.1-0.1,0.1-0.1,0.2-0.2c0.7-1,1-2.3,0.8-3.5c-0.1-0.4-0.5-0.6-0.8-0.5
	c-0.4,0.1-0.6,0.5-0.5,0.8l0,0.1c0,0.1,0,0.1,0,0.2c0,0.1,0,0.2,0,0.3c0,0.1,0,0.1,0,0.2c0,0,0,0.3,0,0.1c0,0.1,0,0.2-0.1,0.4
	c0,0.1-0.1,0.2-0.1,0.4c0,0.1,0,0.1-0.1,0.2l0,0.1c0,0,0,0.1,0,0.1c-0.6-1.2-1.2-2.4-1.9-3.5c-0.5-0.8-1.6-0.1-1.2,0.7
	c1.4,2.3,2.5,4.7,3.4,7.2c-2.3-1.5-4.3-3.3-6.1-5.4c-0.3-0.3-0.7-0.3-1,0c-0.3,0.3-0.3,0.7,0,1c2.1,2.5,4.7,4.7,7.5,6.4
	c0.1,0,0.1,0,0.2,0.1c0.2,0.7,0.4,1.4,0.5,2.1c-0.2-0.1-0.5-0.1-0.7-0.2c-0.1,0-0.2-0.1-0.3-0.1c0,0-0.1,0-0.1-0.1l-0.1,0l-0.1-0.1
	c0,0-0.1,0-0.1-0.1c-0.1,0-0.2-0.1-0.3-0.1c-0.4-0.2-0.7-0.4-1-0.6c0,0-0.1-0.1-0.1-0.1c0,0-0.1,0-0.1-0.1c-0.1-0.1-0.2-0.1-0.2-0.2
	c-0.2-0.1-0.3-0.3-0.5-0.4c-0.3-0.3-0.7-0.3-1,0s-0.3,0.7,0,1c0,0,0,0,0,0c1.2,1.3,2.9,2.1,4.6,2.5c0.1,0,0.1,0,0.2,0
	c0.2,1.1,0.3,2.2,0.4,3.3c-2.2-1.2-4.4-2.4-6.4-3.8l0,0c0.2-2.4-0.7-4.8-2.5-6.6c-0.3-0.3-0.7-0.2-1,0c-0.2,0.3-0.2,0.7,0,0.9
	c1.2,1.2,2,2.9,2.1,4.7c-1-0.7-1.9-1.4-2.9-2.1c-0.7-0.5-1.7,0.4-1,1c1.8,1.4,3.7,2.7,5.6,4c-1.4,0.6-3,0.6-4.4-0.1
	c-0.3-0.2-0.7-0.1-0.9,0.2c-0.2,0.3-0.1,0.7,0.2,0.9c1.9,1,4.3,1,6.2-0.1c0.1,0,0.1-0.1,0.2-0.2c0.4,0.3,0.8,0.5,1.3,0.8
	c0,0.1-0.1,0.2-0.1,0.3c0,0,0,0.1,0,0.1c0,0.1,0,0.2-0.1,0.2l0,0l0,0c0,0,0,0.1-0.1,0.1c0,0.1-0.1,0.1-0.1,0.2c0,0,0,0,0,0.1
	c0,0,0,0.1-0.1,0.1c-0.1,0.1-0.1,0.1-0.2,0.2c0.1-0.1,0,0,0,0c0,0-0.1,0.1-0.1,0.1c-0.1,0-0.1,0.1-0.2,0.1l0,0c0,0-0.1,0-0.1,0
	c-0.1,0-0.2,0.1-0.3,0.1c-0.1,0-0.2,0-0.3,0.1l0,0c0,0-0.1,0-0.1,0c-0.4,0-0.9,0-1.3,0c-0.4,0-0.7,0.3-0.7,0.7
	c0,0.4,0.3,0.7,0.7,0.7c1,0.1,2.1-0.1,3-0.5c0.7-0.4,1.2-1,1.4-1.8c2,1.1,4.1,2.2,6.3,3.1c-1.2,1-2.8,1.3-4.2,0.9
	c-0.4-0.1-0.7,0.1-0.8,0.5c-0.1,0.4,0.1,0.7,0.5,0.8c2.1,0.6,4.3,0,5.8-1.5c0.1-0.1,0.1-0.1,0.1-0.2c2.4,1,4.8,1.8,7.3,2.6
	c0.1,0.1,0.2,0.1,0.3,0.1c0.5,0.1,1,0.3,1.6,0.5c2.5,0.7,5.1,1.2,7.6,1.5c1.2,1.6,2.4,3.2,3.6,4.8c-1.1,0.2-2.3,0.1-3.4-0.1
	c-0.4-0.1-0.7,0.1-0.8,0.5s0.1,0.7,0.5,0.8c0,0,0,0,0,0c1.5,0.4,3.2,0.4,4.7,0c0.7,0.8,1.3,1.6,2,2.4c-2.9,0.2-5.8,0.1-8.7-0.3
	c-0.1-0.2-0.2-0.4-0.4-0.5c0.1,0,0.1-0.1,0.2-0.2c1.2-1.7,1.7-3.8,1.6-5.9c0-0.4-0.3-0.7-0.7-0.7c-0.4,0-0.7,0.3-0.7,0.7
	c0.1,1.7-0.3,3.4-1.2,4.8c-0.6-0.9-1.1-1.8-1.7-2.7c1-0.4,1.7-1.4,1.6-2.5c0-0.2-0.1-0.4-0.2-0.5c-0.3-0.3-0.7-0.3-1,0
	c-0.1,0.1-0.2,0.3-0.2,0.5c0,0.2,0,0.4-0.1,0.6c0,0.1-0.1,0.2-0.2,0.3c-0.1,0.2-0.3,0.3-0.5,0.4c0,0-0.1,0-0.1,0
	c0-0.1-0.1-0.2-0.1-0.3c0-0.1,0-0.2-0.1-0.3l0-0.1c0-0.1,0-0.1,0-0.2c0-0.2,0-0.5,0-0.7c0-0.1,0-0.1,0-0.2l0-0.1c0-0.1,0-0.1,0,0
	c0-0.1,0-0.1,0-0.2c0-0.1,0-0.1,0-0.2c0.1-0.4-0.1-0.7-0.5-0.8c-0.4-0.1-0.7,0.1-0.8,0.5c-0.1,0.6-0.2,1.3-0.1,1.9
	c0,0-0.1,0-0.1-0.1c-0.2-0.1-0.4-0.2-0.5-0.3c-0.1-0.1-0.2-0.1-0.2-0.2l0,0c0,0-0.1-0.1-0.1-0.1c-0.3-0.3-0.6-0.6-0.9-0.9l0,0
	c0,0-0.1-0.1-0.1-0.1c-0.1-0.1-0.1-0.2-0.2-0.3c-0.1-0.2-0.2-0.4-0.3-0.6c-0.2-0.3-0.6-0.4-0.9-0.2c-0.3,0.2-0.4,0.6-0.2,0.9
	c0.8,1.7,2.3,2.9,4,3.5c0.4,0.6,0.8,1.3,1.2,1.9c-1.3-0.4-2.5-1.1-3.5-2c-0.3-0.3-0.7-0.3-1,0c-0.3,0.3-0.3,0.7,0,1
	c1.5,1.4,3.4,2.3,5.5,2.7c0.2,0.3,0.4,0.6,0.6,0.8c-2.5-0.4-5-1-7.4-1.8c-0.7-0.8-1.3-1.6-1.8-2.5c0,0,0-0.1,0-0.1c0,0,0-0.1,0-0.1
	l0,0l0-0.1c0,0,0-0.1,0-0.1c0-0.1,0-0.2,0.1-0.3c0-0.2,0.1-0.3,0.1-0.5c0,0,0-0.1,0-0.1l0-0.1l0-0.1c0,0,0-0.1,0.1-0.1
	c0.1-0.3,0.3-0.6,0.5-0.8l0,0c0,0,0-0.1,0.1-0.1c0.1-0.1,0.1-0.1,0.2-0.2c0.1-0.1,0.2-0.2,0.4-0.4c0.3-0.3,0.3-0.7,0-1
	c-0.3-0.3-0.7-0.3-1,0c-0.6,0.5-1.1,1.2-1.4,1.9c-0.2-0.7-0.4-1.4-0.4-2.1c0-0.4-0.3-0.7-0.7-0.7c-0.4,0-0.7,0.3-0.7,0.7
	c0.2,1.6,0.6,3.1,1.3,4.5c0,0,0,0,0,0.1c0.2,0.4,0.4,0.8,0.7,1.2c-0.1,0-0.1,0-0.2,0c-0.2-0.1-0.4-0.2-0.6-0.2c0,0-0.1,0-0.1,0
	c-2.2-1.4-4.2-3.2-5.6-5.4c-0.2-0.3-0.6-0.4-0.9-0.2c-0.3,0.2-0.4,0.6-0.2,0.9c0.3,0.4,0.6,0.8,0.9,1.2c-1.5-0.5-3-0.6-4.5-0.4
	c-0.4,0.1-0.6,0.5-0.5,0.8c0.1,0.4,0.5,0.6,0.8,0.5c2.7-0.3,5.4,0.6,7.3,2.5c-1.2,0-2.3,0.5-3.2,1.2c-1,0.8-1.8,1.8-2.4,2.9
	c-0.2,0.3-0.1,0.7,0.2,0.9c0.3,0.2,0.7,0.1,0.9-0.2c0.5-0.8,1.1-1.6,1.8-2.3c-0.2,1-0.1,2.1,0.1,3.1c0.1,0.4,0.5,0.6,0.8,0.5
	c0.4-0.1,0.6-0.5,0.5-0.8c-0.1-0.6-0.2-1.1-0.2-1.7c0-0.4,0.1-0.9,0.3-1.3c0.2-0.3,0.5-0.6,0.8-0.7c0.1,0,0.2-0.1,0.3-0.1
	c1-0.1,2.1-0.1,3.1,0.1c0.3,0.1,0.6,0.2,0.9,0.3c-0.1,0-0.2,0.1-0.2,0.1c-0.5,0.1-0.9,0.4-1.1,0.8c-0.2,0.4-0.3,0.8-0.2,1.2
	c0,0.4,0.3,0.7,0.7,0.7s0.7-0.3,0.7-0.7c0-0.1,0-0.1,0-0.2c0,0,0-0.1,0-0.1c0,0,0,0,0,0c0,0,0-0.1,0-0.1l0,0l0,0c0,0,0,0,0,0
	c0.1,0,0.1-0.1,0.2-0.1l0.1,0l0,0l0,0c0.1,0,0.2-0.1,0.2-0.1c0.6-0.2,1.3-0.4,1.9-0.5c1.4,0.4,2.8,0.8,4.2,1.1c0,0,0,0.1,0,0.1l0,0
	c0,0.1-0.1,0.2-0.1,0.2c0,0-0.1,0.1-0.1,0.1l0,0c-0.1,0.1-0.2,0.3-0.4,0.4l-0.1,0c0,0-0.1,0.1-0.1,0.1c-0.1,0-0.2,0.1-0.2,0.1
	c0,0-0.1,0-0.1,0.1c0,0,0,0,0,0l0,0c-0.1,0-0.2,0.1-0.3,0.1c-0.2,0.1-0.4,0.1-0.6,0.1c0,0-0.1,0-0.1,0c0,0,0,0,0,0l-0.1,0
	c-0.1,0-0.2,0-0.3,0c-0.2,0-0.5,0-0.7,0.1c-0.4,0-0.7,0.3-0.7,0.7s0.3,0.7,0.7,0.7c1.1,0,2.1-0.2,3.1-0.7c0.8-0.4,1.4-1.1,1.6-2
	c0.9,0.2,1.8,0.3,2.7,0.4c1.5,2.2,3.1,4.3,4.7,6.3c-2.4-0.6-4.6-1.5-6.6-2.8c-0.7-0.5-1.4,0.7-0.7,1.2c1.4,0.9,2.9,1.6,4.5,2.2
	c-1.6,0.7-3.3,0.8-4.9,0.2c-0.2-1-0.7-1.9-1.4-2.6c-0.3-0.3-0.7-0.3-1,0c-0.3,0.3-0.3,0.7,0,1c0.1,0.2,0.3,0.3,0.4,0.5l0,0l0,0
	c0,0,0.1,0.1,0.1,0.1c0.1,0.1,0.1,0.2,0.2,0.3c0.1,0.1,0.1,0.2,0.1,0.3c0,0,0,0.1,0.1,0.1l0,0c0.1,0.2,0.1,0.3,0.1,0.5l0,0
	c-0.1,0-0.2,0-0.3,0.1l-0.1,0c0,0-0.1,0-0.1,0c-0.3,0-0.6,0-0.9-0.1c-0.7-0.3-1.3-0.6-1.8-1.1c-0.3-0.3-0.7-0.3-1,0
	c-0.3,0.3-0.3,0.7,0,1c0.7,0.6,1.6,1.1,2.5,1.5c0.8,0.2,1.7,0.2,2.4-0.2c0,0,0,0,0.1,0c2.3,0.9,4.8,0.6,6.9-0.7
	c0.1-0.1,0.2-0.2,0.2-0.3c0.8,0.2,1.7,0.4,2.5,0.6c2.3,2.7,4.7,5.3,7.3,7.7c-1.3,0.2-2.6,0.2-3.9,0c0.1-1-0.1-2-0.7-2.9
	c-0.6-1-1.4-1.8-2.3-2.5c-0.3-0.3-0.7-0.3-1,0c-0.3,0.3-0.3,0.7,0,1c0.8,0.6,1.5,1.3,2,2.1c0.2,0.4,0.4,0.8,0.5,1.2
	c0.1,0.3,0.1,0.6,0.1,0.9c-1.5-0.4-2.9-1-4.1-1.8c-0.7-0.5-1.4,0.7-0.7,1.2c3.3,2.2,7.4,2.9,11.3,2.1c1.6,1.5,3.2,2.9,4.9,4.3
	c0,0.8,0,1.6,0,2.4c-0.1-0.1-0.3-0.1-0.4-0.2c-0.4-0.2-0.7-0.4-1-0.7c0,0-0.1-0.1-0.1-0.1l0,0l0,0c-0.1-0.1-0.2-0.1-0.2-0.2
	c-0.2-0.1-0.3-0.3-0.5-0.4c-0.3-0.3-0.6-0.6-0.8-0.9c-0.3-0.3-0.7-0.3-1,0c-0.3,0.3-0.3,0.7,0,1c1.1,1.3,2.5,2.3,4,3
	c-0.1,4.7-0.2,9.4-0.5,14c-0.2,3.6-0.5,7.5-0.8,11.1c-0.1,0.9,3.4,0.9,3.5,0c0.7-9.1-0.4-19-0.3-28.2c1.5-0.2,2.8-0.9,3.9-2l0,0
	c1.4,0.8,3.1,1.3,4.7,1.2c0.4,0,0.7-0.3,0.7-0.7s-0.3-0.7-0.7-0.7c-1.2,0-2.5-0.2-3.6-0.8c0.1-0.1,0.2-0.1,0.2-0.2c0,0,0,0,0.1,0
	c1.8,0.6,3.9,0.3,5.4-1c0.3-0.3,0.3-0.7,0-1c-0.3-0.3-0.7-0.3-1,0c0,0-0.1,0.1,0,0c0,0-0.1,0.1-0.1,0.1c-0.1,0.1-0.2,0.1-0.2,0.2
	c-0.2,0.1-0.3,0.2-0.5,0.3c0,0-0.1,0,0,0c0,0-0.1,0-0.1,0.1c-0.1,0-0.2,0.1-0.3,0.1c-0.2,0.1-0.4,0.1-0.6,0.1c0,0-0.1,0-0.1,0
	c0.1,0-0.1,0-0.1,0c-0.1,0-0.2,0-0.3,0c-0.2,0-0.4,0-0.6,0c0,0-0.1,0-0.1,0l0,0l0,0l-0.1,0c0.6-0.6,1.2-1.1,1.8-1.7
	c0.6-0.6-0.4-1.6-1-1c-0.7,0.7-1.4,1.3-2.1,2c0.1-0.3,0.1-0.6,0.2-0.9c0.2-0.7,0.5-1.4,0.9-2c0.2-0.3,0.1-0.7-0.2-0.9
	c-0.3-0.2-0.7-0.1-0.9,0.2c0,0,0,0,0,0c-0.8,1.5-1.3,3.2-1.5,4.9c0,0,0,0,0,0.1c-0.1,0.1-0.3,0.2-0.4,0.3c-0.7,0.5-1.4,1-2.1,1.5
	c-0.4,0.3-0.9,0.5-1.4,0.6c0,0,0,0-0.1-0.1c0-1,0-2.1,0-3.1c2-2,3.8-4.1,5.5-6.4c1.6-0.4,3.2-1,4.7-1.6c1.5,0.6,3.2,1,4.9,1
	c2.3,1.3,5,1.6,7.6,0.8c0.4-0.1,0.6-0.5,0.4-0.9c-0.1-0.3-0.5-0.5-0.8-0.5c-1.3,0.4-2.7,0.4-4.1,0.2c1-0.2,2-0.6,3-1.1
	c0.8-0.4,0.1-1.6-0.7-1.2c-2.7,1.3-5.7,1.6-8.6,0.7c2.6-1.3,5.1-2.8,7.3-4.7c1.8,0.1,3.5,1,4.7,2.3c0.3,0.3,0.7,0.3,1,0
	c0.3-0.3,0.3-0.7,0-1c-0.8-0.7-1.7-1.4-2.6-2c0.9-0.2,1.8-0.4,2.6-0.6c0.5,0.2,0.9,0.5,1.4,0.8c0.4,0.3,0.9,0.7,1.2,1.1
	c0.7,0.8,1.3,1.8,1.7,2.8c0.1,0.4,0.5,0.6,0.8,0.5c0.4-0.1,0.6-0.5,0.5-0.8c-0.7-2-2-3.7-3.7-4.8c1-0.3,1.9-0.7,2.9-1
	c1.8,0.3,3.5,1.3,4.7,2.6c0.3,0.3,0.7,0.3,1,0c0.3-0.3,0.3-0.7,0-1c-1-1.2-2.3-2-3.8-2.5c0.5-0.2,1-0.5,1.5-0.7
	c0.8,0,1.6-0.2,2.5-0.4c0,0,0.1,0,0,0l0,0l0,0c0,0,0.1,0,0.1,0c0.1,0,0.1,0,0.2,0.1c0,0,0.1,0,0.1,0l0,0c0.1,0,0.1,0.1,0.2,0.1
	c0.1,0,0.1,0.1,0.2,0.1c0,0,0.1,0,0.1,0.1l0,0c0,0,0.6,0.6,0.6,0.6c0,0.1,0.1,0.1,0.1,0.2l0.1,0.1c0.1,0.1,0.2,0.2,0.3,0.4
	c0.2,0.3,0.6,0.4,0.9,0.2c0.3-0.2,0.4-0.6,0.2-0.9c-0.4-0.5-0.8-1-1.3-1.5c0.6-0.2,1.3-0.2,1.9,0.1c0,0,0.1,0.1,0.1,0.1
	c0.1,0,0.2,0.1,0.2,0.1c0.2,0.1,0.3,0.2,0.4,0.3c0,0,0.1,0,0.1,0.1c0,0,0,0,0,0c0.1,0.1,0.1,0.1,0.2,0.2c0.1,0.1,0.1,0.1,0.2,0.2
	c0,0,0.1,0.1,0.1,0.1c0.1,0.1,0.1,0.1,0,0c0.2,0.3,0.6,0.4,0.9,0.2c0.3-0.2,0.4-0.6,0.2-0.9c-0.5-0.7-1.2-1.3-2.1-1.6
	c0.3,0,0.7,0,1,0c0.1,0,0.1,0,0.2,0c0.1,0,0.1,0,0.2,0c0.2,0,0.3,0.1,0.5,0.1c0.2,0,0.3,0.1,0.5,0.2c0.1,0,0.1,0.1,0.2,0.1
	c-0.1,0,0.1,0.1,0.2,0.1c0.3,0.2,0.7,0.1,0.9-0.2c0.2-0.3,0.1-0.7-0.2-0.9c-0.8-0.4-1.6-0.6-2.5-0.6c0.6-0.6,1.2-1.3,1.6-2
	c0.5-0.7-0.7-1.4-1.2-0.7c-1.3,2-3.3,3.5-5.7,4.3c1.6-2.2,2.8-4.7,3.6-7.4c0.1-0.4-0.1-0.7-0.5-0.8c-0.4-0.1-0.7,0.1-0.8,0.5
	c-0.7,2.4-1.9,4.8-3.3,6.8c0.1-1.7,0-3.4-0.4-5.1c-0.1-0.4-0.5-0.6-0.8-0.5c-0.4,0.1-0.6,0.5-0.5,0.8l0,0c0.4,1.9,0.5,3.9,0.2,5.9v0
	c-0.2,0.1-0.3,0.2-0.5,0.2c0,0-0.1,0-0.1,0c0-0.1,0.1-0.3,0.1-0.4c0.1-0.9-0.2-1.8-0.8-2.5c-0.3-0.3-0.7-0.3-1,0
	c-0.3,0.3-0.3,0.7,0,1l0,0c0,0,0,0.1,0.1,0.1c0,0.1,0.1,0.1,0.1,0.2c0,0,0.1,0.1,0.1,0.2c0,0.1,0,0.1,0.1,0.2c0,0.1,0,0.2,0.1,0.2
	c0,0,0,0.1,0,0.1l0,0c0,0.2,0,0.3,0,0.5c0,0,0,0,0,0c0,0,0,0.1,0,0.1c0,0.1,0,0.2-0.1,0.2c0,0.1,0,0.1-0.1,0.2c0,0-0.1,0.1-0.1,0.2
	c0,0.1-0.1,0.1-0.1,0.2c0,0-0.1,0.1-0.1,0.1c-0.1,0.1-0.2,0.2-0.3,0.3c0,0,0,0,0,0.1c-0.3,0.1-0.6,0.3-1,0.4l-0.1,0
	c-0.1-0.2-0.1-0.5-0.2-0.7c0-0.1,0-0.1,0-0.2c0-0.1,0-0.1,0-0.2c0-0.2,0-0.3,0-0.5c0-0.6,0.1-1.2,0.3-1.8c0.1-0.4-0.1-0.7-0.5-0.8
	c-0.4-0.1-0.7,0.1-0.8,0.5c-0.5,1.4-0.4,2.9,0,4.4c-2.3,0.8-4.6,1.5-7,1.9c0.7-0.6,1.3-1.3,2-2c0.6-0.7-0.4-1.6-1-1
	c-1,1.1-2,2.1-3.2,3.1c0-0.1,0-0.2,0-0.3c0-0.2,0-0.3,0-0.5c0,0,0-0.2,0-0.1c0-0.1,0-0.2,0-0.2c0.1-0.6,0.3-1.2,0.4-1.8
	c0.1-0.4-0.1-0.7-0.5-0.8c-0.4-0.1-0.7,0.1-0.8,0.5c-0.3,1.1-0.5,2.2-0.6,3.3c-0.5-1.5-0.5-3.1,0-4.5c0.1-0.4-0.1-0.7-0.5-0.8
	c-0.4-0.1-0.7,0.1-0.8,0.5c-0.6,2.2-0.4,4.6,0.6,6.7c-3.1,2.3-6.5,4.1-10.2,5.3c1.1-1.5,2.1-3.1,3-4.7c1.9-0.1,3.7-0.9,5.2-2.2
	c0.3-0.3,0.3-0.7,0-1c-0.3-0.3-0.7-0.3-1,0c-0.9,0.9-2.1,1.5-3.4,1.7c1.2-2.1,2.2-4.3,3.2-6.6c2.5-0.3,5-1,7.4-2
	c2.1,0.9,4.4,0.9,6.5,0.1c0.4-0.1,0.6-0.5,0.5-0.8c-0.1-0.4-0.5-0.6-0.8-0.5c-1.4,0.6-2.9,0.7-4.3,0.4c2.3-1.2,4.4-2.7,6.2-4.6
	c2.4-0.9,4.6-2.1,6.5-3.8c1.8,1.2,4.1,1.4,6.2,0.6c0.4-0.1,0.6-0.5,0.5-0.8c-0.1-0.4-0.5-0.6-0.8-0.5c-1.5,0.6-3.3,0.5-4.8-0.3
	c1.2-1.1,2.2-2.4,3-3.7c0,0,0.1,0,0.1,0c1.9,1.1,4.2,1.4,6.3,0.8c0.4-0.1,0.6-0.5,0.4-0.9c-0.1-0.3-0.5-0.5-0.8-0.5
	c-1.5,0.4-3,0.3-4.4-0.2c0.6-0.3,1.1-0.7,1.6-1.1C299.6,54.2,301.6,53.6,303,52.2z M285,56.4L285,56.4
	C284.9,56.3,284.9,56.4,285,56.4L285,56.4z M268,34.4L268,34.4L268,34.4L268,34.4z M269.9,26.5L269.9,26.5
	C269.9,26.4,269.9,26.4,269.9,26.5z M253.7,63.5C253.7,63.6,253.7,63.6,253.7,63.5c-0.2,4-0.5,8-0.6,12c-2-5.3-3.3-10.8-3.8-16.5
	C250.5,60.7,252,62.2,253.7,63.5z M237.3,47.1c-0.2-0.1-0.4-0.2-0.5-0.3c-0.1,0-0.1-0.1-0.2-0.1l0,0c-0.1-0.1-0.2-0.2-0.3-0.3
	c-0.3-0.3-0.7-0.3-1,0c-0.3,0.3-0.3,0.7,0,1c0.8,0.7,1.8,1.2,2.9,1.4c-0.4,2.7-0.8,5.3-1.3,8c-0.2-0.3-0.4-0.6-0.6-0.8
	c-0.7-0.9-1.6-1.5-2.6-1.9c-0.4-0.1-0.7,0.1-0.8,0.5c-0.1,0.4,0.1,0.7,0.5,0.8c0.1,0,0.1,0,0.2,0.1c0,0,0.1,0,0.1,0
	c0.1,0,0.2,0.1,0.2,0.1c0.2,0.1,0.4,0.2,0.5,0.4l0.1,0.1c0,0,0.1,0.1,0.1,0.1c0.1,0.1,0.2,0.1,0.2,0.2c0.2,0.2,0.3,0.4,0.5,0.6
	c0,0.1,0-0.1,0,0c0,0.1,0.1,0.1,0.1,0.2c0.1,0.1,0.1,0.2,0.2,0.3c0.1,0.2,0.2,0.4,0.4,0.6c0.1,0.1,0.1,0.2,0.2,0.3l0,0l0,0
	c0,0,0,0.1,0.1,0.1c0.1,0.2,0.1,0.4,0.2,0.6l0,0.1c-0.2,1.1-0.4,2.2-0.6,3.2c-1.4-2.1-2.7-4.2-4-6.4c-0.1-1,0-1.9,0.2-2.9
	c0.1-0.1,0.2-0.1,0.3-0.2l0,0l0,0c0.1,0,0.1-0.1,0.2-0.1c0.2-0.1,0.4-0.3,0.6-0.4c0.2-0.1,0.4-0.2,0.7-0.3l0.1,0c0.1,0,0.1,0,0.2,0
	l0,0c0,0,0.1,0,0.1,0c0.4,0.1,0.7-0.1,0.8-0.5c0.1-0.4-0.1-0.7-0.5-0.8c-0.4-0.1-0.7-0.1-1.1,0c-0.3,0.1-0.5,0.2-0.8,0.4
	c0.9-2.6,1.6-5.4,2.1-8.1C235.4,44.5,236.3,45.9,237.3,47.1z M227.7,62.4c-0.4-0.5-0.8-1.1-1.1-1.6c1-2,1.3-4.4,0.8-6.6
	c-0.1-0.4-0.5-0.6-0.9-0.4c-0.3,0.1-0.5,0.5-0.5,0.8c0.4,1.6,0.3,3.2-0.3,4.7c-1.6-3-2.6-6.3-3-9.7c1.9,1.7,4,3.2,6.3,4.4
	c0,0,0,0,0.1,0c0.3,0.6,0.6,1.1,0.9,1.7c0,0-0.1,0-0.1,0c-0.2,0-0.4,0.1-0.7,0.2c-0.2,0.1-0.3,0.2-0.4,0.3c-0.2,0.3-0.1,0.7,0.2,0.9
	c0.2,0.1,0.3,0.1,0.5,0.1c0.2-0.1,0.5-0.1,0.7-0.2c0.1,0,0.1,0,0.2,0c0,0,0.1,0,0.1,0l0,0c0,0,0,0,0.1,0.1c0,0,0,0,0,0
	c0.1,0.1,0.2,0.2,0.3,0.2c1.4,2.3,2.8,4.6,4.3,6.8c-1.3-0.2-2.6-0.5-3.9-0.8c0.3-1.6-0.2-3.1-1.2-4.3c-0.3-0.3-0.7-0.3-1,0
	c-0.3,0.3-0.3,0.7,0,1c0,0,0.1,0.1,0.1,0.1c0,0.1,0.1,0.1,0.1,0.2c0.1,0.1,0.2,0.3,0.3,0.4c0,0.1,0.1,0.1,0.1,0.2l0,0
	c0,0,0,0.1,0,0.1c0.1,0.2,0.1,0.3,0.1,0.5c0,0.1,0.1,0.3,0.1,0.4c0,0,0,0.1,0,0.2c0,0.1,0,0.2,0,0.2c0,0.2,0,0.3,0,0.5
	c0,0,0,0.2,0,0.2l0,0C229.3,62.9,228.5,62.7,227.7,62.4z M235.3,75.4c2.9,0.3,5.9,0.3,8.8,0.1c0.2,0.2,0.4,0.4,0.5,0.6
	c1.6,1.8,3.2,3.4,4.9,5.1c-0.5,0.2-1.1,0.3-1.6,0.4c-2.2-0.5-4-1.9-5.1-3.8c-0.4-0.8-1.6-0.1-1.2,0.7c0.8,1.5,2,2.7,3.5,3.5
	c-1.6,0.1-3.2,0.1-4.8-0.2C238.6,79.7,236.9,77.6,235.3,75.4z M250.4,82.4c0.1,0,0.2-0.1,0.3-0.2c0.7,0.7,1.5,1.4,2.2,2.1
	c0.1,3.4,0.1,6.8,0.1,10.2c-2-1.7-3.9-3.4-5.8-5.2l0,0c0.5-1.5,0.7-3,0.4-4.6c-0.1-0.4-0.5-0.6-0.8-0.5c-0.4,0.1-0.6,0.5-0.5,0.8
	c0,0.1,0,0.1,0,0c0,0.1,0,0.1,0,0.2c0,0.1,0,0.2,0,0.2c0,0.2,0,0.4,0,0.5c0,0.3,0,0.7,0,1c0,0.2,0,0.2-0.1,0.4
	c0,0.2-0.1,0.3-0.1,0.5c0,0.1-0.1,0.2-0.1,0.3c-1.6-1.6-3.1-3.2-4.6-4.9C244.6,83.6,247.6,83.2,250.4,82.4z M264.2,77.6
	c-0.3-1.1-0.4-2.2-0.4-3.3c0-0.4-0.3-0.7-0.7-0.7s-0.7,0.3-0.7,0.7c0,1.6,0.3,3.3,0.8,4.8c0,0,0,0.1,0.1,0.1c0,0,0,0,0,0.1l0,0
	c-0.1-0.1-0.1-0.1-0.2-0.2c0,0-0.1-0.1-0.1-0.1l0,0c-0.2-0.3-0.4-0.6-0.6-0.9c0-0.1-0.1-0.2-0.1-0.2c0,0,0-0.1,0-0.1l0,0
	c-0.1-0.2-0.1-0.3-0.2-0.5c-0.1-0.2-0.1-0.4-0.1-0.5c0-0.1,0-0.2-0.1-0.3l0,0l0,0c0-0.1,0-0.1,0-0.2c0-0.4-0.3-0.7-0.7-0.7
	c-0.4,0-0.7,0.3-0.7,0.7c0.2,1.6,0.9,3.2,2.1,4.3c-1.2,2-2.5,3.9-3.9,5.7c-0.5-2.5-0.4-5,0.3-7.4c0.1-0.4-0.1-0.7-0.5-0.8
	c-0.4-0.1-0.7,0.1-0.8,0.5c-0.9,3-0.9,6.1-0.1,9.1c0,0,0,0,0,0.1c-0.9,1.1-1.9,2.2-2.9,3.2c0-4.1,0.1-8.2,0.4-12.3
	c1.4-2.4,2.7-4.8,3.9-7.2c2.6,0.7,5.3,0.9,8,0.7C266.1,73.9,265.2,75.8,264.2,77.6z M271,64.6c0.1-0.4-0.1-0.7-0.5-0.8
	c-0.4-0.1-0.7,0.1-0.8,0.5c-0.2,0.6-0.4,1.2-0.5,1.7c0-0.1-0.1-0.3-0.1-0.4c-0.2-0.6-0.2-1.3-0.2-1.9c0-0.4-0.3-0.7-0.7-0.7
	c-0.4,0-0.7,0.3-0.7,0.7c0,1.5,0.4,3,1.1,4.4c-0.2,0.5-0.4,1.1-0.6,1.6c-0.1-0.1-0.2-0.2-0.3-0.2c-0.2-0.1-0.3-0.3-0.4-0.4
	c-0.1-0.1-0.1-0.2-0.2-0.2c0,0,0,0,0,0l0-0.1c0,0-0.1-0.1-0.1-0.1c-0.1-0.2-0.2-0.4-0.3-0.6c0-0.1-0.1-0.2-0.1-0.3
	c0,0,0-0.1-0.1-0.1c0,0.1,0,0,0-0.1c-0.1-0.2-0.1-0.4-0.2-0.6c0-0.1,0-0.2-0.1-0.3c0,0,0-0.1,0-0.1l0,0c0,0,0,0,0,0
	c0-0.2,0-0.4,0-0.7c0-0.4-0.3-0.7-0.7-0.7s-0.7,0.3-0.7,0.7c0,1.9,0.9,3.7,2.4,4.9c-2.5,0.2-5,0-7.4-0.6c1.5-3,2.9-6,4.3-9
	c2.3,0,4.4-0.8,6.2-2.2c0.3-0.3,0.3-0.7,0-1c-0.3-0.3-0.7-0.3-1,0c-1,0.7-2.1,1.3-3.2,1.5c2.5-2.4,4.7-5,6.8-7.8
	c0.3,1.3,0.7,2.7,1.2,3.9l0,0c-0.2,0-0.5,0-0.7,0l0,0c-0.1,0-0.1,0-0.2,0c-0.1,0-0.2-0.1-0.4-0.1c-0.1,0-0.2-0.1-0.4-0.1l0,0l0,0
	c-0.1,0-0.1-0.1-0.2-0.1c-0.3-0.2-0.7-0.1-0.9,0.2c-0.2,0.3-0.1,0.7,0.2,0.9c1,0.5,2.1,0.7,3.2,0.5c0.3,0.7,0.7,1.4,1.1,2
	c-0.5,1.6-0.8,3.2-1.1,4.9c0-0.1-0.1-0.1-0.2-0.2l0-0.1l-0.1-0.1c-0.1-0.1-0.1-0.1-0.2-0.2c-0.1-0.1-0.2-0.3-0.3-0.5
	c-0.1-0.1-0.2-0.3-0.2-0.5l0,0c0,0,0,0,0,0c0,0,0-0.1,0-0.1c0-0.1-0.1-0.2-0.1-0.3c-0.1-0.3-0.2-0.7-0.2-1c-0.1-0.4-0.5-0.6-0.8-0.5
	c-0.4,0.1-0.6,0.5-0.5,0.8c0.2,1.6,1,3,2.2,4.1c0.1,0,0.1,0.1,0.2,0.1c-0.2,1.2-0.3,2.5-0.3,3.7c-1.6,0.6-3.3,1-5,1.3
	C269.8,68.5,270.4,66.6,271,64.6L271,64.6z"/>
</svg>
