<?xml version="1.0" encoding="utf-8"?>
<!-- Generator: Adobe Illustrator 24.0.0, SVG Export Plug-In . SVG Version: 6.00 Build 0)  -->
<svg version="1.1" id="Layer_1" xmlns="http://www.w3.org/2000/svg" xmlns:xlink="http://www.w3.org/1999/xlink"
	 viewBox="0 0 1280 800" height="100" style="enable-background:new 0 0 1280 1024;" xml:space="preserve">
<style type="text/css">
	.st0{fill:#231F20;}
	.st1{fill:none;stroke:#231F20;stroke-width:3;stroke-miterlimit:10;}
</style>
<path class="st0" d="M515.57,317.93c3.03,3.03,1.38,15.96,1.38,23.94c0,4.95,0.83,9.08,0.83,12.93c0,4.13-0.83,8.26-0.83,12.11
	c0.83,3.3,0,15.41,1.65,16.23c2.48,1.65,4.95-6.6,5.78-7.43c2.48-5.5,0.83-2.2,3.85-8.81c3.3-6.33,6.6-12.93,9.08-17.61
	c2.2-4.95,5.5-12.11,7.98-17.89c2.48-3.85,4.13-11.28,7.98-14.31c2.48-2.48,10.46-2.48,17.89-2.48c5.5,0.83,11.28,0.83,12.93,3.85
	c2.2,4.95-6.6,17.89-9.08,23.39c-3.03,6.6-5.5,10.73-8.81,16.24c-0.83,1.65-0.83,3.3-1.65,5.78c-3.03,7.98-7.15,13.48-11.28,21.74
	c-1.65,3.03-3.03,7.15-5.5,10.46c-1.65,4.68-4.13,8.81-4.13,12.11c0,4.68,3.3,11.28,4.95,14.31c5.5,10.73,11.28,21.19,16.79,32.47
	c0.83,2.2,0.83,4.68,2.48,7.15c2.48,6.33,5.78,11.28,9.63,19.26c2.48,5.78,8.81,16.23,7.43,20.91c-2.48,5.78-9.08,4.13-16.24,4.13
	c-8.81,0-15.41,0-18.44-1.65c-3.3-2.48-5.78-11.28-8.25-15.96c-5.5-12.93-7.98-20.36-14.31-33.85c-1.65-4.95-4.13-9.91-6.6-13.76
	c-3.3-4.13-3.3,8.81-4.13,14.58c0,7.15,0,12.66,0,15.96c0,10.46,2.48,28.34-2.2,33.02c-4.95,4.13-28.34,3.3-31.64-2.48
	c-0.83-3.03,0-12.66,0-20.91c0.83-7.98,0-12.93,0-20.09c-0.83-17.61-0.83-33.85-0.83-51.46c0-6.6,1.65-12.93,0.83-17.89
	c0-3.3-0.83-5.5-0.83-8.81c0-2.48,0.83-4.13,0.83-6.6c0-5.5-0.83-11.28-0.83-16.79c0-5.78,0.83-11.28,0.83-16.23
	c0-7.16-2.2-15.96-0.83-21.74c0.83-2.48,3.3-4.68,4.13-5.5c0.83,0,0.83,0,1.65-0.83C494.38,312.97,512.27,313.8,515.57,317.93z"/>
<path class="st0" d="M693.11,317.1c1.65,0.83,1.65,3.85,2.48,7.15c0.83,6.33,0,19.26,0,26.69c-0.83,12.11,0,24.77,0,33.85
	c0,15.96,0,40.17,0,53.93c0,14.58,0,34.67-0.83,51.73c0,7.15,0.83,12.66-2.48,15.13c-3.85,2.48-26.69,2.48-29.72,0
	c-3.3-3.3-1.65-13.76-1.65-20.91c0-3.3,0-6.33,0-9.63c0-15.41-0.83-29.99,0-47.6c0-4.13,0.83-8.81,0-10.46
	c-2.48-2.48-8.81-0.83-13.76-0.83c-3.3,0-10.46-2.48-13.76,0.83c-3.03,4.13-1.65,15.41-1.65,22.56c0,17.61,0.83,26.69,0.83,45.13
	c0,9.63,0.83,17.61-3.85,20.91c-4.95,3.3-24.22,2.48-27.52-0.82c-4.95-4.68-4.13-23.39-4.13-34.67c0-34.67,1.65-60.26,0.83-91.08
	c0-6.33,0.83-12.93,0.83-17.61c0-3.3-0.83-6.6-1.65-11.28c0-2.48,0.83-5.78,0.83-8.26c0.83-8.81-0.83-20.09,0.83-23.39
	c3.3-4.68,28.34-5.5,32.2-0.55c3.3,4.68,0.83,14.31,0.83,20.09c-0.83,6.33,0,14.58,0,23.39c0,2.48,0,7.15,0,11.28
	c0,3.85,0,9.63,0.83,11.28c1.65,2.48,9.91,2.48,13.76,2.48c3.3,0,12.11,0.83,13.76-1.65c1.65-2.48,1.65-16.24,1.65-20.91
	c0-12.93,0-20.36,0-33.3c0-4.68-0.83-9.63,0.82-12.66c1.65-3.3,5.5-2.48,8.81-3.3C673.85,314.62,689.81,312.97,693.11,317.1z"/>
<path class="st0" d="M763.44,311.32c12.93-0.83,25.87,3.3,33.85,7.15c2.48,1.65,7.98,7.43,9.63,9.91c4.13,5.5,6.6,9.63,7.98,16.79
	c0.83,1.65,1.65,2.48,1.65,3.3c0,0.83,0,1.65,0,3.3c0.82,3.85,2.48,7.98,3.3,10.46c0,3.03,0,5.5,0,8.81c0,2.48,0.83,4.68,0.83,7.15
	c1.65,14.58,0.83,31.65,0,47.61c0,10.46,0,20.91-1.65,30.54c-1.65,9.91-4.13,20.36-6.33,25.87c-0.83,1.65-3.3,5.78-4.95,7.43
	l-0.83,0.83c-2.48,3.85-7.16,7.15-12.11,10.46c-2.48,1.38-3.3,2.2-5.5,3.03c-2.48,0.83-4.95,0.83-9.08,1.65
	c-2.2,0-4.68,1.65-7.15,1.65c-5.5,0.83-12.93,0.83-16.79,0.83c-4.95-0.83-10.73-2.48-15.41-4.95c-0.83,0-1.65-1.38-1.65-1.38
	c-2.48-0.83-5.78-2.48-7.16-3.3c-3.3-2.48-7.43-7.43-9.91-10.46c-5.5-9.63-9.63-24.21-10.46-37.97
	c-0.82-10.46-0.82-24.22-0.82-33.02c-0.83-6.6,0-13.76,0.82-20.09c0-9.08,0-18.71,0.83-26.69c0.83-4.13,1.65-7.98,2.48-11.28
	c0-4.95,0-8.81,0.83-12.93c2.48-7.15,7.98-19.26,13.76-24.21c1.65-0.83,3.85-2.48,6.33-3.85c6.6-3.3,16.24-5.78,26.69-6.6H763.44z
	 M747.21,365.26c-2.48,20.36-1.65,42.1-0.83,63.01c0.83,16.24,1.65,41,9.08,46.78c0,0.83,2.2,1.65,3.85,2.48
	c6.6,2.2,12.11,0.83,17.06-2.48c1.65-1.65,3.85-4.13,4.68-5.78c2.48-3.85,4.13-15.13,4.95-22.56c0-6.33,0-14.31,0.83-23.39
	c0-17.61-0.83-35.5-2.48-50.63c-0.83-10.46-1.65-20.09-4.95-25.04c-2.2-3.3-5.5-5.78-8.81-6.6c-3.85-1.38-5.5,0-7.16,0h-0.83
	C752.16,342.69,748.86,353.15,747.21,365.26z"/>
<g>
	<g>
		<path class="st0" d="M871.99,314.51c3.85,3.85,3.3,97.9,3.3,110c-0.83,26.42-0.83,45.13-0.83,73.2c0,4.95,0.83,7.43,0.83,10.73
			c0,6.33-1.65,15.96-0.83,25.59c0,9.63,0.83,150.04-1.65,155.55c-1.65,7.15-8.25,15.41-14.58,19.26
			c-6.33,4.13-17.06,5.78-29.72,4.95c-8.25-0.83-17.89-1.65-21.19-6.6c-0.82-2.2-0.82-8.81-0.82-13.48c0-6.6,0-11.28,2.48-12.93
			c4.95-2.48,15.41,5.5,23.39,3.3c3.3-0.82,6.6-4.13,8.25-9.91c0.55-4.68,0-140.14,0-145.64c0-4.95,0.55-8.81,0.55-13.76
			c0-9.63,0-20.09,0-29.72c0-12.11-1.38-23.39-1.38-34.12c0-15.14,0.82-105.88,0.82-119.64c0-9.63-3.3-15.96,3.85-19.26
			C850.25,310.38,867.86,310.38,871.99,314.51z"/>
	</g>
	<path d="M812.15,710.79c0,0-55.22-14.03-59.12-50.16c-3.91-36.13,21.97-59.56,21.97-59.56s23.43-20.5,22.95-29.78
		c-0.49-9.28,18.55,41.99,18.55,41.99l-16.77-12.21l-0.8-0.73l-10.25,12.45c0,0-44.83,49.99,32.02,69.91L812.15,710.79z"/>
</g>
<g>
	<path class="st1" d="M315.72,498.97"/>
	<path class="st0" d="M388.83,502.86c-10.71-0.04-28.72-3.78-36.6-16.2c-7.88,12.41-25.89,16.16-36.6,16.2l-0.03-7.78
		c1.34-0.01,32.74-0.45,32.74-22.47h7.78c0,22.02,31.41,22.47,32.74,22.47L388.83,502.86z"/>
	<path class="st0" d="M461.95,502.86c-10.71-0.04-28.72-3.78-36.6-16.2c-7.88,12.41-25.89,16.16-36.6,16.2l-0.03-7.78
		c1.34-0.01,32.74-0.45,32.74-22.47h7.78c0,22.02,31.41,22.47,32.74,22.47L461.95,502.86z"/>
</g>
<path class="st0" d="M964.38,504.04c-10.71-0.04-28.72-3.78-36.6-16.2c-7.88,12.41-25.89,16.16-36.6,16.2l-0.03-7.78
	c1.34-0.01,32.74-0.45,32.74-22.47h7.78c0,9.07,5.3,15.58,15.74,19.36c8.42,3.05,16.91,3.11,17,3.11L964.38,504.04z"/>
<path d="M485.17,623.19c0,14.63-0.9,28.66-3.28,40.6c-0.3,1.49,0.6,2.69,1.79,3.28c0.3,0.3,0.9,0.3,1.19,0.3
	c0.9,0,1.79-0.6,2.39-1.49l23.58-35.82c7.46,8.06,24.48,22.99,52.84,29.85l-2.39,7.16c-0.6,1.79,0.3,3.28,1.79,3.88
	c6.57,2.09,12.83,2.99,19.4,2.99c13.43,0,26.87-4.78,37.91-13.43c23.88-5.97,40.6-20.6,40.6-37.31s-16.72-31.34-40.6-37.32
	c-16.42-12.83-37.61-16.72-57.31-10.15c-1.49,0.6-2.39,2.39-1.79,3.88l2.39,7.16c-28.36,6.87-45.37,21.79-52.84,29.85l-23.58-35.82
	c-0.9-1.19-2.39-1.79-3.58-1.19s-2.09,1.79-1.79,3.28C483.97,594.53,485.16,608.56,485.17,623.19L485.17,623.19z M568.15,580.5
	c12.24-3.28,25.07-2.39,36.72,2.98c-2.99-0.3-5.97-0.3-8.96-0.3c-9.55,0-18.21,0.9-26.27,2.39L568.15,580.5L568.15,580.5z
	 M604.87,663.19c-11.64,5.07-24.48,5.97-36.72,2.98l1.49-5.07c7.76,1.49,16.72,2.39,26.27,2.39
	C598.9,663.49,601.88,663.49,604.87,663.19L604.87,663.19z M512.93,623.19c7.16-8.36,32.84-34.33,82.99-34.33
	c31.94,0,59.1,15.82,59.1,34.33c0,18.51-27.17,34.33-59.1,34.33C546.06,657.52,520.09,631.55,512.93,623.19z M489.64,651.25
	c1.2-8.96,1.49-17.91,1.5-27.76c0-9.85-0.6-19.4-1.49-28.06l18.51,27.76L489.64,651.25L489.64,651.25z M622.78,601.69
	c-7.46,0-13.73,5.97-13.73,13.73s5.97,13.73,13.73,13.73c7.76,0,13.73-5.97,13.73-13.73C636.51,607.66,630.24,601.69,622.78,601.69
	L622.78,601.69z M615.02,615.13c0-4.48,3.28-7.76,7.76-7.76c4.48,0,7.76,3.28,7.76,7.76c0,4.48-3.58,7.76-7.76,7.76
	C618.6,622.89,615.02,619.61,615.02,615.13z"/>
<path d="M695.95,596.27c-4.49,0-8.14-3.65-8.14-8.14c0-4.49,3.65-8.14,8.14-8.14c4.49,0,8.14,3.65,8.14,8.14
	C704.09,592.61,700.44,596.27,695.95,596.27z M695.95,585.17c-1.63,0-2.96,1.33-2.96,2.96s1.33,2.96,2.96,2.96s2.96-1.33,2.96-2.96
	S697.58,585.17,695.95,585.17z"/>
<path d="M729.3,571.64c-6.62,0-12-5.38-12-12s5.38-12,12-12s12,5.38,12,12S735.92,571.64,729.3,571.64z M729.3,552.82
	c-3.76,0-6.81,3.06-6.81,6.81s3.06,6.81,6.81,6.81s6.81-3.06,6.81-6.81S733.06,552.82,729.3,552.82z"/>
<circle cx="624.9" cy="613.97" r="3.42"/>
</svg>
