<?xml version="1.0" encoding="utf-8"?>
<!-- Uploaded to: SVG Repo, www.svgrepo.com, Generator: SVG Repo Mixer Tools -->
<svg width="800px" height="800px" viewBox="0 0 1024 1024" fill="#000000" class="icon"  version="1.1" xmlns="http://www.w3.org/2000/svg"><path d="M8.06 831.958a7.906 7.906 0 0 1-4.578-1.454 7.992 7.992 0 0 1-1.968-11.138l223.97-319.958a7.992 7.992 0 0 1 11.138-1.952 7.992 7.992 0 0 1 1.968 11.138L14.622 828.552a7.994 7.994 0 0 1-6.562 3.406zM152.042 1007.936a7.88 7.88 0 0 1-4.468-1.376 7.986 7.986 0 0 1-2.156-11.092l431.946-639.918c2.498-3.686 7.498-4.64 11.092-2.156a7.966 7.966 0 0 1 2.154 11.092L158.68 1004.404a7.978 7.978 0 0 1-6.638 3.532z" fill="" /><path d="M1015.93 1007.936a7.964 7.964 0 0 1-6.624-3.532L577.364 364.488a7.966 7.966 0 0 1 2.154-11.092c3.61-2.484 8.61-1.53 11.092 2.156l431.946 639.918a7.964 7.964 0 0 1-2.156 11.092 7.854 7.854 0 0 1-4.47 1.374zM344.008 671.948a7.994 7.994 0 0 1-6.562-3.406l-111.96-159.948a7.992 7.992 0 0 1 1.968-11.138 7.99 7.99 0 0 1 11.138 1.952l111.962 159.948a7.994 7.994 0 0 1-1.968 11.138 7.898 7.898 0 0 1-4.578 1.454zM871.95 1007.936a7.972 7.972 0 0 1-6.782-3.766l-79.958-127.952a7.99 7.99 0 0 1 2.546-11.016 7.992 7.992 0 0 1 11.014 2.546l79.958 127.954a7.99 7.99 0 0 1-2.546 11.014 7.9 7.9 0 0 1-4.232 1.22zM296.022 1007.936a7.994 7.994 0 0 1-6.772-12.232l79.974-127.954a7.994 7.994 0 1 1 13.56 8.47l-79.972 127.952a7.98 7.98 0 0 1-6.79 3.764zM567.988 559.992c-0.954 0-1.906-0.172-2.844-0.532l-63.968-24.372a7.986 7.986 0 0 1-4.624-10.31 7.95 7.95 0 0 1 10.326-4.624l63.954 24.374a7.966 7.966 0 0 1 4.624 10.31 7.962 7.962 0 0 1-7.468 5.154z" fill="" /><path d="M567.988 559.992a8.02 8.02 0 0 1-7.156-4.42 8.008 8.008 0 0 1 3.578-10.732l63.992-31.996a8.15 8.15 0 0 1 3.578-0.844h15.998a7.994 7.994 0 0 1 7.998 7.998c0 4.422-3.578 8-7.998 8h-14.108l-62.304 31.15a7.96 7.96 0 0 1-3.578 0.844zM583.986 336.022a7.994 7.994 0 0 1-7.998-8V104.052c0-4.422 3.576-8 7.998-8s7.998 3.578 7.998 8v223.97c0 4.424-3.576 8-7.998 8z" fill="" /><path d="M743.964 144.046h-159.978a7.994 7.994 0 0 1-7.998-7.998c0-4.422 3.576-8 7.998-8h159.978c4.422 0 8 3.578 8 8a7.994 7.994 0 0 1-8 7.998zM743.964 192.042h-159.978c-4.422 0-7.998-3.578-7.998-8s3.576-8 7.998-8h159.978c4.422 0 8 3.578 8 8s-3.578 8-8 8z" fill="" /><path d="M743.964 192.042a7.994 7.994 0 0 1-7.998-8V136.048c0-4.422 3.578-8 7.998-8 4.422 0 8 3.578 8 8v47.994c0 4.42-3.578 8-8 8zM871.95 192.042H775.96c-4.422 0-7.998-3.578-7.998-8s3.576-8 7.998-8h95.988c4.422 0 7.998 3.578 7.998 8s-3.574 8-7.996 8zM871.95 240.036h-175.976c-4.422 0-8-3.578-8-8a7.994 7.994 0 0 1 8-7.998h175.976a7.994 7.994 0 0 1 7.998 7.998c0 4.422-3.576 8-7.998 8z" fill="" /><path d="M871.95 240.036c-1.672 0-3.36-0.516-4.796-1.594l-31.996-23.998c-2.016-1.516-3.204-3.89-3.204-6.406s1.188-4.89 3.204-6.406l31.996-23.996a8.008 8.008 0 0 1 11.204 1.61 8.02 8.02 0 0 1-1.61 11.202l-23.466 17.592 23.466 17.592a8.02 8.02 0 0 1 1.61 11.202 8.028 8.028 0 0 1-6.408 3.202zM695.972 240.036a7.996 7.996 0 0 1-5.656-13.654l47.994-47.994a7.996 7.996 0 1 1 11.31 11.31l-47.994 47.994a7.968 7.968 0 0 1-5.654 2.344zM232.038 641.31c-0.92 0-1.834-0.156-2.718-0.468l-47.994-17.326a8.006 8.006 0 0 1-4.804-10.248c1.5-4.14 6.086-6.28 10.24-4.812l45.276 16.358 45.276-16.358c4.172-1.466 8.75 0.672 10.242 4.812a8.006 8.006 0 0 1-4.804 10.248l-47.994 17.326a8.148 8.148 0 0 1-2.72 0.468zM136.052 208.04c-30.872 0-55.994-25.122-55.994-55.992 0-30.872 25.122-55.994 55.994-55.994s55.992 25.124 55.992 55.994c0 30.868-25.122 55.992-55.992 55.992z m0-95.99c-22.052 0-39.996 17.936-39.996 39.996 0 22.058 17.944 39.994 39.996 39.994 22.05 0 39.994-17.936 39.994-39.994 0-22.06-17.944-39.996-39.994-39.996zM136.052 80.056c-4.422 0-8-3.578-8-8V24.062a7.994 7.994 0 0 1 8-7.998 7.994 7.994 0 0 1 7.998 7.998v47.994c0 4.422-3.578 8-7.998 8zM136.052 288.03c-4.422 0-8-3.578-8-8v-47.994a7.994 7.994 0 0 1 8-7.998 7.994 7.994 0 0 1 7.998 7.998v47.994c0 4.422-3.578 8-7.998 8zM96.064 90.774a8.01 8.01 0 0 1-6.936-4L65.13 45.202a7.988 7.988 0 0 1 2.928-10.92c3.812-2.234 8.71-0.906 10.928 2.92l23.998 41.574a7.986 7.986 0 0 1-2.93 10.92 7.88 7.88 0 0 1-3.99 1.078zM200.05 270.89a8.01 8.01 0 0 1-6.936-4l-23.998-41.572a7.988 7.988 0 0 1 2.928-10.92c3.812-2.25 8.71-0.906 10.928 2.92l23.998 41.574a7.986 7.986 0 0 1-2.93 10.92 7.876 7.876 0 0 1-3.99 1.078zM66.77 120.05a7.894 7.894 0 0 1-3.992-1.078L21.206 94.976a7.986 7.986 0 0 1-2.928-10.92c2.21-3.828 7.108-5.17 10.928-2.922l41.572 23.998a7.988 7.988 0 0 1 2.93 10.92 8.008 8.008 0 0 1-6.938 3.998zM246.872 224.038a7.894 7.894 0 0 1-3.992-1.078l-41.556-23.998a7.986 7.986 0 0 1-2.93-10.92c2.218-3.828 7.092-5.17 10.928-2.92l41.556 23.998a7.988 7.988 0 0 1 2.93 10.92 8.006 8.006 0 0 1-6.936 3.998zM8.068 160.06a8 8 0 0 1 0-15.998l47.994-0.016a8 8 0 0 1 0 15.998l-47.994 0.016zM264.034 160.06l-47.994-0.016a8 8 0 0 1 0-15.998l47.994 0.016a8 8 0 0 1 0 15.998zM25.23 224.052a8.006 8.006 0 0 1-6.936-4 7.988 7.988 0 0 1 2.928-10.92L62.78 185.12c3.804-2.25 8.718-0.906 10.928 2.92a7.986 7.986 0 0 1-2.93 10.92l-41.556 24.012a7.876 7.876 0 0 1-3.992 1.08zM205.332 120.05a8.006 8.006 0 0 1-4.006-14.936l41.572-23.982a8.014 8.014 0 0 1 10.928 2.938 7.986 7.986 0 0 1-2.93 10.92l-41.572 23.998a8.016 8.016 0 0 1-3.992 1.062zM72.068 270.89c-1.36 0-2.726-0.344-3.992-1.078a7.986 7.986 0 0 1-2.928-10.92l23.982-41.574a7.956 7.956 0 0 1 10.928-2.92 7.986 7.986 0 0 1 2.93 10.92l-23.982 41.572a8.008 8.008 0 0 1-6.938 4zM176.038 90.774c-1.36 0-2.734-0.344-3.992-1.078a7.988 7.988 0 0 1-2.928-10.92l24.012-41.558c2.21-3.828 7.1-5.17 10.928-2.92a7.986 7.986 0 0 1 2.93 10.92L182.974 86.774a8.004 8.004 0 0 1-6.936 4zM360.014 368.034a8 8 0 0 1-7.914-6.888c-3.492-24.826-39.706-25.106-40.072-25.106-4.422 0-8-3.578-8-8s3.578-8 8-8c17.452 0 51.586 8.124 55.914 38.886a7.986 7.986 0 0 1-7.928 9.108z" fill="" /><path d="M360.022 368.034c-0.898 0-1.812-0.156-2.704-0.468a8.006 8.006 0 0 1-4.828-10.232c8.124-22.622 48.604-35.542 53.19-36.948a8.01 8.01 0 0 1 9.982 5.312 8.012 8.012 0 0 1-5.312 10c-14.374 4.39-38.706 15.638-42.8 27.044a8 8 0 0 1-7.528 5.292zM120.054 432.01a7.998 7.998 0 0 1-7.61-5.546c-4.554-14.078-20.808-11.014-22.66-10.64-4.21 0.954-8.562-1.782-9.514-6.092a7.966 7.966 0 0 1 6.014-9.514c11.108-2.578 34.066-1.312 41.376 21.342a7.986 7.986 0 0 1-5.148 10.06 7.994 7.994 0 0 1-2.458 0.39z" fill="" /><path d="M120.062 432.01c-0.422 0-0.852-0.032-1.29-0.11a8 8 0 0 1-6.618-9.17c2.75-16.936 30.488-21.624 38.926-22.654 4.406-0.624 8.358 2.578 8.904 6.954a8.004 8.004 0 0 1-6.96 8.92c-12.724 1.578-24.622 6.546-25.076 9.342a8.004 8.004 0 0 1-7.886 6.718z" fill="" /></svg>