<svg width="800" height="800" viewBox="0 0 800 800" fill="none" xmlns="http://www.w3.org/2000/svg">
<circle cx="106" cy="119" r="34" fill="#F1E8B3"/>
<rect x="458" y="107" width="123" height="35" fill="#F1E8B3"/>
<path d="M576.5 147H664V180.5L549.5 176L576.5 147Z" fill="#F1E8B3"/>
<path d="M6.29691 649.967C5.01577 649.969 3.76587 649.572 2.72035 648.831C2.04757 648.361 1.47405 647.763 1.03259 647.071C0.591136 646.38 0.290408 645.607 0.147609 644.799C0.00481037 643.991 0.0227417 643.163 0.200378 642.361C0.378013 641.56 0.711869 640.802 1.18285 640.13L176.159 390.162C176.63 389.491 177.229 388.918 177.921 388.478C178.614 388.038 179.386 387.738 180.194 387.597C181.002 387.455 181.83 387.474 182.631 387.653C183.432 387.831 184.19 388.166 184.861 388.637C185.534 389.107 186.107 389.706 186.549 390.397C186.99 391.089 187.291 391.861 187.434 392.67C187.577 393.478 187.559 394.306 187.381 395.107C187.203 395.909 186.869 396.667 186.398 397.339L11.4235 647.306C10.8463 648.13 10.0788 648.802 9.18629 649.265C8.29375 649.728 7.30253 649.969 6.29691 649.967ZM118.783 787.45C117.537 787.453 116.32 787.078 115.292 786.375C114.612 785.917 114.029 785.329 113.577 784.646C113.124 783.962 112.81 783.196 112.654 782.391C112.498 781.586 112.501 780.759 112.665 779.955C112.829 779.152 113.149 778.389 113.608 777.709L451.066 277.773C453.017 274.894 456.923 274.148 459.731 276.089C460.413 276.546 460.997 277.133 461.451 277.816C461.904 278.5 462.219 279.267 462.375 280.072C462.531 280.877 462.527 281.706 462.362 282.509C462.197 283.313 461.875 284.076 461.414 284.755L123.969 784.691C123.398 785.541 122.626 786.238 121.721 786.72C120.817 787.201 119.807 787.452 118.783 787.45Z" fill="black"/>
<path d="M793.695 787.45C792.672 787.451 791.665 787.2 790.762 786.718C789.86 786.237 789.09 785.541 788.52 784.691L451.066 284.756C450.605 284.078 450.283 283.314 450.118 282.511C449.953 281.707 449.948 280.879 450.105 280.073C450.261 279.268 450.575 278.502 451.029 277.818C451.483 277.135 452.067 276.547 452.749 276.091C455.569 274.15 459.475 274.895 461.414 277.775L798.872 777.711C799.333 778.39 799.655 779.153 799.82 779.957C799.985 780.76 799.989 781.589 799.833 782.394C799.676 783.2 799.362 783.966 798.908 784.65C798.454 785.333 797.869 785.92 797.188 786.377C796.16 787.081 794.941 787.455 793.695 787.45ZM268.756 524.959C267.751 524.961 266.759 524.72 265.867 524.257C264.974 523.794 264.207 523.122 263.63 522.298L176.161 397.339C175.69 396.667 175.356 395.909 175.179 395.107C175.001 394.306 174.983 393.478 175.126 392.67C175.269 391.861 175.569 391.089 176.011 390.397C176.452 389.706 177.026 389.108 177.698 388.638C178.37 388.166 179.127 387.831 179.928 387.652C180.729 387.473 181.557 387.454 182.365 387.596C183.174 387.738 183.946 388.037 184.638 388.478C185.331 388.918 185.929 389.491 186.4 390.163L273.87 515.122C274.341 515.794 274.675 516.552 274.852 517.354C275.03 518.155 275.048 518.983 274.905 519.791C274.762 520.599 274.462 521.371 274.02 522.063C273.579 522.755 273.005 523.353 272.333 523.823C271.288 524.564 270.038 524.961 268.756 524.959ZM681.211 787.45C680.15 787.451 679.107 787.182 678.18 786.667C677.252 786.152 676.472 785.409 675.913 784.508L613.445 684.545C613.01 683.85 612.717 683.075 612.581 682.266C612.446 681.457 612.471 680.629 612.656 679.83C612.841 679.031 613.181 678.276 613.658 677.608C614.135 676.94 614.738 676.373 615.434 675.939C616.13 675.505 616.904 675.211 617.713 675.076C618.522 674.941 619.35 674.966 620.149 675.151C620.948 675.336 621.703 675.676 622.37 676.153C623.038 676.629 623.605 677.232 624.039 677.928L686.506 777.892C686.941 778.588 687.234 779.362 687.37 780.171C687.505 780.98 687.48 781.808 687.295 782.607C687.11 783.406 686.77 784.161 686.293 784.828C685.817 785.496 685.213 786.063 684.517 786.497C683.528 787.122 682.381 787.452 681.211 787.45ZM231.267 787.45C230.153 787.449 229.059 787.15 228.099 786.584C227.139 786.018 226.348 785.205 225.808 784.23C225.268 783.255 224.999 782.153 225.029 781.039C225.059 779.925 225.386 778.839 225.977 777.894L288.456 677.93C288.89 677.232 289.457 676.626 290.124 676.148C290.792 675.67 291.548 675.328 292.348 675.142C293.148 674.956 293.977 674.929 294.787 675.064C295.598 675.199 296.373 675.493 297.07 675.928C297.767 676.363 298.371 676.932 298.848 677.601C299.324 678.27 299.664 679.026 299.848 679.827C300.032 680.627 300.056 681.456 299.919 682.266C299.782 683.076 299.487 683.851 299.05 684.547L236.572 784.509C236.011 785.411 235.23 786.154 234.301 786.668C233.373 787.183 232.329 787.452 231.267 787.45ZM443.741 437.494C442.995 437.494 442.252 437.359 441.519 437.078L391.544 418.038C390.777 417.746 390.076 417.307 389.48 416.744C388.883 416.181 388.404 415.507 388.068 414.759C387.733 414.011 387.548 413.204 387.524 412.384C387.501 411.565 387.639 410.749 387.931 409.983C388.219 409.213 388.658 408.507 389.22 407.908C389.783 407.309 390.46 406.827 391.21 406.491C391.96 406.155 392.77 405.971 393.592 405.95C394.414 405.93 395.232 406.072 395.999 406.37L445.963 425.413C446.73 425.702 447.433 426.141 448.03 426.703C448.628 427.265 449.108 427.94 449.444 428.688C449.78 429.437 449.964 430.245 449.987 431.065C450.009 431.885 449.869 432.701 449.575 433.467C449.128 434.653 448.33 435.673 447.288 436.393C446.245 437.113 445.007 437.497 443.741 437.494Z" fill="black"/>
<path d="M443.741 437.494C442.58 437.492 441.443 437.169 440.456 436.559C439.469 435.949 438.671 435.077 438.15 434.041C437.411 432.558 437.29 430.842 437.814 429.27C438.338 427.699 439.464 426.399 440.945 425.656L490.939 400.659C491.808 400.23 492.765 400.004 493.734 400H506.233C507.054 400 507.866 400.161 508.624 400.475C509.383 400.789 510.072 401.249 510.652 401.829C511.232 402.41 511.693 403.098 512.006 403.857C512.32 404.615 512.482 405.428 512.481 406.248C512.481 409.703 509.686 412.498 506.233 412.498H495.211L446.536 436.834C445.668 437.269 444.711 437.495 443.741 437.494ZM456.239 262.517C455.418 262.518 454.605 262.356 453.847 262.042C453.089 261.728 452.4 261.268 451.819 260.687C451.239 260.107 450.779 259.418 450.465 258.659C450.151 257.901 449.99 257.088 449.991 256.267V81.2906C449.991 77.836 452.784 75.0406 456.239 75.0406C459.694 75.0406 462.488 77.836 462.488 81.2906V256.267C462.488 259.723 459.694 262.517 456.239 262.517Z" fill="black"/>
<path d="M581.222 112.536H456.239C455.418 112.536 454.606 112.375 453.847 112.061C453.089 111.747 452.4 111.287 451.82 110.707C451.24 110.126 450.779 109.437 450.465 108.679C450.152 107.921 449.99 107.108 449.991 106.287C449.991 102.833 452.784 100.037 456.239 100.037H581.222C584.677 100.037 587.472 102.833 587.472 106.287C587.472 107.108 587.311 107.921 586.997 108.679C586.683 109.438 586.223 110.127 585.642 110.707C585.062 111.288 584.372 111.748 583.614 112.062C582.856 112.375 582.043 112.537 581.222 112.536ZM581.222 150.033H456.239C452.784 150.033 449.991 147.237 449.991 143.783C449.991 140.328 452.784 137.533 456.239 137.533H581.222C584.677 137.533 587.472 140.328 587.472 143.783C587.472 147.237 584.677 150.033 581.222 150.033Z" fill="black"/>
<path d="M581.222 150.033C580.401 150.033 579.588 149.872 578.83 149.558C578.071 149.244 577.382 148.783 576.802 148.203C576.222 147.623 575.762 146.933 575.448 146.175C575.134 145.416 574.973 144.604 574.973 143.783V106.287C574.973 102.833 577.769 100.037 581.222 100.037C584.677 100.037 587.472 102.833 587.472 106.287V143.783C587.472 147.236 584.677 150.033 581.222 150.033ZM681.211 150.033H606.219C602.764 150.033 599.97 147.237 599.97 143.783C599.97 140.328 602.764 137.533 606.219 137.533H681.209C684.664 137.533 687.458 140.328 687.458 143.783C687.458 147.237 684.666 150.033 681.211 150.033ZM681.211 187.528H543.73C540.275 187.528 537.48 184.733 537.48 181.278C537.479 180.457 537.641 179.644 537.955 178.886C538.269 178.128 538.729 177.439 539.309 176.858C539.89 176.278 540.579 175.818 541.338 175.504C542.096 175.19 542.909 175.029 543.73 175.03H681.211C682.032 175.029 682.844 175.191 683.603 175.504C684.361 175.818 685.05 176.279 685.63 176.859C686.21 177.439 686.671 178.128 686.985 178.886C687.298 179.645 687.46 180.457 687.459 181.278C687.459 184.733 684.666 187.528 681.211 187.528Z" fill="black"/>
<path d="M681.211 187.528C679.905 187.528 678.586 187.125 677.464 186.283L652.467 167.534C650.892 166.35 649.964 164.495 649.964 162.53C649.964 160.564 650.892 158.709 652.467 157.525L677.464 138.778C678.792 137.785 680.46 137.36 682.101 137.596C683.742 137.831 685.223 138.709 686.217 140.036C687.207 141.365 687.631 143.031 687.395 144.671C687.16 146.312 686.284 147.792 684.959 148.787L666.627 162.531L684.959 176.275C686.284 177.271 687.16 178.751 687.395 180.391C687.631 182.031 687.207 183.698 686.217 185.027C685.633 185.803 684.877 186.433 684.009 186.867C683.14 187.301 682.182 187.527 681.211 187.528ZM543.728 187.528C542.492 187.529 541.283 187.163 540.255 186.477C539.227 185.79 538.425 184.814 537.952 183.672C537.479 182.53 537.356 181.273 537.597 180.06C537.839 178.848 538.435 177.735 539.309 176.861L576.805 139.366C577.385 138.785 578.074 138.325 578.832 138.011C579.59 137.697 580.402 137.536 581.223 137.536C582.043 137.536 582.856 137.697 583.614 138.011C584.372 138.325 585.061 138.785 585.641 139.366C586.221 139.946 586.681 140.635 586.995 141.393C587.309 142.151 587.471 142.963 587.471 143.784C587.471 144.604 587.309 145.417 586.995 146.175C586.681 146.933 586.221 147.621 585.641 148.202L548.145 185.697C547.566 186.278 546.878 186.739 546.12 187.054C545.362 187.368 544.549 187.529 543.728 187.528ZM181.28 501.023C180.561 501.023 179.847 500.902 179.156 500.658L141.661 487.122C140.102 486.557 138.831 485.397 138.127 483.896C137.423 482.394 137.344 480.675 137.908 479.116C139.08 475.881 142.663 474.209 145.908 475.356L181.28 488.136L216.652 475.356C219.911 474.211 223.488 475.881 224.653 479.116C225.217 480.675 225.138 482.394 224.434 483.896C223.73 485.397 222.459 486.557 220.9 487.122L183.405 500.658C182.722 500.9 182.004 501.023 181.28 501.023ZM106.291 162.531C82.1719 162.531 62.5453 142.905 62.5453 118.787C62.5453 94.6687 82.1719 75.0422 106.291 75.0422C130.409 75.0422 150.034 94.6703 150.034 118.787C150.034 142.903 130.408 162.531 106.291 162.531ZM106.291 87.5391C89.0625 87.5391 75.0438 101.552 75.0438 118.786C75.0438 136.019 89.0625 150.031 106.291 150.031C123.517 150.031 137.536 136.019 137.536 118.786C137.536 101.552 123.517 87.5391 106.291 87.5391ZM106.291 62.5437C102.836 62.5437 100.041 59.7484 100.041 56.2937V18.7984C100.04 17.9776 100.202 17.1648 100.516 16.4064C100.83 15.648 101.29 14.959 101.87 14.3786C102.451 13.7983 103.14 13.3381 103.899 13.0243C104.657 12.7106 105.47 12.5494 106.291 12.55C107.111 12.5496 107.924 12.7109 108.682 13.0248C109.441 13.3387 110.13 13.7989 110.71 14.3792C111.29 14.9595 111.75 15.6485 112.064 16.4068C112.378 17.165 112.54 17.9778 112.539 18.7984V56.2937C112.539 59.7484 109.744 62.5437 106.291 62.5437ZM106.291 225.023C102.836 225.023 100.041 222.228 100.041 218.773V181.278C100.04 180.457 100.202 179.644 100.516 178.886C100.83 178.128 101.29 177.439 101.87 176.858C102.451 176.278 103.14 175.818 103.899 175.504C104.657 175.19 105.47 175.029 106.291 175.03C107.111 175.029 107.924 175.191 108.682 175.504C109.441 175.818 110.13 176.279 110.71 176.859C111.29 177.439 111.75 178.128 112.064 178.886C112.378 179.645 112.54 180.457 112.539 181.278V218.773C112.539 222.228 109.744 225.023 106.291 225.023ZM75.05 70.9172C73.9521 70.9175 72.8733 70.6288 71.9222 70.0803C70.971 69.5318 70.181 68.7427 69.6313 67.7922L50.8828 35.3141C50.4722 34.6039 50.2056 33.8197 50.0984 33.0063C49.9911 32.193 50.0453 31.3665 50.2577 30.5741C50.4702 29.7818 50.8368 29.039 51.3366 28.3885C51.8364 27.7379 52.4595 27.1923 53.1703 26.7828C56.1485 25.0375 59.975 26.075 61.7079 29.0641L80.4563 61.5437C80.8671 62.254 81.1337 63.0383 81.241 63.8517C81.3482 64.6651 81.294 65.4917 81.0814 66.2842C80.8687 67.0766 80.5019 67.8194 80.0019 68.4698C79.5018 69.1203 78.8784 69.6658 78.1672 70.075C77.2216 70.6281 76.1455 70.9188 75.05 70.9172ZM156.289 211.633C155.191 211.633 154.112 211.344 153.161 210.796C152.21 210.247 151.42 209.458 150.87 208.508L132.122 176.03C131.711 175.319 131.445 174.535 131.337 173.722C131.23 172.909 131.284 172.082 131.497 171.29C131.709 170.497 132.076 169.755 132.576 169.104C133.075 168.454 133.699 167.908 134.409 167.498C137.388 165.741 141.214 166.791 142.947 169.78L161.695 202.259C162.106 202.97 162.373 203.754 162.48 204.567C162.587 205.381 162.533 206.207 162.32 207C162.108 207.792 161.741 208.535 161.241 209.185C160.741 209.836 160.117 210.381 159.406 210.791C158.461 211.344 157.385 211.635 156.289 211.633ZM52.1641 93.7891C51.0681 93.7904 49.9916 93.4997 49.0453 92.9469L16.5672 74.2C15.8562 73.7906 15.2329 73.2451 14.733 72.5945C14.2331 71.944 13.8665 71.2013 13.654 70.4088C13.4415 69.6164 13.3874 68.7898 13.4948 67.9765C13.6021 67.1631 13.8689 66.3789 14.2797 65.6687C16.0063 62.6781 19.8328 61.6297 22.8172 63.3859L55.2953 82.1344C56.0063 82.5437 56.6296 83.0893 57.1296 83.7398C57.6295 84.3903 57.9963 85.133 58.2089 85.9253C58.4215 86.7177 58.4758 87.5443 58.3686 88.3577C58.2615 89.171 57.995 89.9553 57.5844 90.6656C57.0345 91.6161 56.2441 92.4052 55.2927 92.9535C54.3412 93.5017 53.2622 93.7899 52.1641 93.7891ZM192.869 175.03C191.773 175.031 190.696 174.74 189.75 174.187L157.284 155.439C156.573 155.03 155.95 154.484 155.45 153.834C154.95 153.183 154.583 152.441 154.37 151.648C154.158 150.856 154.103 150.029 154.211 149.216C154.318 148.402 154.585 147.618 154.995 146.908C156.728 143.917 160.536 142.869 163.533 144.627L195.998 163.375C196.709 163.784 197.333 164.33 197.833 164.98C198.333 165.631 198.699 166.374 198.912 167.166C199.125 167.958 199.179 168.785 199.072 169.598C198.965 170.412 198.698 171.196 198.288 171.906C197.738 172.857 196.948 173.646 195.997 174.194C195.045 174.742 193.967 175.03 192.869 175.03ZM6.30316 125.047C4.66288 125.021 3.09855 124.351 1.94776 123.182C0.796967 122.013 0.151978 120.438 0.151978 118.798C0.151978 117.157 0.796967 115.582 1.94776 114.413C3.09855 113.244 4.66288 112.574 6.30316 112.548L43.7985 112.536C45.4388 112.562 47.0031 113.232 48.1539 114.401C49.3047 115.57 49.9497 117.145 49.9497 118.785C49.9497 120.426 49.3047 122 48.1539 123.169C47.0031 124.339 45.4388 125.008 43.7985 125.034L6.30316 125.047ZM206.277 125.047L168.781 125.034C167.141 125.008 165.577 124.339 164.426 123.169C163.275 122 162.63 120.426 162.63 118.785C162.63 117.145 163.275 115.57 164.426 114.401C165.577 113.232 167.141 112.562 168.781 112.536L206.277 112.548C207.917 112.574 209.481 113.244 210.632 114.413C211.783 115.582 212.428 117.157 212.428 118.798C212.428 120.438 211.783 122.013 210.632 123.182C209.481 124.351 207.917 125.021 206.277 125.047ZM19.711 175.041C18.6129 175.041 17.5341 174.753 16.5829 174.204C15.6317 173.656 14.8417 172.866 14.2922 171.916C13.8816 171.205 13.615 170.421 13.5078 169.608C13.4005 168.795 13.4546 167.968 13.6671 167.176C13.8796 166.383 14.2462 165.641 14.7459 164.99C15.2457 164.34 15.8689 163.794 16.5797 163.384L49.0469 144.625C52.0188 142.867 55.8579 143.917 57.5844 146.906C57.9952 147.616 58.2618 148.401 58.3691 149.214C58.4764 150.028 58.4221 150.854 58.2095 151.647C57.9969 152.439 57.63 153.182 57.13 153.832C56.6299 154.483 56.0065 155.028 55.2953 155.437L22.8297 174.197C21.8839 174.751 20.8072 175.042 19.711 175.041ZM160.416 93.7891C159.039 93.7886 157.702 93.3342 156.61 92.4963C155.518 91.6585 154.733 90.4839 154.377 89.1547C154.02 87.8254 154.112 86.4157 154.638 85.144C155.164 83.8722 156.095 82.8094 157.286 82.1203L189.764 63.3844C191.201 62.5592 192.907 62.3374 194.507 62.7677C196.108 63.1979 197.472 64.2451 198.302 65.6797C198.712 66.3899 198.979 67.1742 199.086 67.9876C199.194 68.8011 199.139 69.6277 198.927 70.4201C198.714 71.2126 198.347 71.9553 197.847 72.6058C197.347 73.2562 196.724 73.8017 196.013 74.2109L163.534 92.9594C162.585 93.5036 161.51 93.7897 160.416 93.7891ZM56.3032 211.633C55.2407 211.633 54.1735 211.364 53.1844 210.791C52.4734 210.381 51.8501 209.836 51.3502 209.185C50.8503 208.535 50.4836 207.792 50.2712 206.999C50.0587 206.207 50.0046 205.38 50.112 204.567C50.2193 203.754 50.4861 202.97 50.8969 202.259L69.6328 169.78C70.0405 169.066 70.5855 168.44 71.2366 167.939C71.8876 167.437 72.6316 167.07 73.4256 166.858C74.2195 166.645 75.0477 166.593 75.8621 166.703C76.6766 166.813 77.4611 167.083 78.1704 167.498C78.8815 167.908 79.5049 168.453 80.005 169.104C80.505 169.754 80.8719 170.497 81.0845 171.289C81.2971 172.082 81.3514 172.908 81.2441 173.722C81.1368 174.535 80.8702 175.319 80.4594 176.03L61.7235 208.508C61.1738 209.459 60.3835 210.248 59.432 210.797C58.4805 211.345 57.4014 211.634 56.3032 211.633ZM137.53 70.9172C136.467 70.9172 135.394 70.6484 134.411 70.075C133.7 69.6655 133.077 69.1199 132.577 68.4693C132.077 67.8187 131.711 67.076 131.498 66.2837C131.286 65.4913 131.232 64.6648 131.339 63.8515C131.446 63.0381 131.713 62.2539 132.123 61.5437L150.883 29.0766C152.609 26.0859 156.43 25.0375 159.42 26.7953C160.131 27.2045 160.755 27.75 161.255 28.4005C161.755 29.0509 162.122 29.7937 162.334 30.5861C162.547 31.3786 162.601 32.2052 162.494 33.0186C162.387 33.832 162.12 34.6163 161.709 35.3266L142.948 67.7922C142.399 68.743 141.609 69.5324 140.658 70.0809C139.707 70.6295 138.628 70.9179 137.53 70.9172ZM281.261 287.527C279.755 287.525 278.3 286.98 277.164 285.991C276.028 285.002 275.288 283.637 275.078 282.145C272.35 262.75 244.058 262.531 243.772 262.531C240.317 262.531 237.522 259.736 237.522 256.281C237.522 252.827 240.317 250.031 243.772 250.031C257.406 250.031 284.073 256.378 287.455 280.411C287.58 281.297 287.514 282.199 287.26 283.057C287.006 283.915 286.571 284.709 285.984 285.384C285.396 286.059 284.67 286.599 283.855 286.969C283.041 287.339 282.156 287.529 281.261 287.527Z" fill="black"/>
<path d="M281.267 287.527C280.566 287.527 279.852 287.405 279.155 287.161C277.595 286.6 276.322 285.443 275.615 283.944C274.908 282.446 274.824 280.727 275.383 279.167C281.73 261.494 313.355 251.4 316.937 250.302C318.522 249.821 320.232 249.988 321.694 250.766C323.156 251.543 324.25 252.869 324.736 254.452C325.22 256.038 325.056 257.752 324.277 259.216C323.499 260.681 322.172 261.777 320.586 262.264C309.356 265.694 290.347 274.481 287.148 283.392C286.713 284.603 285.914 285.65 284.862 286.39C283.809 287.13 282.554 287.527 281.267 287.527ZM93.7922 337.508C92.4703 337.507 91.1826 337.088 90.1143 336.309C89.046 335.531 88.2521 334.433 87.8469 333.175C84.289 322.177 71.5906 324.57 70.1437 324.862C66.8547 325.608 63.4547 323.47 62.7109 320.103C62.3499 318.494 62.6418 316.808 63.5227 315.415C64.4036 314.021 65.8014 313.034 67.4093 312.67C76.0875 310.656 94.0234 311.645 99.7344 329.344C99.9868 330.124 100.083 330.946 100.018 331.763C99.952 332.581 99.7261 333.377 99.3525 334.107C98.979 334.837 98.4653 335.486 97.8407 336.017C97.2161 336.549 96.4929 336.952 95.7125 337.203C95.0922 337.404 94.4443 337.507 93.7922 337.508Z" fill="black"/>
<path d="M93.7984 337.508C93.4688 337.508 93.1328 337.483 92.7906 337.422C91.1553 337.157 89.6922 336.253 88.7227 334.91C87.7532 333.567 87.3567 331.893 87.6203 330.258C89.7688 317.027 111.439 313.364 118.031 312.559C121.473 312.072 124.561 314.573 124.988 317.992C125.19 319.637 124.731 321.295 123.711 322.602C122.691 323.909 121.195 324.757 119.55 324.961C109.609 326.194 100.314 330.075 99.9594 332.259C99.7212 333.722 98.971 335.053 97.8425 336.015C96.7141 336.976 95.2808 337.505 93.7984 337.508Z" fill="black"/>
</svg>
