<svg height="200px" width="200px" version="1.1" id="_x32_" xmlns="http://www.w3.org/2000/svg" xmlns:xlink="http://www.w3.org/1999/xlink" viewBox="-51.2 -51.2 614.40 614.40" xml:space="preserve" fill="#000000" transform="rotate(0)matrix(1, 0, 0, 1, 0, 0)" stroke="#000000" stroke-width="0.00512"><g id="SVGRepo_bgCarrier" stroke-width="0"><rect x="-51.2" y="-51.2" width="614.40" height="614.40" rx="307.2" fill="#f8c481" strokewidth="0"></rect></g><g id="SVGRepo_tracerCarrier" stroke-linecap="round" stroke-linejoin="round" stroke="#f9f5de" stroke-width="4.096"></g><g id="SVGRepo_iconCarrier"> <style type="text/css"> .st0{fill:#000000;} </style> <g> <path class="st0" d="M256.006,179.109c48.077-0.008,87.04-38.968,87.048-87.048C343.046,43.98,304.079,5.028,256.006,5.02 c-48.088,0.008-87.053,38.96-87.061,87.041C168.954,140.14,207.918,179.1,256.006,179.109z M212.021,48.091 c11.294-11.274,26.768-18.201,43.986-18.21c17.209,0.008,32.679,6.936,43.973,18.21c11.274,11.29,18.206,26.755,18.214,43.97 c-0.008,17.213-6.944,32.679-18.217,43.969c-11.294,11.274-26.76,18.21-43.97,18.218c-17.218-0.008-32.688-6.944-43.986-18.218 c-11.274-11.29-18.205-26.756-18.214-43.969C193.816,74.846,200.747,59.38,212.021,48.091z"></path> <path class="st0" d="M445.216,454.336l-5.653-122.018l-0.004-0.032c-1.352-28.536-10.254-52.128-23.842-70.628 c-20.415-27.824-50.416-43.986-79.866-53.382c-29.544-9.38-58.894-12.107-79.846-12.123c-27.922,0.064-70.854,4.775-109.106,23.955 c-19.088,9.615-37.042,23.017-50.614,41.55c-13.584,18.5-22.49,42.083-23.846,70.628l-0.004,0.032l-5.653,122.018H0v52.645h512 v-52.645H445.216z M376.572,454.336l-6.628-102.256c-0.295-4.572-4.241-8.036-8.805-7.737c-4.568,0.3-8.032,4.241-7.737,8.805 l6.56,101.187h-95.259V429.36c29.467-4.241,52.204-29.644,52.204-60.276v-13.596c0-4.807-3.893-8.708-8.704-8.708 c-4.799,0-8.692,3.901-8.692,8.708v13.596c0,23.987-19.512,43.5-43.508,43.5c-23.987,0-43.516-19.512-43.516-43.5v-13.596 c0-4.807-3.884-8.708-8.684-8.708c-4.827,0-8.704,3.901-8.704,8.708v13.596c0,30.632,22.721,56.036,52.204,60.276v24.975H152.04 l6.559-101.187c0.295-4.564-3.168-8.505-7.737-8.805c-4.565-0.299-8.51,3.165-8.805,7.737l-6.628,102.256H91.674l5.6-120.87 l-0.004,0.032c1.218-24.157,8.372-42.464,19.079-57.152c16.024-21.965,41.004-36.006,67.35-44.374 c26.254-8.385,53.527-10.975,72.307-10.958c25.056-0.065,65.124,4.678,97.913,21.301c16.437,8.279,31.012,19.375,41.74,34.032 c10.706,14.688,17.856,32.986,19.07,57.152l-0.004-0.032l5.6,120.87H376.572z"></path> <path class="st0" d="M256.002,286.397c-15.575,0-28.204,12.634-28.204,28.212v52.379c0,15.587,12.629,28.204,28.204,28.204 c15.567,0,28.212-12.617,28.212-28.204v-52.379C284.214,299.031,271.569,286.397,256.002,286.397z"></path> </g> </g></svg>